<?xml version="1.0" encoding="UTF-8" standalone="no"?>
<!DOCTYPE svg PUBLIC "-//W3C//DTD SVG 1.1//EN"
 "http://www.w3.org/Graphics/SVG/1.1/DTD/svg11.dtd">
<!-- Generated by graphviz version 2.38.0 (20140413.2041)
 -->
<!-- Title: models_diagram Pages: 1 -->
<svg width="2459pt" height="1546pt"
 viewBox="0.00 0.00 2458.55 1546.00" xmlns="http://www.w3.org/2000/svg" xmlns:xlink="http://www.w3.org/1999/xlink">
<g id="graph0" class="graph" transform="scale(1 1) rotate(0) translate(4 1542)">
<title>models_diagram</title>
<polygon fill="none" stroke="none" points="-4,4 -4,-1542 2454.55,-1542 2454.55,4 -4,4"/>
<!-- _diagram_info -->
<g id="node1" class="node"><title>_diagram_info</title>
<text text-anchor="start" x="8" y="-1467.6" font-family="Times,serif" font-size="13.00">Models diagram</text>
<text text-anchor="start" x="8" y="-1454.6" font-family="Times,serif" font-size="13.00">Date: Oct 05 2016 &#45; 07:39</text>
<text text-anchor="start" x="8" y="-1441.6" font-family="Times,serif" font-size="13.00">Migration version: 20161004124950</text>
<text text-anchor="start" x="8" y="-1428.6" font-family="Times,serif" font-size="13.00">Generated by RailRoady 1.5.2</text>
<text text-anchor="start" x="8" y="-1415.6" font-family="Times,serif" font-size="13.00">http://railroady.prestonlee.com</text>
</g>
<!-- ApplicationRecord -->
<g id="node2" class="node"><title>ApplicationRecord</title>
<ellipse fill="none" stroke="black" cx="302.688" cy="-1445.5" rx="77.2916" ry="18"/>
<text text-anchor="middle" x="302.688" y="-1441.3" font-family="Times,serif" font-size="14.00">ApplicationRecord</text>
</g>
<!-- Entity -->
<g id="node3" class="node"><title>Entity</title>
<path fill="none" stroke="black" d="M409.825,-1388.5C409.825,-1388.5 633.55,-1388.5 633.55,-1388.5 639.55,-1388.5 645.55,-1394.5 645.55,-1400.5 645.55,-1400.5 645.55,-1490.5 645.55,-1490.5 645.55,-1496.5 639.55,-1502.5 633.55,-1502.5 633.55,-1502.5 409.825,-1502.5 409.825,-1502.5 403.825,-1502.5 397.825,-1496.5 397.825,-1490.5 397.825,-1490.5 397.825,-1400.5 397.825,-1400.5 397.825,-1394.5 403.825,-1388.5 409.825,-1388.5"/>
<text text-anchor="middle" x="521.688" y="-1487.3" font-family="Times,serif" font-size="14.00">Entity</text>
<polyline fill="none" stroke="black" points="397.825,-1480.5 645.55,-1480.5 "/>
<text text-anchor="start" x="405.825" y="-1465.3" font-family="Times,serif" font-size="14.00">id :integer</text>
<text text-anchor="start" x="405.825" y="-1451.3" font-family="Times,serif" font-size="14.00">name :character varying</text>
<text text-anchor="start" x="405.825" y="-1437.3" font-family="Times,serif" font-size="14.00">wikipedia_entry :character varying</text>
<text text-anchor="start" x="405.825" y="-1423.3" font-family="Times,serif" font-size="14.00">type :character varying</text>
<text text-anchor="start" x="405.825" y="-1409.3" font-family="Times,serif" font-size="14.00">created_at :timestamp without time zone</text>
<text text-anchor="start" x="405.825" y="-1395.3" font-family="Times,serif" font-size="14.00">updated_at :timestamp without time zone</text>
</g>
<!-- Gift -->
<g id="node4" class="node"><title>Gift</title>
<path fill="none" stroke="black" d="M675.825,-1353.5C675.825,-1353.5 899.55,-1353.5 899.55,-1353.5 905.55,-1353.5 911.55,-1359.5 911.55,-1365.5 911.55,-1365.5 911.55,-1525.5 911.55,-1525.5 911.55,-1531.5 905.55,-1537.5 899.55,-1537.5 899.55,-1537.5 675.825,-1537.5 675.825,-1537.5 669.825,-1537.5 663.825,-1531.5 663.825,-1525.5 663.825,-1525.5 663.825,-1365.5 663.825,-1365.5 663.825,-1359.5 669.825,-1353.5 675.825,-1353.5"/>
<text text-anchor="middle" x="787.688" y="-1522.3" font-family="Times,serif" font-size="14.00">Gift</text>
<polyline fill="none" stroke="black" points="663.825,-1515.5 911.55,-1515.5 "/>
<text text-anchor="start" x="671.825" y="-1500.3" font-family="Times,serif" font-size="14.00">updated_at :timestamp without time zone</text>
<text text-anchor="start" x="671.825" y="-1486.3" font-family="Times,serif" font-size="14.00">type :character varying</text>
<text text-anchor="start" x="671.825" y="-1472.3" font-family="Times,serif" font-size="14.00">day :integer</text>
<text text-anchor="start" x="671.825" y="-1458.3" font-family="Times,serif" font-size="14.00">month :integer</text>
<text text-anchor="start" x="671.825" y="-1444.3" font-family="Times,serif" font-size="14.00">year :integer</text>
<text text-anchor="start" x="671.825" y="-1430.3" font-family="Times,serif" font-size="14.00">purpose :character varying</text>
<text text-anchor="start" x="671.825" y="-1416.3" font-family="Times,serif" font-size="14.00">type_of_hospitality :character varying</text>
<text text-anchor="start" x="671.825" y="-1402.3" font-family="Times,serif" font-size="14.00">gift :character varying</text>
<text text-anchor="start" x="671.825" y="-1388.3" font-family="Times,serif" font-size="14.00">value :integer</text>
<text text-anchor="start" x="671.825" y="-1374.3" font-family="Times,serif" font-size="14.00">created_at :timestamp without time zone</text>
<text text-anchor="start" x="671.825" y="-1360.3" font-family="Times,serif" font-size="14.00">id :integer</text>
</g>
<!-- GovernmentOffice -->
<g id="node5" class="node"><title>GovernmentOffice</title>
<path fill="none" stroke="black" d="M1292.83,-1201.5C1292.83,-1201.5 1516.55,-1201.5 1516.55,-1201.5 1522.55,-1201.5 1528.55,-1207.5 1528.55,-1213.5 1528.55,-1213.5 1528.55,-1303.5 1528.55,-1303.5 1528.55,-1309.5 1522.55,-1315.5 1516.55,-1315.5 1516.55,-1315.5 1292.83,-1315.5 1292.83,-1315.5 1286.83,-1315.5 1280.83,-1309.5 1280.83,-1303.5 1280.83,-1303.5 1280.83,-1213.5 1280.83,-1213.5 1280.83,-1207.5 1286.83,-1201.5 1292.83,-1201.5"/>
<text text-anchor="middle" x="1404.69" y="-1300.3" font-family="Times,serif" font-size="14.00">GovernmentOffice</text>
<polyline fill="none" stroke="black" points="1280.83,-1293.5 1528.55,-1293.5 "/>
<text text-anchor="start" x="1288.83" y="-1278.3" font-family="Times,serif" font-size="14.00">id :integer</text>
<text text-anchor="start" x="1288.83" y="-1264.3" font-family="Times,serif" font-size="14.00">name :character varying</text>
<text text-anchor="start" x="1288.83" y="-1250.3" font-family="Times,serif" font-size="14.00">wikipedia_entry :character varying</text>
<text text-anchor="start" x="1288.83" y="-1236.3" font-family="Times,serif" font-size="14.00">type :character varying</text>
<text text-anchor="start" x="1288.83" y="-1222.3" font-family="Times,serif" font-size="14.00">created_at :timestamp without time zone</text>
<text text-anchor="start" x="1288.83" y="-1208.3" font-family="Times,serif" font-size="14.00">updated_at :timestamp without time zone</text>
</g>
<!-- Gift&#45;&gt;GovernmentOffice -->
<g id="edge6" class="edge"><title>Gift&#45;&gt;GovernmentOffice</title>
<path fill="none" stroke="#6eca7f" d="M921.679,-1404.32C1025.1,-1373.31 1167.52,-1330.61 1270.89,-1299.62"/>
<polygon fill="#6eca7f" stroke="#6eca7f" points="921.383,-1404.41 910.512,-1402.97 916.594,-1405.85 911.805,-1407.29 911.805,-1407.29 911.805,-1407.29 916.594,-1405.85 913.097,-1411.6 921.383,-1404.41 921.383,-1404.41"/>
<polygon fill="#6eca7f" stroke="#6eca7f" points="1271.19,-1299.53 1282.06,-1300.97 1275.98,-1298.09 1280.77,-1296.66 1280.77,-1296.66 1280.77,-1296.66 1275.98,-1298.09 1279.48,-1292.35 1271.19,-1299.53 1271.19,-1299.53"/>
</g>
<!-- InfluenceOfficePerson -->
<g id="node8" class="node"><title>InfluenceOfficePerson</title>
<path fill="none" stroke="black" d="M1111.83,-0.5C1111.83,-0.5 1335.55,-0.5 1335.55,-0.5 1341.55,-0.5 1347.55,-6.5 1347.55,-12.5 1347.55,-12.5 1347.55,-116.5 1347.55,-116.5 1347.55,-122.5 1341.55,-128.5 1335.55,-128.5 1335.55,-128.5 1111.83,-128.5 1111.83,-128.5 1105.83,-128.5 1099.83,-122.5 1099.83,-116.5 1099.83,-116.5 1099.83,-12.5 1099.83,-12.5 1099.83,-6.5 1105.83,-0.5 1111.83,-0.5"/>
<text text-anchor="middle" x="1223.69" y="-113.3" font-family="Times,serif" font-size="14.00">InfluenceOfficePerson</text>
<polyline fill="none" stroke="black" points="1099.83,-106.5 1347.55,-106.5 "/>
<text text-anchor="start" x="1107.83" y="-91.3" font-family="Times,serif" font-size="14.00">person_id :integer</text>
<text text-anchor="start" x="1107.83" y="-77.3" font-family="Times,serif" font-size="14.00">means_of_influence_id :integer</text>
<text text-anchor="start" x="1107.83" y="-63.3" font-family="Times,serif" font-size="14.00">office_id :integer</text>
<text text-anchor="start" x="1107.83" y="-49.3" font-family="Times,serif" font-size="14.00">id :integer</text>
<text text-anchor="start" x="1107.83" y="-35.3" font-family="Times,serif" font-size="14.00">created_at :timestamp without time zone</text>
<text text-anchor="start" x="1107.83" y="-21.3" font-family="Times,serif" font-size="14.00">updated_at :timestamp without time zone</text>
<text text-anchor="start" x="1107.83" y="-7.3" font-family="Times,serif" font-size="14.00">type :character varying</text>
</g>
<!-- Gift&#45;&gt;InfluenceOfficePerson -->
<g id="edge1" class="edge"><title>Gift&#45;&gt;InfluenceOfficePerson</title>
<path fill="none" stroke="#4ca705" d="M656.104,-1353.53C655.632,-1353.35 655.16,-1353.18 654.688,-1353 489.987,-1291.95 270.688,-1435.15 270.688,-1259.5 270.688,-1259.5 270.688,-1259.5 270.688,-270.5 270.688,-105.061 826.546,-72.7501 1089.22,-66.7175"/>
<ellipse fill="none" stroke="#4ca705" cx="660.028" cy="-1355.11" rx="4.00001" ry="4.00001"/>
<polygon fill="#4ca705" stroke="#4ca705" points="1089.59,-66.7094 1099.69,-70.9885 1094.59,-66.5995 1099.59,-66.4895 1099.59,-66.4895 1099.59,-66.4895 1094.59,-66.5995 1099.49,-61.9906 1089.59,-66.7094 1089.59,-66.7094"/>
<text text-anchor="middle" x="374.878" y="-784.8" font-family="Times,serif" font-size="14.00">influence_government_office_people</text>
</g>
<!-- Gift&#45;&gt;InfluenceOfficePerson -->
<g id="edge2" class="edge"><title>Gift&#45;&gt;InfluenceOfficePerson</title>
<path fill="none" stroke="#d6f140" d="M656.621,-1354.26C655.975,-1353.84 655.331,-1353.42 654.688,-1353 587.836,-1309.62 501.688,-1339.19 501.688,-1259.5 501.688,-1259.5 501.688,-1259.5 501.688,-270.5 501.688,-219.566 528.119,-206.966 570.688,-179 653.994,-124.27 923.612,-91.6354 1089.22,-76.2556"/>
<ellipse fill="none" stroke="#d6f140" cx="660.237" cy="-1356.62" rx="4.00002" ry="4.00002"/>
<polygon fill="#d6f140" stroke="#d6f140" points="1089.52,-76.2277 1099.89,-79.7933 1094.5,-75.77 1099.48,-75.3122 1099.48,-75.3122 1099.48,-75.3122 1094.5,-75.77 1099.07,-70.8311 1089.52,-76.2277 1089.52,-76.2277"/>
<text text-anchor="middle" x="587.486" y="-784.8" font-family="Times,serif" font-size="14.00">influence_organisation_people</text>
</g>
<!-- Organisation -->
<g id="node12" class="node"><title>Organisation</title>
<path fill="none" stroke="black" d="M576.825,-814.5C576.825,-814.5 800.55,-814.5 800.55,-814.5 806.55,-814.5 812.55,-820.5 812.55,-826.5 812.55,-826.5 812.55,-916.5 812.55,-916.5 812.55,-922.5 806.55,-928.5 800.55,-928.5 800.55,-928.5 576.825,-928.5 576.825,-928.5 570.825,-928.5 564.825,-922.5 564.825,-916.5 564.825,-916.5 564.825,-826.5 564.825,-826.5 564.825,-820.5 570.825,-814.5 576.825,-814.5"/>
<text text-anchor="middle" x="688.688" y="-913.3" font-family="Times,serif" font-size="14.00">Organisation</text>
<polyline fill="none" stroke="black" points="564.825,-906.5 812.55,-906.5 "/>
<text text-anchor="start" x="572.825" y="-891.3" font-family="Times,serif" font-size="14.00">id :integer</text>
<text text-anchor="start" x="572.825" y="-877.3" font-family="Times,serif" font-size="14.00">name :character varying</text>
<text text-anchor="start" x="572.825" y="-863.3" font-family="Times,serif" font-size="14.00">wikipedia_entry :character varying</text>
<text text-anchor="start" x="572.825" y="-849.3" font-family="Times,serif" font-size="14.00">type :character varying</text>
<text text-anchor="start" x="572.825" y="-835.3" font-family="Times,serif" font-size="14.00">created_at :timestamp without time zone</text>
<text text-anchor="start" x="572.825" y="-821.3" font-family="Times,serif" font-size="14.00">updated_at :timestamp without time zone</text>
</g>
<!-- Gift&#45;&gt;Organisation -->
<g id="edge3" class="edge"><title>Gift&#45;&gt;Organisation</title>
<path fill="none" stroke="#28902a" d="M770.161,-1343.24C749.96,-1226.52 717.338,-1038.04 700.142,-938.679"/>
<polygon fill="#28902a" stroke="#28902a" points="770.186,-1343.38 767.457,-1354 771.039,-1348.31 771.891,-1353.23 771.891,-1353.23 771.891,-1353.23 771.039,-1348.31 776.326,-1352.46 770.186,-1343.38 770.186,-1343.38"/>
<polygon fill="#28902a" stroke="#28902a" points="700.131,-938.618 702.86,-927.997 699.279,-933.691 698.426,-928.765 698.426,-928.765 698.426,-928.765 699.279,-933.691 693.992,-929.532 700.131,-938.618 700.131,-938.618"/>
</g>
<!-- Person -->
<g id="node13" class="node"><title>Person</title>
<path fill="none" stroke="black" d="M1136.83,-414.5C1136.83,-414.5 1360.55,-414.5 1360.55,-414.5 1366.55,-414.5 1372.55,-420.5 1372.55,-426.5 1372.55,-426.5 1372.55,-516.5 1372.55,-516.5 1372.55,-522.5 1366.55,-528.5 1360.55,-528.5 1360.55,-528.5 1136.83,-528.5 1136.83,-528.5 1130.83,-528.5 1124.83,-522.5 1124.83,-516.5 1124.83,-516.5 1124.83,-426.5 1124.83,-426.5 1124.83,-420.5 1130.83,-414.5 1136.83,-414.5"/>
<text text-anchor="middle" x="1248.69" y="-513.3" font-family="Times,serif" font-size="14.00">Person</text>
<polyline fill="none" stroke="black" points="1124.83,-506.5 1372.55,-506.5 "/>
<text text-anchor="start" x="1132.83" y="-491.3" font-family="Times,serif" font-size="14.00">id :integer</text>
<text text-anchor="start" x="1132.83" y="-477.3" font-family="Times,serif" font-size="14.00">name :character varying</text>
<text text-anchor="start" x="1132.83" y="-463.3" font-family="Times,serif" font-size="14.00">wikipedia_entry :character varying</text>
<text text-anchor="start" x="1132.83" y="-449.3" font-family="Times,serif" font-size="14.00">type :character varying</text>
<text text-anchor="start" x="1132.83" y="-435.3" font-family="Times,serif" font-size="14.00">created_at :timestamp without time zone</text>
<text text-anchor="start" x="1132.83" y="-421.3" font-family="Times,serif" font-size="14.00">updated_at :timestamp without time zone</text>
</g>
<!-- Gift&#45;&gt;Person -->
<g id="edge4" class="edge"><title>Gift&#45;&gt;Person</title>
<path fill="none" stroke="#7476c0" d="M800.865,-1343.27C801.152,-1340.48 801.427,-1337.72 801.688,-1335 805.802,-1292 804.43,-984.189 826.409,-947 833.99,-934.174 846.881,-941.689 854.688,-929 899.39,-856.342 835.682,-610.465 892.688,-547 922.296,-514.036 1026.43,-494.825 1114.48,-484.194"/>
<polygon fill="#7476c0" stroke="#7476c0" points="800.842,-1343.49 795.303,-1352.95 800.309,-1348.46 799.777,-1353.43 799.777,-1353.43 799.777,-1353.43 800.309,-1348.46 804.252,-1353.91 800.842,-1343.49 800.842,-1343.49"/>
<polygon fill="#7476c0" stroke="#7476c0" points="1114.65,-484.174 1125.11,-487.472 1119.62,-483.588 1124.59,-483.003 1124.59,-483.003 1124.59,-483.003 1119.62,-483.588 1124.06,-478.534 1114.65,-484.174 1114.65,-484.174"/>
<text text-anchor="middle" x="882.327" y="-949.8" font-family="Times,serif" font-size="14.00">organisation_people</text>
</g>
<!-- Gift&#45;&gt;Person -->
<g id="edge5" class="edge"><title>Gift&#45;&gt;Person</title>
<path fill="none" stroke="#14c931" d="M829.23,-1343.91C866.618,-1247.57 918.792,-1097.14 939.688,-961 965.446,-793.178 871.96,-736.373 935.688,-579 943.12,-560.646 949.601,-557.006 966.688,-547 1011.55,-520.726 1065.79,-503.543 1114.67,-492.386"/>
<polygon fill="#14c931" stroke="#14c931" points="829.181,-1344.04 821.354,-1351.72 827.363,-1348.69 825.546,-1353.35 825.546,-1353.35 825.546,-1353.35 827.363,-1348.69 829.738,-1354.99 829.181,-1344.04 829.181,-1344.04"/>
<polygon fill="#14c931" stroke="#14c931" points="1114.93,-492.329 1125.67,-494.558 1119.81,-491.247 1124.69,-490.165 1124.69,-490.165 1124.69,-490.165 1119.81,-491.247 1123.72,-485.771 1114.93,-492.329 1114.93,-492.329"/>
<text text-anchor="middle" x="996.281" y="-949.8" font-family="Times,serif" font-size="14.00">government_people</text>
</g>
<!-- Hospitality -->
<g id="node6" class="node"><title>Hospitality</title>
<path fill="none" stroke="black" d="M1185.83,-979.5C1185.83,-979.5 1409.55,-979.5 1409.55,-979.5 1415.55,-979.5 1421.55,-985.5 1421.55,-991.5 1421.55,-991.5 1421.55,-1151.5 1421.55,-1151.5 1421.55,-1157.5 1415.55,-1163.5 1409.55,-1163.5 1409.55,-1163.5 1185.83,-1163.5 1185.83,-1163.5 1179.83,-1163.5 1173.83,-1157.5 1173.83,-1151.5 1173.83,-1151.5 1173.83,-991.5 1173.83,-991.5 1173.83,-985.5 1179.83,-979.5 1185.83,-979.5"/>
<text text-anchor="middle" x="1297.69" y="-1148.3" font-family="Times,serif" font-size="14.00">Hospitality</text>
<polyline fill="none" stroke="black" points="1173.83,-1141.5 1421.55,-1141.5 "/>
<text text-anchor="start" x="1181.83" y="-1126.3" font-family="Times,serif" font-size="14.00">updated_at :timestamp without time zone</text>
<text text-anchor="start" x="1181.83" y="-1112.3" font-family="Times,serif" font-size="14.00">type :character varying</text>
<text text-anchor="start" x="1181.83" y="-1098.3" font-family="Times,serif" font-size="14.00">day :integer</text>
<text text-anchor="start" x="1181.83" y="-1084.3" font-family="Times,serif" font-size="14.00">month :integer</text>
<text text-anchor="start" x="1181.83" y="-1070.3" font-family="Times,serif" font-size="14.00">year :integer</text>
<text text-anchor="start" x="1181.83" y="-1056.3" font-family="Times,serif" font-size="14.00">purpose :character varying</text>
<text text-anchor="start" x="1181.83" y="-1042.3" font-family="Times,serif" font-size="14.00">type_of_hospitality :character varying</text>
<text text-anchor="start" x="1181.83" y="-1028.3" font-family="Times,serif" font-size="14.00">gift :character varying</text>
<text text-anchor="start" x="1181.83" y="-1014.3" font-family="Times,serif" font-size="14.00">value :integer</text>
<text text-anchor="start" x="1181.83" y="-1000.3" font-family="Times,serif" font-size="14.00">created_at :timestamp without time zone</text>
<text text-anchor="start" x="1181.83" y="-986.3" font-family="Times,serif" font-size="14.00">id :integer</text>
</g>
<!-- GovernmentOffice&#45;&gt;Hospitality -->
<g id="edge9" class="edge"><title>GovernmentOffice&#45;&gt;Hospitality</title>
<path fill="none" stroke="#1c756e" d="M1367.15,-1192.6C1363.32,-1185.98 1359.37,-1179.15 1355.39,-1172.26"/>
<polygon fill="#1c756e" stroke="#1c756e" points="1367.29,-1192.84 1368.4,-1203.74 1369.79,-1197.16 1372.29,-1201.49 1372.29,-1201.49 1372.29,-1201.49 1369.79,-1197.16 1376.19,-1199.24 1367.29,-1192.84 1367.29,-1192.84"/>
<polygon fill="#1c756e" stroke="#1c756e" points="1355.34,-1172.18 1354.23,-1161.27 1352.84,-1167.85 1350.33,-1163.52 1350.33,-1163.52 1350.33,-1163.52 1352.84,-1167.85 1346.44,-1165.77 1355.34,-1172.18 1355.34,-1172.18"/>
</g>
<!-- GovernmentOffice&#45;&gt;InfluenceOfficePerson -->
<g id="edge7" class="edge"><title>GovernmentOffice&#45;&gt;InfluenceOfficePerson</title>
<path fill="none" stroke="#744872" d="M1536.44,-1231.7C1619.71,-1206.86 1711.69,-1159.7 1711.69,-1072.5 1711.69,-1072.5 1711.69,-1072.5 1711.69,-788 1711.69,-692.32 1694.2,-645.172 1763.31,-579 1793.78,-549.819 1866.57,-586.843 1852.69,-547 1783.97,-349.844 1731.33,-299.306 1560.69,-179 1500.46,-136.536 1423.12,-108.995 1357.73,-91.693"/>
<ellipse fill="none" stroke="#744872" cx="1532.51" cy="-1232.84" rx="4.00001" ry="4.00001"/>
<polygon fill="#744872" stroke="#744872" points="1357.44,-91.6174 1348.89,-84.7526 1352.6,-90.3631 1347.76,-89.1087 1347.76,-89.1087 1347.76,-89.1087 1352.6,-90.3631 1346.63,-93.4648 1357.44,-91.6174 1357.44,-91.6174"/>
<text text-anchor="middle" x="1866.88" y="-667.3" font-family="Times,serif" font-size="14.00">influence_government_office_people</text>
</g>
<!-- Meeting -->
<g id="node11" class="node"><title>Meeting</title>
<path fill="none" stroke="black" d="M1111.83,-179.5C1111.83,-179.5 1335.55,-179.5 1335.55,-179.5 1341.55,-179.5 1347.55,-185.5 1347.55,-191.5 1347.55,-191.5 1347.55,-351.5 1347.55,-351.5 1347.55,-357.5 1341.55,-363.5 1335.55,-363.5 1335.55,-363.5 1111.83,-363.5 1111.83,-363.5 1105.83,-363.5 1099.83,-357.5 1099.83,-351.5 1099.83,-351.5 1099.83,-191.5 1099.83,-191.5 1099.83,-185.5 1105.83,-179.5 1111.83,-179.5"/>
<text text-anchor="middle" x="1223.69" y="-348.3" font-family="Times,serif" font-size="14.00">Meeting</text>
<polyline fill="none" stroke="black" points="1099.83,-341.5 1347.55,-341.5 "/>
<text text-anchor="start" x="1107.83" y="-326.3" font-family="Times,serif" font-size="14.00">updated_at :timestamp without time zone</text>
<text text-anchor="start" x="1107.83" y="-312.3" font-family="Times,serif" font-size="14.00">type :character varying</text>
<text text-anchor="start" x="1107.83" y="-298.3" font-family="Times,serif" font-size="14.00">day :integer</text>
<text text-anchor="start" x="1107.83" y="-284.3" font-family="Times,serif" font-size="14.00">month :integer</text>
<text text-anchor="start" x="1107.83" y="-270.3" font-family="Times,serif" font-size="14.00">year :integer</text>
<text text-anchor="start" x="1107.83" y="-256.3" font-family="Times,serif" font-size="14.00">purpose :character varying</text>
<text text-anchor="start" x="1107.83" y="-242.3" font-family="Times,serif" font-size="14.00">type_of_hospitality :character varying</text>
<text text-anchor="start" x="1107.83" y="-228.3" font-family="Times,serif" font-size="14.00">gift :character varying</text>
<text text-anchor="start" x="1107.83" y="-214.3" font-family="Times,serif" font-size="14.00">value :integer</text>
<text text-anchor="start" x="1107.83" y="-200.3" font-family="Times,serif" font-size="14.00">created_at :timestamp without time zone</text>
<text text-anchor="start" x="1107.83" y="-186.3" font-family="Times,serif" font-size="14.00">id :integer</text>
</g>
<!-- GovernmentOffice&#45;&gt;Meeting -->
<g id="edge8" class="edge"><title>GovernmentOffice&#45;&gt;Meeting</title>
<path fill="none" stroke="#99678b" d="M1428.76,-1191.67C1439.46,-1156.75 1449.69,-1112.84 1449.69,-1072.5 1449.69,-1072.5 1449.69,-1072.5 1449.69,-788 1449.69,-604.74 1475.67,-536.867 1377.69,-382 1371.32,-371.929 1363.65,-362.511 1355.19,-353.764"/>
<polygon fill="#99678b" stroke="#99678b" points="1428.74,-1191.73 1421.45,-1199.92 1427.24,-1196.5 1425.74,-1201.27 1425.74,-1201.27 1425.74,-1201.27 1427.24,-1196.5 1430.03,-1202.62 1428.74,-1191.73 1428.74,-1191.73"/>
<polygon fill="#99678b" stroke="#99678b" points="1355.02,-353.598 1351.06,-343.371 1351.46,-350.086 1347.9,-346.574 1347.9,-346.574 1347.9,-346.574 1351.46,-350.086 1344.74,-349.777 1355.02,-353.598 1355.02,-353.598"/>
</g>
<!-- Travel -->
<g id="node14" class="node"><title>Travel</title>
<path fill="none" stroke="black" d="M956.825,-579.5C956.825,-579.5 1180.55,-579.5 1180.55,-579.5 1186.55,-579.5 1192.55,-585.5 1192.55,-591.5 1192.55,-591.5 1192.55,-751.5 1192.55,-751.5 1192.55,-757.5 1186.55,-763.5 1180.55,-763.5 1180.55,-763.5 956.825,-763.5 956.825,-763.5 950.825,-763.5 944.825,-757.5 944.825,-751.5 944.825,-751.5 944.825,-591.5 944.825,-591.5 944.825,-585.5 950.825,-579.5 956.825,-579.5"/>
<text text-anchor="middle" x="1068.69" y="-748.3" font-family="Times,serif" font-size="14.00">Travel</text>
<polyline fill="none" stroke="black" points="944.825,-741.5 1192.55,-741.5 "/>
<text text-anchor="start" x="952.825" y="-726.3" font-family="Times,serif" font-size="14.00">updated_at :timestamp without time zone</text>
<text text-anchor="start" x="952.825" y="-712.3" font-family="Times,serif" font-size="14.00">type :character varying</text>
<text text-anchor="start" x="952.825" y="-698.3" font-family="Times,serif" font-size="14.00">day :integer</text>
<text text-anchor="start" x="952.825" y="-684.3" font-family="Times,serif" font-size="14.00">month :integer</text>
<text text-anchor="start" x="952.825" y="-670.3" font-family="Times,serif" font-size="14.00">year :integer</text>
<text text-anchor="start" x="952.825" y="-656.3" font-family="Times,serif" font-size="14.00">purpose :character varying</text>
<text text-anchor="start" x="952.825" y="-642.3" font-family="Times,serif" font-size="14.00">type_of_hospitality :character varying</text>
<text text-anchor="start" x="952.825" y="-628.3" font-family="Times,serif" font-size="14.00">gift :character varying</text>
<text text-anchor="start" x="952.825" y="-614.3" font-family="Times,serif" font-size="14.00">value :integer</text>
<text text-anchor="start" x="952.825" y="-600.3" font-family="Times,serif" font-size="14.00">created_at :timestamp without time zone</text>
<text text-anchor="start" x="952.825" y="-586.3" font-family="Times,serif" font-size="14.00">id :integer</text>
</g>
<!-- GovernmentOffice&#45;&gt;Travel -->
<g id="edge10" class="edge"><title>GovernmentOffice&#45;&gt;Travel</title>
<path fill="none" stroke="#28b691" d="M1270.74,-1228.9C1232.17,-1214.93 1192.93,-1194.31 1164.69,-1164 1113.04,-1108.57 1087.22,-900.82 1076,-773.832"/>
<polygon fill="#28b691" stroke="#28b691" points="1271.08,-1229.02 1279.04,-1236.56 1275.8,-1230.66 1280.52,-1232.31 1280.52,-1232.31 1280.52,-1232.31 1275.8,-1230.66 1282,-1228.06 1271.08,-1229.02 1271.08,-1229.02"/>
<polygon fill="#28b691" stroke="#28b691" points="1075.99,-773.66 1079.6,-763.308 1075.55,-768.678 1075.12,-763.697 1075.12,-763.697 1075.12,-763.697 1075.55,-768.678 1070.64,-764.086 1075.99,-773.66 1075.99,-773.66"/>
</g>
<!-- Hospitality&#45;&gt;InfluenceOfficePerson -->
<g id="edge11" class="edge"><title>Hospitality&#45;&gt;InfluenceOfficePerson</title>
<path fill="none" stroke="#37ec35" d="M1386.02,-972.791C1396.51,-958.658 1406.42,-943.853 1414.69,-929 1491.11,-791.77 1469.26,-735.974 1463.69,-579 1456.83,-385.84 1552.6,-281.388 1413.69,-147 1397.4,-131.239 1377.58,-118.295 1356.97,-107.736"/>
<ellipse fill="none" stroke="#37ec35" cx="1383.57" cy="-976.042" rx="4.00002" ry="4.00002"/>
<polygon fill="#37ec35" stroke="#37ec35" points="1356.74,-107.625 1349.76,-99.1676 1352.26,-105.415 1347.77,-103.204 1347.77,-103.204 1347.77,-103.204 1352.26,-105.415 1345.78,-107.24 1356.74,-107.625 1356.74,-107.625"/>
<text text-anchor="middle" x="1566.88" y="-549.8" font-family="Times,serif" font-size="14.00">influence_government_office_people</text>
</g>
<!-- Hospitality&#45;&gt;InfluenceOfficePerson -->
<g id="edge12" class="edge"><title>Hospitality&#45;&gt;InfluenceOfficePerson</title>
<path fill="none" stroke="#17eea4" d="M1428.33,-983.506C1553.93,-887.875 1718.72,-724.124 1674.69,-547 1630.04,-367.368 1602.45,-317.53 1479.69,-179 1447.48,-142.653 1401.42,-117.39 1357.24,-100.095"/>
<ellipse fill="none" stroke="#17eea4" cx="1424.82" cy="-986.161" rx="4.00002" ry="4.00002"/>
<polygon fill="#17eea4" stroke="#17eea4" points="1357.19,-100.077 1349.44,-92.3179 1352.52,-98.3007 1347.84,-96.5244 1347.84,-96.5244 1347.84,-96.5244 1352.52,-98.3007 1346.24,-100.731 1357.19,-100.077 1357.19,-100.077"/>
<text text-anchor="middle" x="1762.49" y="-549.8" font-family="Times,serif" font-size="14.00">influence_organisation_people</text>
</g>
<!-- Hospitality&#45;&gt;Organisation -->
<g id="edge13" class="edge"><title>Hospitality&#45;&gt;Organisation</title>
<path fill="none" stroke="#16d910" d="M1258.8,-971.16C1251.93,-961.919 1243.95,-953.574 1234.69,-947 1170.47,-901.413 963.046,-883.649 823.159,-876.775"/>
<polygon fill="#16d910" stroke="#16d910" points="1258.87,-971.26 1260.85,-982.046 1261.71,-975.374 1264.55,-979.489 1264.55,-979.489 1264.55,-979.489 1261.71,-975.374 1268.26,-976.932 1258.87,-971.26 1258.87,-971.26"/>
<polygon fill="#16d910" stroke="#16d910" points="822.775,-876.757 813.002,-871.784 817.781,-876.518 812.787,-876.279 812.787,-876.279 812.787,-876.279 817.781,-876.518 812.572,-880.774 822.775,-876.757 822.775,-876.757"/>
</g>
<!-- Hospitality&#45;&gt;Person -->
<g id="edge14" class="edge"><title>Hospitality&#45;&gt;Person</title>
<path fill="none" stroke="#cec513" d="M1264.58,-969.731C1261.43,-961.96 1258.12,-954.304 1254.69,-947 1221.33,-876.029 1184.47,-871.54 1163.41,-796 1161.74,-790.006 1159.59,-786.909 1163.41,-782 1183.49,-756.222 1213.07,-788.5 1234.69,-764 1288.49,-703.02 1280.33,-603.914 1266.76,-538.463"/>
<polygon fill="#cec513" stroke="#cec513" points="1264.67,-969.951 1264.16,-980.906 1266.51,-974.601 1268.35,-979.25 1268.35,-979.25 1268.35,-979.25 1266.51,-974.601 1272.53,-977.594 1264.67,-969.951 1264.67,-969.951"/>
<polygon fill="#cec513" stroke="#cec513" points="1266.75,-538.432 1269.03,-527.706 1265.69,-533.546 1264.63,-528.659 1264.63,-528.659 1264.63,-528.659 1265.69,-533.546 1260.23,-529.613 1266.75,-538.432 1266.75,-538.432"/>
<text text-anchor="middle" x="1219.33" y="-784.8" font-family="Times,serif" font-size="14.00">organisation_people</text>
</g>
<!-- Hospitality&#45;&gt;Person -->
<g id="edge15" class="edge"><title>Hospitality&#45;&gt;Person</title>
<path fill="none" stroke="#e0804f" d="M1296.94,-968.861C1295.58,-828.148 1291.93,-586.744 1282.69,-547 1282.02,-544.144 1281.25,-541.264 1280.38,-538.384"/>
<polygon fill="#e0804f" stroke="#e0804f" points="1296.95,-969.232 1292.54,-979.274 1297,-974.232 1297.04,-979.231 1297.04,-979.231 1297.04,-979.231 1297,-974.232 1301.54,-979.189 1296.95,-969.232 1296.95,-969.232"/>
<polygon fill="#e0804f" stroke="#e0804f" points="1280.28,-538.1 1281.37,-527.189 1278.69,-533.359 1277.11,-528.618 1277.11,-528.618 1277.11,-528.618 1278.69,-533.359 1272.84,-530.048 1280.28,-538.1 1280.28,-538.1"/>
<text text-anchor="middle" x="1349.28" y="-784.8" font-family="Times,serif" font-size="14.00">government_people</text>
</g>
<!-- InfluenceGovernmentOfficePerson -->
<g id="node7" class="node"><title>InfluenceGovernmentOfficePerson</title>
<path fill="none" stroke="black" d="M1948.83,-1381.5C1948.83,-1381.5 2172.55,-1381.5 2172.55,-1381.5 2178.55,-1381.5 2184.55,-1387.5 2184.55,-1393.5 2184.55,-1393.5 2184.55,-1497.5 2184.55,-1497.5 2184.55,-1503.5 2178.55,-1509.5 2172.55,-1509.5 2172.55,-1509.5 1948.83,-1509.5 1948.83,-1509.5 1942.83,-1509.5 1936.83,-1503.5 1936.83,-1497.5 1936.83,-1497.5 1936.83,-1393.5 1936.83,-1393.5 1936.83,-1387.5 1942.83,-1381.5 1948.83,-1381.5"/>
<text text-anchor="middle" x="2060.69" y="-1494.3" font-family="Times,serif" font-size="14.00">InfluenceGovernmentOfficePerson</text>
<polyline fill="none" stroke="black" points="1936.83,-1487.5 2184.55,-1487.5 "/>
<text text-anchor="start" x="1944.83" y="-1472.3" font-family="Times,serif" font-size="14.00">person_id :integer</text>
<text text-anchor="start" x="1944.83" y="-1458.3" font-family="Times,serif" font-size="14.00">means_of_influence_id :integer</text>
<text text-anchor="start" x="1944.83" y="-1444.3" font-family="Times,serif" font-size="14.00">office_id :integer</text>
<text text-anchor="start" x="1944.83" y="-1430.3" font-family="Times,serif" font-size="14.00">id :integer</text>
<text text-anchor="start" x="1944.83" y="-1416.3" font-family="Times,serif" font-size="14.00">created_at :timestamp without time zone</text>
<text text-anchor="start" x="1944.83" y="-1402.3" font-family="Times,serif" font-size="14.00">updated_at :timestamp without time zone</text>
<text text-anchor="start" x="1944.83" y="-1388.3" font-family="Times,serif" font-size="14.00">type :character varying</text>
</g>
<!-- InfluenceOrganisationPerson -->
<g id="node9" class="node"><title>InfluenceOrganisationPerson</title>
<path fill="none" stroke="black" d="M2214.83,-1381.5C2214.83,-1381.5 2438.55,-1381.5 2438.55,-1381.5 2444.55,-1381.5 2450.55,-1387.5 2450.55,-1393.5 2450.55,-1393.5 2450.55,-1497.5 2450.55,-1497.5 2450.55,-1503.5 2444.55,-1509.5 2438.55,-1509.5 2438.55,-1509.5 2214.83,-1509.5 2214.83,-1509.5 2208.83,-1509.5 2202.83,-1503.5 2202.83,-1497.5 2202.83,-1497.5 2202.83,-1393.5 2202.83,-1393.5 2202.83,-1387.5 2208.83,-1381.5 2214.83,-1381.5"/>
<text text-anchor="middle" x="2326.69" y="-1494.3" font-family="Times,serif" font-size="14.00">InfluenceOrganisationPerson</text>
<polyline fill="none" stroke="black" points="2202.83,-1487.5 2450.55,-1487.5 "/>
<text text-anchor="start" x="2210.83" y="-1472.3" font-family="Times,serif" font-size="14.00">person_id :integer</text>
<text text-anchor="start" x="2210.83" y="-1458.3" font-family="Times,serif" font-size="14.00">means_of_influence_id :integer</text>
<text text-anchor="start" x="2210.83" y="-1444.3" font-family="Times,serif" font-size="14.00">office_id :integer</text>
<text text-anchor="start" x="2210.83" y="-1430.3" font-family="Times,serif" font-size="14.00">id :integer</text>
<text text-anchor="start" x="2210.83" y="-1416.3" font-family="Times,serif" font-size="14.00">created_at :timestamp without time zone</text>
<text text-anchor="start" x="2210.83" y="-1402.3" font-family="Times,serif" font-size="14.00">updated_at :timestamp without time zone</text>
<text text-anchor="start" x="2210.83" y="-1388.3" font-family="Times,serif" font-size="14.00">type :character varying</text>
</g>
<!-- MeansOfInfluence -->
<g id="node10" class="node"><title>MeansOfInfluence</title>
<path fill="none" stroke="black" d="M1682.83,-1353.5C1682.83,-1353.5 1906.55,-1353.5 1906.55,-1353.5 1912.55,-1353.5 1918.55,-1359.5 1918.55,-1365.5 1918.55,-1365.5 1918.55,-1525.5 1918.55,-1525.5 1918.55,-1531.5 1912.55,-1537.5 1906.55,-1537.5 1906.55,-1537.5 1682.83,-1537.5 1682.83,-1537.5 1676.83,-1537.5 1670.83,-1531.5 1670.83,-1525.5 1670.83,-1525.5 1670.83,-1365.5 1670.83,-1365.5 1670.83,-1359.5 1676.83,-1353.5 1682.83,-1353.5"/>
<text text-anchor="middle" x="1794.69" y="-1522.3" font-family="Times,serif" font-size="14.00">MeansOfInfluence</text>
<polyline fill="none" stroke="black" points="1670.83,-1515.5 1918.55,-1515.5 "/>
<text text-anchor="start" x="1678.83" y="-1500.3" font-family="Times,serif" font-size="14.00">updated_at :timestamp without time zone</text>
<text text-anchor="start" x="1678.83" y="-1486.3" font-family="Times,serif" font-size="14.00">type :character varying</text>
<text text-anchor="start" x="1678.83" y="-1472.3" font-family="Times,serif" font-size="14.00">day :integer</text>
<text text-anchor="start" x="1678.83" y="-1458.3" font-family="Times,serif" font-size="14.00">month :integer</text>
<text text-anchor="start" x="1678.83" y="-1444.3" font-family="Times,serif" font-size="14.00">year :integer</text>
<text text-anchor="start" x="1678.83" y="-1430.3" font-family="Times,serif" font-size="14.00">purpose :character varying</text>
<text text-anchor="start" x="1678.83" y="-1416.3" font-family="Times,serif" font-size="14.00">type_of_hospitality :character varying</text>
<text text-anchor="start" x="1678.83" y="-1402.3" font-family="Times,serif" font-size="14.00">gift :character varying</text>
<text text-anchor="start" x="1678.83" y="-1388.3" font-family="Times,serif" font-size="14.00">value :integer</text>
<text text-anchor="start" x="1678.83" y="-1374.3" font-family="Times,serif" font-size="14.00">created_at :timestamp without time zone</text>
<text text-anchor="start" x="1678.83" y="-1360.3" font-family="Times,serif" font-size="14.00">id :integer</text>
</g>
<!-- MeansOfInfluence&#45;&gt;GovernmentOffice -->
<g id="edge21" class="edge"><title>MeansOfInfluence&#45;&gt;GovernmentOffice</title>
<path fill="none" stroke="#173be9" d="M1661.53,-1381.34C1619.64,-1361.47 1573.51,-1339.58 1532.03,-1319.91"/>
<polygon fill="#173be9" stroke="#173be9" points="1661.72,-1381.42 1668.82,-1389.78 1666.24,-1383.57 1670.75,-1385.71 1670.75,-1385.71 1670.75,-1385.71 1666.24,-1383.57 1672.68,-1381.64 1661.72,-1381.42 1661.72,-1381.42"/>
<polygon fill="#173be9" stroke="#173be9" points="1532.01,-1319.9 1524.91,-1311.55 1527.5,-1317.76 1522.98,-1315.61 1522.98,-1315.61 1522.98,-1315.61 1527.5,-1317.76 1521.05,-1319.68 1532.01,-1319.9 1532.01,-1319.9"/>
</g>
<!-- MeansOfInfluence&#45;&gt;InfluenceOfficePerson -->
<g id="edge16" class="edge"><title>MeansOfInfluence&#45;&gt;InfluenceOfficePerson</title>
<path fill="none" stroke="#4391b1" d="M1921.06,-1347.81C1956.56,-1315.84 1985.69,-1282.57 1985.69,-1259.5 1985.69,-1259.5 1985.69,-1259.5 1985.69,-270.5 1985.69,-142.051 1576.82,-91.785 1358.08,-74.0846"/>
<ellipse fill="none" stroke="#4391b1" cx="1917.83" cy="-1350.69" rx="4.00002" ry="4.00002"/>
<polygon fill="#4391b1" stroke="#4391b1" points="1357.78,-74.0607 1348.17,-68.7804 1352.8,-73.6635 1347.81,-73.2662 1347.81,-73.2662 1347.81,-73.2662 1352.8,-73.6635 1347.45,-77.752 1357.78,-74.0607 1357.78,-74.0607"/>
<text text-anchor="middle" x="2089.88" y="-784.8" font-family="Times,serif" font-size="14.00">influence_government_office_people</text>
</g>
<!-- MeansOfInfluence&#45;&gt;InfluenceOfficePerson -->
<g id="edge17" class="edge"><title>MeansOfInfluence&#45;&gt;InfluenceOfficePerson</title>
<path fill="none" stroke="#3a37a8" d="M1925.99,-1353.84C1926.56,-1353.56 1927.12,-1353.28 1927.69,-1353 2048.79,-1293.34 2216.69,-1394.5 2216.69,-1259.5 2216.69,-1259.5 2216.69,-1259.5 2216.69,-270.5 2216.69,-97.1924 1629.22,-69.2079 1358,-65.5231"/>
<ellipse fill="none" stroke="#3a37a8" cx="1922.17" cy="-1355.81" rx="4.00002" ry="4.00002"/>
<polygon fill="#3a37a8" stroke="#3a37a8" points="1357.69,-65.5194 1347.75,-60.8931 1352.69,-65.4561 1347.69,-65.3928 1347.69,-65.3928 1347.69,-65.3928 1352.69,-65.4561 1347.64,-69.8924 1357.69,-65.5194 1357.69,-65.5194"/>
<text text-anchor="middle" x="2302.49" y="-784.8" font-family="Times,serif" font-size="14.00">influence_organisation_people</text>
</g>
<!-- MeansOfInfluence&#45;&gt;Organisation -->
<g id="edge18" class="edge"><title>MeansOfInfluence&#45;&gt;Organisation</title>
<path fill="none" stroke="#c06136" d="M1660.53,-1434.47C1485.05,-1419.5 1188.75,-1387.34 1093.69,-1335 1004.32,-1285.8 822.592,-1052.19 736.269,-937.008"/>
<polygon fill="#c06136" stroke="#c06136" points="1660.65,-1434.48 1670.23,-1439.81 1665.63,-1434.9 1670.61,-1435.32 1670.61,-1435.32 1670.61,-1435.32 1665.63,-1434.9 1670.99,-1430.84 1660.65,-1434.48 1660.65,-1434.48"/>
<polygon fill="#c06136" stroke="#c06136" points="736.212,-936.931 733.825,-926.228 733.217,-932.927 730.222,-928.924 730.222,-928.924 730.222,-928.924 733.217,-932.927 726.618,-931.619 736.212,-936.931 736.212,-936.931"/>
</g>
<!-- MeansOfInfluence&#45;&gt;Person -->
<g id="edge19" class="edge"><title>MeansOfInfluence&#45;&gt;Person</title>
<path fill="none" stroke="#3d77a3" d="M1660.54,-1437.44C1548.13,-1425.8 1387.86,-1395.34 1271.69,-1316 1203.46,-1269.41 1194.83,-1240.92 1164.69,-1164 1102.73,-1005.89 1053.47,-916.847 1156.69,-782 1169.78,-764.895 1188.21,-780.807 1201.69,-764 1208.71,-755.241 1228.13,-621.952 1239.69,-538.678"/>
<polygon fill="#3d77a3" stroke="#3d77a3" points="1660.64,-1437.45 1670.14,-1442.92 1665.61,-1437.95 1670.59,-1438.44 1670.59,-1438.44 1670.59,-1438.44 1665.61,-1437.95 1671.03,-1433.97 1660.64,-1437.45 1660.64,-1437.45"/>
<polygon fill="#3d77a3" stroke="#3d77a3" points="1239.73,-538.438 1245.56,-529.149 1240.41,-533.485 1241.1,-528.532 1241.1,-528.532 1241.1,-528.532 1240.41,-533.485 1236.64,-527.915 1239.73,-538.438 1239.73,-538.438"/>
<text text-anchor="middle" x="1154.33" y="-949.8" font-family="Times,serif" font-size="14.00">organisation_people</text>
</g>
<!-- MeansOfInfluence&#45;&gt;Person -->
<g id="edge20" class="edge"><title>MeansOfInfluence&#45;&gt;Person</title>
<path fill="none" stroke="#a9357d" d="M1802.11,-1342.95C1810.91,-1241.64 1828.6,-1082.05 1860.5,-947 1880.28,-863.26 1909.45,-848.859 1923.69,-764 1937.29,-682.911 1968.31,-648.059 1923.69,-579 1904.9,-549.929 1886.02,-556.335 1852.69,-547 1694.97,-502.827 1506.79,-484.834 1382.87,-477.511"/>
<polygon fill="#a9357d" stroke="#a9357d" points="1802.09,-1343.22 1796.75,-1352.79 1801.66,-1348.2 1801.23,-1353.18 1801.23,-1353.18 1801.23,-1353.18 1801.66,-1348.2 1805.72,-1353.56 1802.09,-1343.22 1802.09,-1343.22"/>
<polygon fill="#a9357d" stroke="#a9357d" points="1382.56,-477.493 1372.83,-472.426 1377.56,-477.206 1372.57,-476.919 1372.57,-476.919 1372.57,-476.919 1377.56,-477.206 1372.31,-481.411 1382.56,-477.493 1382.56,-477.493"/>
<text text-anchor="middle" x="1915.28" y="-949.8" font-family="Times,serif" font-size="14.00">government_people</text>
</g>
<!-- Meeting&#45;&gt;InfluenceOfficePerson -->
<g id="edge22" class="edge"><title>Meeting&#45;&gt;InfluenceOfficePerson</title>
<path fill="none" stroke="#1c2f32" d="M1091.68,-246.651C1022.35,-227.863 958.371,-196.418 993.308,-147 1016.01,-114.881 1052.49,-95.3372 1089.79,-83.4725"/>
<ellipse fill="none" stroke="#1c2f32" cx="1095.84" cy="-247.748" rx="4.00001" ry="4.00001"/>
<polygon fill="#1c2f32" stroke="#1c2f32" points="1090.22,-83.3438 1101.09,-84.7827 1095.01,-81.908 1099.8,-80.4722 1099.8,-80.4722 1099.8,-80.4722 1095.01,-81.908 1098.5,-76.1617 1090.22,-83.3438 1090.22,-83.3438"/>
<text text-anchor="middle" x="1096.88" y="-149.8" font-family="Times,serif" font-size="14.00">influence_government_office_people</text>
</g>
<!-- Meeting&#45;&gt;InfluenceOfficePerson -->
<g id="edge23" class="edge"><title>Meeting&#45;&gt;InfluenceOfficePerson</title>
<path fill="none" stroke="#bff3d6" d="M1223.69,-171.346C1223.69,-160.464 1223.69,-149.532 1223.69,-139.041"/>
<ellipse fill="none" stroke="#bff3d6" cx="1223.69" cy="-175.39" rx="4" ry="4"/>
<polygon fill="#bff3d6" stroke="#bff3d6" points="1223.69,-138.714 1228.19,-128.714 1223.69,-133.714 1223.69,-128.714 1223.69,-128.714 1223.69,-128.714 1223.69,-133.714 1219.19,-128.715 1223.69,-138.714 1223.69,-138.714"/>
<text text-anchor="middle" x="1309.49" y="-149.8" font-family="Times,serif" font-size="14.00">influence_organisation_people</text>
</g>
<!-- Meeting&#45;&gt;Organisation -->
<g id="edge24" class="edge"><title>Meeting&#45;&gt;Organisation</title>
<path fill="none" stroke="#c9383b" d="M1089.62,-294.954C1028.92,-310.791 959.724,-337.452 909.688,-382 843.08,-441.302 752.371,-685.506 710.955,-804.594"/>
<polygon fill="#c9383b" stroke="#c9383b" points="1089.97,-294.864 1100.77,-296.771 1094.82,-293.636 1099.67,-292.409 1099.67,-292.409 1099.67,-292.409 1094.82,-293.636 1098.56,-288.047 1089.97,-294.864 1089.97,-294.864"/>
<polygon fill="#c9383b" stroke="#c9383b" points="710.854,-804.885 703.329,-812.861 709.218,-809.609 707.581,-814.334 707.581,-814.334 707.581,-814.334 709.218,-809.609 711.833,-815.807 710.854,-804.885 710.854,-804.885"/>
</g>
<!-- Meeting&#45;&gt;Person -->
<g id="edge25" class="edge"><title>Meeting&#45;&gt;Person</title>
<path fill="none" stroke="#ec2b46" d="M1260.37,-373.847C1261.1,-381.277 1261.27,-388.714 1260.69,-396 1260.47,-398.722 1260.21,-401.495 1259.91,-404.292"/>
<polygon fill="#ec2b46" stroke="#ec2b46" points="1260.34,-373.646 1263.49,-363.142 1259.68,-368.689 1259.03,-363.733 1259.03,-363.733 1259.03,-363.733 1259.68,-368.689 1254.57,-364.324 1260.34,-373.646 1260.34,-373.646"/>
<polygon fill="#ec2b46" stroke="#ec2b46" points="1259.88,-404.549 1254.23,-413.945 1259.29,-409.514 1258.69,-414.479 1258.69,-414.479 1258.69,-414.479 1259.29,-409.514 1263.16,-415.012 1259.88,-404.549 1259.88,-404.549"/>
<text text-anchor="middle" x="1317.33" y="-384.8" font-family="Times,serif" font-size="14.00">organisation_people</text>
</g>
<!-- Meeting&#45;&gt;Person -->
<g id="edge26" class="edge"><title>Meeting&#45;&gt;Person</title>
<path fill="none" stroke="#dbac7b" d="M1118.78,-373.615C1118.54,-381.014 1120.26,-388.514 1124.5,-396 1126.63,-399.753 1129.02,-403.338 1131.65,-406.761"/>
<polygon fill="#dbac7b" stroke="#dbac7b" points="1118.8,-373.488 1124.73,-364.263 1119.54,-368.543 1120.28,-363.598 1120.28,-363.598 1120.28,-363.598 1119.54,-368.543 1115.83,-362.932 1118.8,-373.488 1118.8,-373.488"/>
<polygon fill="#dbac7b" stroke="#dbac7b" points="1131.7,-406.822 1134.73,-417.361 1134.93,-410.638 1138.16,-414.453 1138.16,-414.453 1138.16,-414.453 1134.93,-410.638 1141.6,-411.545 1131.7,-406.822 1131.7,-406.822"/>
<text text-anchor="middle" x="1179.28" y="-384.8" font-family="Times,serif" font-size="14.00">government_people</text>
</g>
<!-- Organisation&#45;&gt;InfluenceOfficePerson -->
<g id="edge27" class="edge"><title>Organisation&#45;&gt;InfluenceOfficePerson</title>
<path fill="none" stroke="#56d42d" d="M679.732,-805.969C678.239,-797.86 676.558,-789.71 674.688,-782 646.767,-666.915 609.908,-645.919 591.092,-529 565.648,-370.894 555.562,-283.754 676.688,-179 737.358,-126.53 947.981,-94.4814 1089.46,-78.3691"/>
<ellipse fill="none" stroke="#56d42d" cx="680.464" cy="-810.108" rx="4.00001" ry="4.00001"/>
<polygon fill="#56d42d" stroke="#56d42d" points="1089.58,-78.3549 1100.02,-81.7082 1094.55,-77.7957 1099.52,-77.2364 1099.52,-77.2364 1099.52,-77.2364 1094.55,-77.7957 1099.02,-72.7647 1089.58,-78.3549 1089.58,-78.3549"/>
<text text-anchor="middle" x="676.486" y="-467.3" font-family="Times,serif" font-size="14.00">influence_organisation_people</text>
</g>
<!-- Organisation&#45;&gt;Travel -->
<g id="edge28" class="edge"><title>Organisation&#45;&gt;Travel</title>
<path fill="none" stroke="#ad9fcc" d="M805.339,-809.719C846.54,-788.251 893.178,-763.95 935.635,-741.827"/>
<polygon fill="#ad9fcc" stroke="#ad9fcc" points="805.179,-809.802 794.231,-810.432 800.745,-812.113 796.31,-814.423 796.31,-814.423 796.31,-814.423 800.745,-812.113 798.39,-818.414 805.179,-809.802 805.179,-809.802"/>
<polygon fill="#ad9fcc" stroke="#ad9fcc" points="935.76,-741.762 946.708,-741.132 940.194,-739.452 944.628,-737.141 944.628,-737.141 944.628,-737.141 940.194,-739.452 942.549,-733.151 935.76,-741.762 935.76,-741.762"/>
</g>
<!-- Person&#45;&gt;Gift -->
<g id="edge32" class="edge"><title>Person&#45;&gt;Gift</title>
<path fill="none" stroke="#f467dd" d="M1114.38,-487.052C1024.22,-499.128 915.435,-518.895 878.688,-547 866.057,-556.66 867.237,-563.764 862.688,-579 817.883,-729.074 860.217,-777.194 821.688,-929 815.8,-952.199 806.567,-955.568 801.688,-979 776.006,-1102.34 776.401,-1248 780.643,-1343.1"/>
<polygon fill="#f467dd" stroke="#f467dd" points="1114.53,-487.033 1125.03,-490.188 1119.48,-486.38 1124.44,-485.726 1124.44,-485.726 1124.44,-485.726 1119.48,-486.38 1123.85,-481.265 1114.53,-487.033 1114.53,-487.033"/>
<polygon fill="#f467dd" stroke="#f467dd" points="780.653,-1343.31 776.626,-1353.51 780.887,-1348.3 781.121,-1353.29 781.121,-1353.29 781.121,-1353.29 780.887,-1348.3 785.616,-1353.08 780.653,-1343.31 780.653,-1343.31"/>
</g>
<!-- Person&#45;&gt;Hospitality -->
<g id="edge31" class="edge"><title>Person&#45;&gt;Hospitality</title>
<path fill="none" stroke="#02ecb0" d="M1294.81,-537.263C1334.42,-597.364 1388.28,-691.007 1408.69,-782 1423.18,-846.609 1397.92,-915.954 1367.86,-970.463"/>
<polygon fill="#02ecb0" stroke="#02ecb0" points="1294.61,-536.968 1292.82,-526.15 1291.84,-532.806 1289.07,-528.643 1289.07,-528.643 1289.07,-528.643 1291.84,-532.806 1285.33,-531.136 1294.61,-536.968 1294.61,-536.968"/>
<polygon fill="#02ecb0" stroke="#02ecb0" points="1367.71,-970.716 1358.88,-977.213 1365.26,-975.071 1362.8,-979.425 1362.8,-979.425 1362.8,-979.425 1365.26,-975.071 1366.72,-981.637 1367.71,-970.716 1367.71,-970.716"/>
</g>
<!-- Person&#45;&gt;InfluenceOfficePerson -->
<g id="edge29" class="edge"><title>Person&#45;&gt;InfluenceOfficePerson</title>
<path fill="none" stroke="#a01bdd" d="M1368.39,-408.448C1371.8,-404.522 1374.92,-400.375 1377.69,-396 1437.01,-302.194 1456.14,-240.724 1396.69,-147 1386.63,-131.151 1372.58,-118.327 1356.79,-107.966"/>
<ellipse fill="none" stroke="#a01bdd" cx="1365.54" cy="-411.511" rx="4.00002" ry="4.00002"/>
<polygon fill="#a01bdd" stroke="#a01bdd" points="1356.37,-107.705 1350.22,-98.6279 1352.11,-105.082 1347.86,-102.459 1347.86,-102.459 1347.86,-102.459 1352.11,-105.082 1345.5,-106.29 1356.37,-107.705 1356.37,-107.705"/>
</g>
<!-- Person&#45;&gt;Meeting -->
<g id="edge30" class="edge"><title>Person&#45;&gt;Meeting</title>
<path fill="none" stroke="#20c251" d="M1240.3,-404.087C1239.07,-394.357 1237.79,-384.154 1236.49,-373.917"/>
<polygon fill="#20c251" stroke="#20c251" points="1240.34,-404.37 1237.13,-414.855 1240.96,-409.33 1241.59,-414.291 1241.59,-414.291 1241.59,-414.291 1240.96,-409.33 1246.06,-413.727 1240.34,-404.37 1240.34,-404.37"/>
<polygon fill="#20c251" stroke="#20c251" points="1236.45,-373.606 1239.67,-363.121 1235.83,-368.646 1235.2,-363.685 1235.2,-363.685 1235.2,-363.685 1235.83,-368.646 1230.74,-364.249 1236.45,-373.606 1236.45,-373.606"/>
</g>
<!-- Person&#45;&gt;Travel -->
<g id="edge33" class="edge"><title>Person&#45;&gt;Travel</title>
<path fill="none" stroke="#c8ebb7" d="M1117.01,-532.997C1112.22,-537.379 1107.75,-542.042 1103.69,-547 1098.05,-553.89 1093.31,-561.638 1089.34,-569.809"/>
<polygon fill="#c8ebb7" stroke="#c8ebb7" points="1117.18,-532.849 1127.7,-529.755 1120.98,-529.594 1124.77,-526.339 1124.77,-526.339 1124.77,-526.339 1120.98,-529.594 1121.84,-522.923 1117.18,-532.849 1117.18,-532.849"/>
<polygon fill="#c8ebb7" stroke="#c8ebb7" points="1089.23,-570.051 1081.06,-577.363 1087.2,-574.621 1085.17,-579.19 1085.17,-579.19 1085.17,-579.19 1087.2,-574.621 1089.29,-581.017 1089.23,-570.051 1089.23,-570.051"/>
</g>
<!-- Travel&#45;&gt;InfluenceOfficePerson -->
<g id="edge34" class="edge"><title>Travel&#45;&gt;InfluenceOfficePerson</title>
<path fill="none" stroke="#a17b8a" d="M937.884,-579.787C929.928,-573.566 922.136,-567.275 914.688,-561 843.782,-501.271 848.653,-457.322 766.688,-414 727.901,-393.5 656.248,-422.419 673.308,-382 731.53,-244.059 784.379,-220.738 914.688,-147 968.096,-116.778 1033.04,-97.4573 1089.57,-85.2596"/>
<ellipse fill="none" stroke="#a17b8a" cx="941.44" cy="-582.543" rx="4.00002" ry="4.00002"/>
<polygon fill="#a17b8a" stroke="#a17b8a" points="1089.88,-85.196 1100.59,-87.5424 1094.77,-84.1674 1099.66,-83.1387 1099.66,-83.1387 1099.66,-83.1387 1094.77,-84.1674 1098.74,-78.7349 1089.88,-85.196 1089.88,-85.196"/>
<text text-anchor="middle" x="776.878" y="-384.8" font-family="Times,serif" font-size="14.00">influence_government_office_people</text>
</g>
<!-- Travel&#45;&gt;InfluenceOfficePerson -->
<g id="edge35" class="edge"><title>Travel&#45;&gt;InfluenceOfficePerson</title>
<path fill="none" stroke="#11f33f" d="M972.59,-572.234C970.464,-568.538 968.486,-564.79 966.688,-561 887.753,-394.639 863.537,-287.391 982.688,-147 1009.82,-115.035 1049.96,-95.5691 1089.74,-83.7286"/>
<ellipse fill="none" stroke="#11f33f" cx="974.783" cy="-575.853" rx="4.00002" ry="4.00002"/>
<polygon fill="#11f33f" stroke="#11f33f" points="1089.94,-83.6718 1100.79,-85.283 1094.75,-82.3121 1099.57,-80.9525 1099.57,-80.9525 1099.57,-80.9525 1094.75,-82.3121 1098.34,-76.6221 1089.94,-83.6718 1089.94,-83.6718"/>
<text text-anchor="middle" x="990.486" y="-384.8" font-family="Times,serif" font-size="14.00">influence_organisation_people</text>
</g>
<!-- Travel&#45;&gt;Person -->
<g id="edge36" class="edge"><title>Travel&#45;&gt;Person</title>
<path fill="none" stroke="#307379" d="M970.418,-569.441C970.453,-561.821 972.871,-554.272 978.409,-547 996.01,-523.892 1055.95,-506.137 1114.92,-493.767"/>
<polygon fill="#307379" stroke="#307379" points="970.433,-569.56 967.216,-580.043 971.057,-574.521 971.681,-579.482 971.681,-579.482 971.681,-579.482 971.057,-574.521 976.146,-578.92 970.433,-569.56 970.433,-569.56"/>
<polygon fill="#307379" stroke="#307379" points="1114.96,-493.76 1125.66,-496.159 1119.86,-492.755 1124.76,-491.751 1124.76,-491.751 1124.76,-491.751 1119.86,-492.755 1123.85,-487.343 1114.96,-493.76 1114.96,-493.76"/>
<text text-anchor="middle" x="1034.33" y="-549.8" font-family="Times,serif" font-size="14.00">organisation_people</text>
</g>
<!-- Travel&#45;&gt;Person -->
<g id="edge37" class="edge"><title>Travel&#45;&gt;Person</title>
<path fill="none" stroke="#140597" d="M1106.29,-570.599C1111.42,-562.18 1117.15,-554.162 1123.5,-547 1127.12,-542.921 1131.02,-539.001 1135.12,-535.241"/>
<polygon fill="#140597" stroke="#140597" points="1106.16,-570.836 1097.26,-577.25 1103.66,-575.167 1101.16,-579.498 1101.16,-579.498 1101.16,-579.498 1103.66,-575.167 1105.06,-581.747 1106.16,-570.836 1106.16,-570.836"/>
<polygon fill="#140597" stroke="#140597" points="1135.17,-535.205 1145.67,-532.047 1138.94,-531.927 1142.72,-528.649 1142.72,-528.649 1142.72,-528.649 1138.94,-531.927 1139.77,-525.251 1135.17,-535.205 1135.17,-535.205"/>
<text text-anchor="middle" x="1178.28" y="-549.8" font-family="Times,serif" font-size="14.00">government_people</text>
</g>
</g>
</svg>
