<?xml version="1.0" encoding="UTF-8" standalone="no"?>
<!DOCTYPE svg PUBLIC "-//W3C//DTD SVG 1.1//EN"
 "http://www.w3.org/Graphics/SVG/1.1/DTD/svg11.dtd">
<!-- Generated by graphviz version 2.36.0 (20140111.2315)
 -->
<!-- Title: models_diagram Pages: 1 -->
<svg width="1441pt" height="130pt"
 viewBox="0.00 0.00 1441.00 130.00" xmlns="http://www.w3.org/2000/svg" xmlns:xlink="http://www.w3.org/1999/xlink">
<g id="graph0" class="graph" transform="scale(1 1) rotate(0) translate(4 126)">
<title>models_diagram</title>
<polygon fill="none" stroke="none" points="-4,4 -4,-126 1437,-126 1437,4 -4,4"/>
<!-- _diagram_info -->
<g id="node1" class="node"><title>_diagram_info</title>
<text text-anchor="start" x="7" y="-85.6" font-family="Times,serif" font-size="13.00">Models diagram</text>
<text text-anchor="start" x="7" y="-71.6" font-family="Times,serif" font-size="13.00">Date: Oct 02 2016 &#45; 15:04</text>
<text text-anchor="start" x="7" y="-57.6" font-family="Times,serif" font-size="13.00">Migration version: 20161002101731</text>
<text text-anchor="start" x="7" y="-43.6" font-family="Times,serif" font-size="13.00">Generated by RailRoady 1.5.2</text>
<text text-anchor="start" x="7" y="-29.6" font-family="Times,serif" font-size="13.00">http://railroady.prestonlee.com</text>
</g>
<!-- GovernmentOffice -->
<g id="node2" class="node"><title>GovernmentOffice</title>
<path fill="none" stroke="black" d="M243,-0.5C243,-0.5 463,-0.5 463,-0.5 469,-0.5 475,-6.5 475,-12.5 475,-12.5 475,-109.5 475,-109.5 475,-115.5 469,-121.5 463,-121.5 463,-121.5 243,-121.5 243,-121.5 237,-121.5 231,-115.5 231,-109.5 231,-109.5 231,-12.5 231,-12.5 231,-6.5 237,-0.5 243,-0.5"/>
<text text-anchor="middle" x="353" y="-106.3" font-family="Times,serif" font-size="14.00">GovernmentOffice</text>
<polyline fill="none" stroke="black" points="231,-98.5 475,-98.5 "/>
<text text-anchor="start" x="239" y="-83.3" font-family="Times,serif" font-size="14.00">id :integer</text>
<text text-anchor="start" x="239" y="-68.3" font-family="Times,serif" font-size="14.00">name :character varying</text>
<text text-anchor="start" x="239" y="-53.3" font-family="Times,serif" font-size="14.00">wikipedia_entry :character varying</text>
<text text-anchor="start" x="239" y="-38.3" font-family="Times,serif" font-size="14.00">type :character varying</text>
<text text-anchor="start" x="239" y="-23.3" font-family="Times,serif" font-size="14.00">created_at :timestamp without time zone</text>
<text text-anchor="start" x="239" y="-8.3" font-family="Times,serif" font-size="14.00">updated_at :timestamp without time zone</text>
</g>
<!-- Entity -->
<g id="node3" class="node"><title>Entity</title>
<path fill="none" stroke="black" d="M505,-0.5C505,-0.5 725,-0.5 725,-0.5 731,-0.5 737,-6.5 737,-12.5 737,-12.5 737,-109.5 737,-109.5 737,-115.5 731,-121.5 725,-121.5 725,-121.5 505,-121.5 505,-121.5 499,-121.5 493,-115.5 493,-109.5 493,-109.5 493,-12.5 493,-12.5 493,-6.5 499,-0.5 505,-0.5"/>
<text text-anchor="middle" x="615" y="-106.3" font-family="Times,serif" font-size="14.00">Entity</text>
<polyline fill="none" stroke="black" points="493,-98.5 737,-98.5 "/>
<text text-anchor="start" x="501" y="-83.3" font-family="Times,serif" font-size="14.00">id :integer</text>
<text text-anchor="start" x="501" y="-68.3" font-family="Times,serif" font-size="14.00">name :character varying</text>
<text text-anchor="start" x="501" y="-53.3" font-family="Times,serif" font-size="14.00">wikipedia_entry :character varying</text>
<text text-anchor="start" x="501" y="-38.3" font-family="Times,serif" font-size="14.00">type :character varying</text>
<text text-anchor="start" x="501" y="-23.3" font-family="Times,serif" font-size="14.00">created_at :timestamp without time zone</text>
<text text-anchor="start" x="501" y="-8.3" font-family="Times,serif" font-size="14.00">updated_at :timestamp without time zone</text>
</g>
<!-- ApplicationRecord -->
<g id="node4" class="node"><title>ApplicationRecord</title>
<ellipse fill="none" stroke="black" cx="832" cy="-61" rx="77.0154" ry="18"/>
<text text-anchor="middle" x="832" y="-57.3" font-family="Times,serif" font-size="14.00">ApplicationRecord</text>
</g>
<!-- Organisation -->
<g id="node5" class="node"><title>Organisation</title>
<path fill="none" stroke="black" d="M939,-0.5C939,-0.5 1159,-0.5 1159,-0.5 1165,-0.5 1171,-6.5 1171,-12.5 1171,-12.5 1171,-109.5 1171,-109.5 1171,-115.5 1165,-121.5 1159,-121.5 1159,-121.5 939,-121.5 939,-121.5 933,-121.5 927,-115.5 927,-109.5 927,-109.5 927,-12.5 927,-12.5 927,-6.5 933,-0.5 939,-0.5"/>
<text text-anchor="middle" x="1049" y="-106.3" font-family="Times,serif" font-size="14.00">Organisation</text>
<polyline fill="none" stroke="black" points="927,-98.5 1171,-98.5 "/>
<text text-anchor="start" x="935" y="-83.3" font-family="Times,serif" font-size="14.00">id :integer</text>
<text text-anchor="start" x="935" y="-68.3" font-family="Times,serif" font-size="14.00">name :character varying</text>
<text text-anchor="start" x="935" y="-53.3" font-family="Times,serif" font-size="14.00">wikipedia_entry :character varying</text>
<text text-anchor="start" x="935" y="-38.3" font-family="Times,serif" font-size="14.00">type :character varying</text>
<text text-anchor="start" x="935" y="-23.3" font-family="Times,serif" font-size="14.00">created_at :timestamp without time zone</text>
<text text-anchor="start" x="935" y="-8.3" font-family="Times,serif" font-size="14.00">updated_at :timestamp without time zone</text>
</g>
<!-- Person -->
<g id="node6" class="node"><title>Person</title>
<path fill="none" stroke="black" d="M1201,-0.5C1201,-0.5 1421,-0.5 1421,-0.5 1427,-0.5 1433,-6.5 1433,-12.5 1433,-12.5 1433,-109.5 1433,-109.5 1433,-115.5 1427,-121.5 1421,-121.5 1421,-121.5 1201,-121.5 1201,-121.5 1195,-121.5 1189,-115.5 1189,-109.5 1189,-109.5 1189,-12.5 1189,-12.5 1189,-6.5 1195,-0.5 1201,-0.5"/>
<text text-anchor="middle" x="1311" y="-106.3" font-family="Times,serif" font-size="14.00">Person</text>
<polyline fill="none" stroke="black" points="1189,-98.5 1433,-98.5 "/>
<text text-anchor="start" x="1197" y="-83.3" font-family="Times,serif" font-size="14.00">id :integer</text>
<text text-anchor="start" x="1197" y="-68.3" font-family="Times,serif" font-size="14.00">name :character varying</text>
<text text-anchor="start" x="1197" y="-53.3" font-family="Times,serif" font-size="14.00">wikipedia_entry :character varying</text>
<text text-anchor="start" x="1197" y="-38.3" font-family="Times,serif" font-size="14.00">type :character varying</text>
<text text-anchor="start" x="1197" y="-23.3" font-family="Times,serif" font-size="14.00">created_at :timestamp without time zone</text>
<text text-anchor="start" x="1197" y="-8.3" font-family="Times,serif" font-size="14.00">updated_at :timestamp without time zone</text>
</g>
</g>
</svg>
