<?xml version="1.0" encoding="UTF-8" standalone="no"?>
<!DOCTYPE svg PUBLIC "-//W3C//DTD SVG 1.1//EN"
 "http://www.w3.org/Graphics/SVG/1.1/DTD/svg11.dtd">
<!-- Generated by graphviz version 2.38.0 (20140413.2041)
 -->
<!-- Title: models_diagram Pages: 1 -->
<svg width="2106pt" height="657pt"
 viewBox="0.00 0.00 2106.28 657.00" xmlns="http://www.w3.org/2000/svg" xmlns:xlink="http://www.w3.org/1999/xlink">
<g id="graph0" class="graph" transform="scale(1 1) rotate(0) translate(4 653)">
<title>models_diagram</title>
<polygon fill="none" stroke="none" points="-4,4 -4,-653 2102.28,-653 2102.28,4 -4,4"/>
<!-- _diagram_info -->
<g id="node1" class="node"><title>_diagram_info</title>
<text text-anchor="start" x="8" y="-634.6" font-family="Times,serif" font-size="13.00">Models diagram</text>
<text text-anchor="start" x="8" y="-621.6" font-family="Times,serif" font-size="13.00">Date: Oct 05 2016 &#45; 07:39</text>
<text text-anchor="start" x="8" y="-608.6" font-family="Times,serif" font-size="13.00">Migration version: 20161004124950</text>
<text text-anchor="start" x="8" y="-595.6" font-family="Times,serif" font-size="13.00">Generated by RailRoady 1.5.2</text>
<text text-anchor="start" x="8" y="-582.6" font-family="Times,serif" font-size="13.00">http://railroady.prestonlee.com</text>
</g>
<!-- ApplicationRecord -->
<g id="node2" class="node"><title>ApplicationRecord</title>
<ellipse fill="none" stroke="black" cx="302.688" cy="-612.5" rx="77.2916" ry="18"/>
<text text-anchor="middle" x="302.688" y="-608.3" font-family="Times,serif" font-size="14.00">ApplicationRecord</text>
</g>
<!-- Entity -->
<g id="node3" class="node"><title>Entity</title>
<ellipse fill="none" stroke="black" cx="429.688" cy="-612.5" rx="31.948" ry="18"/>
<text text-anchor="middle" x="429.688" y="-608.3" font-family="Times,serif" font-size="14.00">Entity</text>
</g>
<!-- Gift -->
<g id="node4" class="node"><title>Gift</title>
<ellipse fill="none" stroke="black" cx="506.688" cy="-612.5" rx="27" ry="18"/>
<text text-anchor="middle" x="506.688" y="-608.3" font-family="Times,serif" font-size="14.00">Gift</text>
</g>
<!-- GovernmentOffice -->
<g id="node5" class="node"><title>GovernmentOffice</title>
<ellipse fill="none" stroke="black" cx="1144.69" cy="-521" rx="76.3226" ry="18"/>
<text text-anchor="middle" x="1144.69" y="-516.8" font-family="Times,serif" font-size="14.00">GovernmentOffice</text>
</g>
<!-- Gift&#45;&gt;GovernmentOffice -->
<g id="edge6" class="edge"><title>Gift&#45;&gt;GovernmentOffice</title>
<path fill="none" stroke="#11b740" d="M542.905,-606.419C644.501,-592.167 933.695,-551.598 1070.82,-532.362"/>
<polygon fill="#11b740" stroke="#11b740" points="542.791,-606.435 532.262,-603.368 537.839,-607.13 532.888,-607.825 532.888,-607.825 532.888,-607.825 537.839,-607.13 533.513,-612.281 542.791,-606.435 542.791,-606.435"/>
<polygon fill="#11b740" stroke="#11b740" points="1070.92,-532.348 1081.45,-535.415 1075.87,-531.654 1080.82,-530.959 1080.82,-530.959 1080.82,-530.959 1075.87,-531.654 1080.2,-526.503 1070.92,-532.348 1070.92,-532.348"/>
</g>
<!-- InfluenceOfficePerson -->
<g id="node8" class="node"><title>InfluenceOfficePerson</title>
<ellipse fill="none" stroke="black" cx="929.688" cy="-18" rx="89.3687" ry="18"/>
<text text-anchor="middle" x="929.688" y="-13.8" font-family="Times,serif" font-size="14.00">InfluenceOfficePerson</text>
</g>
<!-- Gift&#45;&gt;InfluenceOfficePerson -->
<g id="edge1" class="edge"><title>Gift&#45;&gt;InfluenceOfficePerson</title>
<path fill="none" stroke="#db71fb" d="M489.624,-589.873C484.18,-584.425 477.723,-579.216 470.688,-576 380.291,-534.677 26.6877,-621.394 26.6877,-522 26.6877,-522 26.6877,-522 26.6877,-103 26.6877,-4.12734 145.735,-67.4571 243.688,-54 450.945,-25.5263 696.291,-19.6411 830.196,-18.7571"/>
<ellipse fill="none" stroke="#db71fb" cx="492.395" cy="-592.862" rx="4.00002" ry="4.00002"/>
<polygon fill="#db71fb" stroke="#db71fb" points="830.432,-18.7558 840.458,-23.1978 835.432,-18.7269 840.432,-18.6979 840.432,-18.6979 840.432,-18.6979 835.432,-18.7269 840.406,-14.198 830.432,-18.7558 830.432,-18.7558"/>
<text text-anchor="middle" x="130.878" y="-314.8" font-family="Times,serif" font-size="14.00">influence_government_office_people</text>
</g>
<!-- Gift&#45;&gt;InfluenceOfficePerson -->
<g id="edge2" class="edge"><title>Gift&#45;&gt;InfluenceOfficePerson</title>
<path fill="none" stroke="#160783" d="M488.623,-590.012C483.312,-584.786 477.173,-579.656 470.688,-576 385.614,-528.039 257.688,-619.662 257.688,-522 257.688,-522 257.688,-522 257.688,-103 257.688,-45.8881 644.799,-27.0815 831.398,-21.3336"/>
<ellipse fill="none" stroke="#160783" cx="491.685" cy="-593.216" rx="4.00002" ry="4.00002"/>
<polygon fill="#160783" stroke="#160783" points="831.495,-21.3308 841.626,-25.5274 836.492,-21.1801 841.49,-21.0295 841.49,-21.0295 841.49,-21.0295 836.492,-21.1801 841.355,-16.5315 831.495,-21.3308 831.495,-21.3308"/>
<text text-anchor="middle" x="343.486" y="-314.8" font-family="Times,serif" font-size="14.00">influence_organisation_people</text>
</g>
<!-- Organisation -->
<g id="node12" class="node"><title>Organisation</title>
<ellipse fill="none" stroke="black" cx="462.688" cy="-362" rx="55.7654" ry="18"/>
<text text-anchor="middle" x="462.688" y="-357.8" font-family="Times,serif" font-size="14.00">Organisation</text>
</g>
<!-- Gift&#45;&gt;Organisation -->
<g id="edge3" class="edge"><title>Gift&#45;&gt;Organisation</title>
<path fill="none" stroke="#a86f7d" d="M499.153,-584.916C496.885,-576.366 494.516,-566.823 492.688,-558 480.386,-498.625 470.752,-428.121 465.979,-390.272"/>
<polygon fill="#a86f7d" stroke="#a86f7d" points="499.199,-585.089 497.483,-595.92 500.512,-589.914 501.825,-594.738 501.825,-594.738 501.825,-594.738 500.512,-589.914 506.168,-593.556 499.199,-585.089 499.199,-585.089"/>
<polygon fill="#a86f7d" stroke="#a86f7d" points="465.943,-389.984 469.176,-379.505 465.327,-385.022 464.71,-380.06 464.71,-380.06 464.71,-380.06 465.327,-385.022 460.244,-380.615 465.943,-389.984 465.943,-389.984"/>
</g>
<!-- Person -->
<g id="node13" class="node"><title>Person</title>
<ellipse fill="none" stroke="black" cx="954.688" cy="-190" rx="34.3614" ry="18"/>
<text text-anchor="middle" x="954.688" y="-185.8" font-family="Times,serif" font-size="14.00">Person</text>
</g>
<!-- Gift&#45;&gt;Person -->
<g id="edge4" class="edge"><title>Gift&#45;&gt;Person</title>
<path fill="none" stroke="#ca1279" d="M514.219,-584.916C516.487,-576.365 518.857,-566.822 520.688,-558 535.309,-487.546 515.509,-463.448 545.409,-398 549.77,-388.456 555.909,-389.342 560.688,-380 592.794,-317.238 545.384,-272.136 598.688,-226 621.809,-205.988 820.066,-196.052 910.295,-192.533"/>
<polygon fill="#ca1279" stroke="#ca1279" points="514.173,-585.088 507.205,-593.556 512.86,-589.913 511.547,-594.738 511.547,-594.738 511.547,-594.738 512.86,-589.913 515.889,-595.919 514.173,-585.088 514.173,-585.088"/>
<polygon fill="#ca1279" stroke="#ca1279" points="910.494,-192.526 920.658,-196.642 915.491,-192.335 920.487,-192.145 920.487,-192.145 920.487,-192.145 915.491,-192.335 920.316,-187.648 910.494,-192.526 910.494,-192.526"/>
<text text-anchor="middle" x="601.327" y="-400.8" font-family="Times,serif" font-size="14.00">organisation_people</text>
</g>
<!-- Gift&#45;&gt;Person -->
<g id="edge5" class="edge"><title>Gift&#45;&gt;Person</title>
<path fill="none" stroke="#27aebe" d="M530.141,-590.838C566.034,-557.468 633.118,-487.751 658.688,-412 685.13,-333.665 589.247,-275.206 655.688,-226 695.019,-196.872 836.836,-191.631 910.131,-190.915"/>
<polygon fill="#27aebe" stroke="#27aebe" points="529.941,-591.021 519.525,-594.453 526.252,-594.397 522.564,-597.773 522.564,-597.773 522.564,-597.773 526.252,-594.397 525.602,-601.092 529.941,-591.021 529.941,-591.021"/>
<polygon fill="#27aebe" stroke="#27aebe" points="910.428,-190.913 920.46,-195.34 915.428,-190.877 920.427,-190.841 920.427,-190.841 920.427,-190.841 915.428,-190.877 920.395,-186.341 910.428,-190.913 910.428,-190.913"/>
<text text-anchor="middle" x="717.281" y="-400.8" font-family="Times,serif" font-size="14.00">government_people</text>
</g>
<!-- Hospitality -->
<g id="node6" class="node"><title>Hospitality</title>
<ellipse fill="none" stroke="black" cx="1087.69" cy="-448" rx="49.3205" ry="18"/>
<text text-anchor="middle" x="1087.69" y="-443.8" font-family="Times,serif" font-size="14.00">Hospitality</text>
</g>
<!-- GovernmentOffice&#45;&gt;Hospitality -->
<g id="edge9" class="edge"><title>GovernmentOffice&#45;&gt;Hospitality</title>
<path fill="none" stroke="#a33af9" d="M1124.87,-495.313C1119.22,-488.279 1113.07,-480.618 1107.43,-473.59"/>
<polygon fill="#a33af9" stroke="#a33af9" points="1124.92,-495.376 1127.67,-505.991 1128.05,-499.275 1131.18,-503.174 1131.18,-503.174 1131.18,-503.174 1128.05,-499.275 1134.69,-500.357 1124.92,-495.376 1124.92,-495.376"/>
<polygon fill="#a33af9" stroke="#a33af9" points="1107.36,-473.503 1104.61,-462.888 1104.23,-469.604 1101.1,-465.705 1101.1,-465.705 1101.1,-465.705 1104.23,-469.604 1097.59,-468.522 1107.36,-473.503 1107.36,-473.503"/>
</g>
<!-- GovernmentOffice&#45;&gt;InfluenceOfficePerson -->
<g id="edge7" class="edge"><title>GovernmentOffice&#45;&gt;InfluenceOfficePerson</title>
<path fill="none" stroke="#48cc99" d="M1226.13,-514.87C1307.85,-507.422 1421.69,-489.737 1421.69,-449 1421.69,-449 1421.69,-449 1421.69,-318 1421.69,-282.822 1442.84,-275.584 1473.31,-258 1512.03,-235.65 1592.53,-263.823 1568.69,-226 1466.13,-63.3378 1359.3,-96.1638 1171.69,-54 1120.85,-42.5748 1063.13,-34.0595 1016.81,-28.2902"/>
<ellipse fill="none" stroke="#48cc99" cx="1221.81" cy="-515.25" rx="4" ry="4"/>
<polygon fill="#48cc99" stroke="#48cc99" points="1016.73,-28.2807 1007.36,-22.5979 1011.77,-27.6726 1006.81,-27.0645 1006.81,-27.0645 1006.81,-27.0645 1011.77,-27.6726 1006.26,-31.5311 1016.73,-28.2807 1016.73,-28.2807"/>
<text text-anchor="middle" x="1576.88" y="-271.8" font-family="Times,serif" font-size="14.00">influence_government_office_people</text>
</g>
<!-- Meeting -->
<g id="node11" class="node"><title>Meeting</title>
<ellipse fill="none" stroke="black" cx="929.688" cy="-104" rx="39.6558" ry="18"/>
<text text-anchor="middle" x="929.688" y="-99.8" font-family="Times,serif" font-size="14.00">Meeting</text>
</g>
<!-- GovernmentOffice&#45;&gt;Meeting -->
<g id="edge8" class="edge"><title>GovernmentOffice&#45;&gt;Meeting</title>
<path fill="none" stroke="#133844" d="M1150.38,-493.183C1163.53,-422.963 1187.6,-232.752 1085.69,-140 1070.01,-125.735 1017.53,-116.035 977.729,-110.529"/>
<polygon fill="#133844" stroke="#133844" points="1150.37,-493.204 1144.04,-502.156 1149.42,-498.111 1148.46,-503.019 1148.46,-503.019 1148.46,-503.019 1149.42,-498.111 1152.87,-503.881 1150.37,-493.204 1150.37,-493.204"/>
<polygon fill="#133844" stroke="#133844" points="977.569,-110.508 968.251,-104.726 972.612,-109.847 967.656,-109.186 967.656,-109.186 967.656,-109.186 972.612,-109.847 967.062,-113.647 977.569,-110.508 977.569,-110.508"/>
</g>
<!-- Travel -->
<g id="node14" class="node"><title>Travel</title>
<ellipse fill="none" stroke="black" cx="683.688" cy="-276" rx="32.7528" ry="18"/>
<text text-anchor="middle" x="683.688" y="-271.8" font-family="Times,serif" font-size="14.00">Travel</text>
</g>
<!-- GovernmentOffice&#45;&gt;Travel -->
<g id="edge10" class="edge"><title>GovernmentOffice&#45;&gt;Travel</title>
<path fill="none" stroke="#0c400e" d="M1077.37,-506.985C1009.03,-491.683 901.995,-461.838 820.688,-412 771.505,-381.853 726.312,-330.915 702.123,-300.976"/>
<polygon fill="#0c400e" stroke="#0c400e" points="1077.4,-506.991 1086.2,-513.533 1082.28,-508.064 1087.16,-509.138 1087.16,-509.138 1087.16,-509.138 1082.28,-508.064 1088.13,-504.742 1077.4,-506.991 1077.4,-506.991"/>
<polygon fill="#0c400e" stroke="#0c400e" points="702.1,-300.947 699.392,-290.321 698.985,-297.035 695.871,-293.123 695.871,-293.123 695.871,-293.123 698.985,-297.035 692.351,-295.926 702.1,-300.947 702.1,-300.947"/>
</g>
<!-- Hospitality&#45;&gt;InfluenceOfficePerson -->
<g id="edge11" class="edge"><title>Hospitality&#45;&gt;InfluenceOfficePerson</title>
<path fill="none" stroke="#26c6af" d="M1114.75,-426.176C1119.68,-421.773 1124.56,-416.951 1128.69,-412 1157.01,-378.054 1167.18,-368.689 1178.69,-326 1189.53,-285.787 1166.92,-180.105 1155.69,-140 1144.56,-100.263 1152.7,-80.0366 1120.69,-54 1104.86,-41.1267 1061.3,-32.6022 1019.77,-27.1922"/>
<ellipse fill="none" stroke="#26c6af" cx="1111.58" cy="-428.901" rx="4.00002" ry="4.00002"/>
<polygon fill="#26c6af" stroke="#26c6af" points="1019.75,-27.1909 1010.39,-21.4852 1014.79,-26.5707 1009.83,-25.9504 1009.83,-25.9504 1009.83,-25.9504 1014.79,-26.5707 1009.27,-30.4157 1019.75,-27.1909 1019.75,-27.1909"/>
<text text-anchor="middle" x="1279.88" y="-228.8" font-family="Times,serif" font-size="14.00">influence_government_office_people</text>
</g>
<!-- Hospitality&#45;&gt;InfluenceOfficePerson -->
<g id="edge12" class="edge"><title>Hospitality&#45;&gt;InfluenceOfficePerson</title>
<path fill="none" stroke="#32f2e8" d="M1136.2,-435.549C1235.33,-409.573 1446.95,-339.474 1387.69,-226 1325.77,-107.423 1264.6,-104.404 1140.69,-54 1103.98,-39.0691 1061.21,-30.5044 1023.81,-25.5928"/>
<ellipse fill="none" stroke="#32f2e8" cx="1132.28" cy="-436.562" rx="4.00001" ry="4.00001"/>
<polygon fill="#32f2e8" stroke="#32f2e8" points="1023.34,-25.5342 1013.97,-19.8363 1018.38,-24.9181 1013.42,-24.3021 1013.42,-24.3021 1013.42,-24.3021 1018.38,-24.9181 1012.86,-28.7678 1023.34,-25.5342 1023.34,-25.5342"/>
<text text-anchor="middle" x="1478.49" y="-228.8" font-family="Times,serif" font-size="14.00">influence_organisation_people</text>
</g>
<!-- Hospitality&#45;&gt;Organisation -->
<g id="edge13" class="edge"><title>Hospitality&#45;&gt;Organisation</title>
<path fill="none" stroke="#2e8da0" d="M1040.69,-433.095C1022.1,-427.176 1000.67,-419.831 981.688,-412 968.826,-406.694 967.107,-401.676 953.688,-398 875.381,-376.546 642.813,-367.658 528.126,-364.501"/>
<polygon fill="#2e8da0" stroke="#2e8da0" points="1040.87,-433.151 1049.07,-440.437 1045.65,-434.647 1050.42,-436.143 1050.42,-436.143 1050.42,-436.143 1045.65,-434.647 1051.76,-431.849 1040.87,-433.151 1040.87,-433.151"/>
<polygon fill="#2e8da0" stroke="#2e8da0" points="528.067,-364.5 518.192,-359.733 523.069,-364.365 518.071,-364.231 518.071,-364.231 518.071,-364.231 523.069,-364.365 517.95,-368.729 528.067,-364.5 528.067,-364.5"/>
</g>
<!-- Hospitality&#45;&gt;Person -->
<g id="edge14" class="edge"><title>Hospitality&#45;&gt;Person</title>
<path fill="none" stroke="#d3ae25" d="M1045.3,-430.413C1032.65,-425.004 1018.91,-418.663 1006.69,-412 976.557,-395.569 894.564,-356.28 878.409,-326 875.481,-320.51 875.756,-317.628 878.409,-312 899.852,-266.515 944.246,-285.485 965.688,-240 969.048,-232.872 968.664,-224.668 966.761,-217.038"/>
<polygon fill="#d3ae25" stroke="#d3ae25" points="1045.5,-430.494 1052.98,-438.508 1050.11,-432.426 1054.72,-434.358 1054.72,-434.358 1054.72,-434.358 1050.11,-432.426 1056.46,-430.207 1045.5,-430.494 1045.5,-430.494"/>
<polygon fill="#d3ae25" stroke="#d3ae25" points="966.736,-216.961 967.84,-206.051 965.153,-212.218 963.571,-207.475 963.571,-207.475 963.571,-207.475 965.153,-212.218 959.302,-208.899 966.736,-216.961 966.736,-216.961"/>
<text text-anchor="middle" x="934.327" y="-314.8" font-family="Times,serif" font-size="14.00">organisation_people</text>
</g>
<!-- Hospitality&#45;&gt;Person -->
<g id="edge15" class="edge"><title>Hospitality&#45;&gt;Person</title>
<path fill="none" stroke="#db6334" d="M1070.32,-421.963C1054.31,-398.096 1030.65,-360.746 1014.5,-326 994.729,-283.453 1002.46,-267.561 980.688,-226 978.712,-222.228 976.349,-218.424 973.865,-214.784"/>
<polygon fill="#db6334" stroke="#db6334" points="1070.44,-422.138 1072.32,-432.941 1073.24,-426.277 1076.05,-430.416 1076.05,-430.416 1076.05,-430.416 1073.24,-426.277 1079.77,-427.891 1070.44,-422.138 1070.44,-422.138"/>
<polygon fill="#db6334" stroke="#db6334" points="973.854,-214.769 971.612,-204.034 970.913,-210.725 967.973,-206.681 967.973,-206.681 967.973,-206.681 970.913,-210.725 964.333,-209.327 973.854,-214.769 973.854,-214.769"/>
<text text-anchor="middle" x="1069.28" y="-314.8" font-family="Times,serif" font-size="14.00">government_people</text>
</g>
<!-- InfluenceGovernmentOfficePerson -->
<g id="node7" class="node"><title>InfluenceGovernmentOfficePerson</title>
<ellipse fill="none" stroke="black" cx="1683.69" cy="-612.5" rx="133.277" ry="18"/>
<text text-anchor="middle" x="1683.69" y="-608.3" font-family="Times,serif" font-size="14.00">InfluenceGovernmentOfficePerson</text>
</g>
<!-- InfluenceOrganisationPerson -->
<g id="node9" class="node"><title>InfluenceOrganisationPerson</title>
<ellipse fill="none" stroke="black" cx="1947.69" cy="-612.5" rx="112.72" ry="18"/>
<text text-anchor="middle" x="1947.69" y="-608.3" font-family="Times,serif" font-size="14.00">InfluenceOrganisationPerson</text>
</g>
<!-- MeansOfInfluence -->
<g id="node10" class="node"><title>MeansOfInfluence</title>
<ellipse fill="none" stroke="black" cx="1456.69" cy="-612.5" rx="75.838" ry="18"/>
<text text-anchor="middle" x="1456.69" y="-608.3" font-family="Times,serif" font-size="14.00">MeansOfInfluence</text>
</g>
<!-- MeansOfInfluence&#45;&gt;GovernmentOffice -->
<g id="edge21" class="edge"><title>MeansOfInfluence&#45;&gt;GovernmentOffice</title>
<path fill="none" stroke="#5a95fa" d="M1400.66,-595.427C1344.25,-579.247 1257.73,-554.426 1201.17,-538.201"/>
<polygon fill="#5a95fa" stroke="#5a95fa" points="1400.7,-595.44 1409.07,-602.523 1405.51,-596.819 1410.32,-598.198 1410.32,-598.198 1410.32,-598.198 1405.51,-596.819 1411.56,-593.872 1400.7,-595.44 1400.7,-595.44"/>
<polygon fill="#5a95fa" stroke="#5a95fa" points="1200.93,-538.133 1192.56,-531.05 1196.12,-536.754 1191.31,-535.375 1191.31,-535.375 1191.31,-535.375 1196.12,-536.754 1190.07,-539.701 1200.93,-538.133 1200.93,-538.133"/>
</g>
<!-- MeansOfInfluence&#45;&gt;InfluenceOfficePerson -->
<g id="edge16" class="edge"><title>MeansOfInfluence&#45;&gt;InfluenceOfficePerson</title>
<path fill="none" stroke="#dbad87" d="M1499.39,-593.094C1512.86,-587.443 1527.83,-581.317 1541.69,-576 1609.4,-550.013 1695.69,-594.53 1695.69,-522 1695.69,-522 1695.69,-522 1695.69,-103 1695.69,-36.6844 1236.18,-22.7043 1028.96,-19.7714"/>
<ellipse fill="none" stroke="#dbad87" cx="1495.34" cy="-594.802" rx="4.00001" ry="4.00001"/>
<polygon fill="#dbad87" stroke="#dbad87" points="1028.68,-19.7677 1018.74,-15.1325 1023.68,-19.6999 1018.68,-19.6321 1018.68,-19.6321 1018.68,-19.6321 1023.68,-19.6999 1018.62,-24.1317 1028.68,-19.7677 1028.68,-19.7677"/>
<text text-anchor="middle" x="1799.88" y="-314.8" font-family="Times,serif" font-size="14.00">influence_government_office_people</text>
</g>
<!-- MeansOfInfluence&#45;&gt;InfluenceOfficePerson -->
<g id="edge17" class="edge"><title>MeansOfInfluence&#45;&gt;InfluenceOfficePerson</title>
<path fill="none" stroke="#7004a7" d="M1495.5,-592.611C1509.73,-586.41 1526.16,-580.072 1541.69,-576 1625.26,-554.093 1926.69,-608.393 1926.69,-522 1926.69,-522 1926.69,-522 1926.69,-103 1926.69,-58.1601 1277.89,-31.0011 1027.05,-22.1765"/>
<ellipse fill="none" stroke="#7004a7" cx="1491.5" cy="-594.398" rx="4.00002" ry="4.00002"/>
<polygon fill="#7004a7" stroke="#7004a7" points="1026.85,-22.1695 1017.01,-17.3229 1021.85,-21.9948 1016.86,-21.8201 1016.86,-21.8201 1016.86,-21.8201 1021.85,-21.9948 1016.7,-26.3174 1026.85,-22.1695 1026.85,-22.1695"/>
<text text-anchor="middle" x="2012.49" y="-314.8" font-family="Times,serif" font-size="14.00">influence_organisation_people</text>
</g>
<!-- MeansOfInfluence&#45;&gt;Organisation -->
<g id="edge18" class="edge"><title>MeansOfInfluence&#45;&gt;Organisation</title>
<path fill="none" stroke="#54928f" d="M1372.16,-608.138C1224.65,-601.638 926.341,-585.51 825.688,-558 681.492,-518.589 648.787,-492.279 522.688,-412 510.692,-404.363 498.37,-394.676 488.038,-385.935"/>
<polygon fill="#54928f" stroke="#54928f" points="1372.52,-608.154 1382.32,-613.085 1377.52,-608.371 1382.52,-608.589 1382.52,-608.589 1382.52,-608.589 1377.52,-608.371 1382.71,-604.094 1372.52,-608.154 1372.52,-608.154"/>
<polygon fill="#54928f" stroke="#54928f" points="487.79,-385.721 483.163,-375.779 484.006,-382.453 480.222,-379.184 480.222,-379.184 480.222,-379.184 484.006,-382.453 477.281,-382.59 487.79,-385.721 487.79,-385.721"/>
</g>
<!-- MeansOfInfluence&#45;&gt;Person -->
<g id="edge19" class="edge"><title>MeansOfInfluence&#45;&gt;Person</title>
<path fill="none" stroke="#3e0818" d="M1374.41,-605.932C1292.27,-598.216 1163.63,-580.211 1059.69,-539 963.099,-500.705 913.064,-503.271 863.409,-412 830.329,-351.194 838.999,-308.175 886.688,-258 904.116,-239.663 923.192,-258.273 940.688,-240 946.304,-234.135 949.692,-226.177 951.729,-218.381"/>
<polygon fill="#3e0818" stroke="#3e0818" points="1374.48,-605.939 1384.03,-611.326 1379.46,-606.392 1384.44,-606.845 1384.44,-606.845 1384.44,-606.845 1379.46,-606.392 1384.85,-602.363 1374.48,-605.939 1374.48,-605.939"/>
<polygon fill="#3e0818" stroke="#3e0818" points="951.759,-218.224 958.115,-209.288 952.73,-213.32 953.701,-208.415 953.701,-208.415 953.701,-208.415 952.73,-213.32 949.286,-207.541 951.759,-218.224 951.759,-218.224"/>
<text text-anchor="middle" x="919.327" y="-400.8" font-family="Times,serif" font-size="14.00">organisation_people</text>
</g>
<!-- MeansOfInfluence&#45;&gt;Person -->
<g id="edge20" class="edge"><title>MeansOfInfluence&#45;&gt;Person</title>
<path fill="none" stroke="#cde6a0" d="M1469.95,-585.507C1490.71,-545.05 1532.48,-464.73 1570.5,-398 1597.27,-351.007 1619.11,-346.082 1633.69,-294 1638,-278.592 1642.14,-271.584 1633.69,-258 1616.67,-230.661 1599.83,-234.191 1568.69,-226 1461.08,-197.695 1121.7,-192.28 999.273,-191.244"/>
<polygon fill="#cde6a0" stroke="#cde6a0" points="1469.93,-585.541 1461.36,-592.389 1467.65,-589.991 1465.37,-594.441 1465.37,-594.441 1465.37,-594.441 1467.65,-589.991 1469.37,-596.493 1469.93,-585.541 1469.93,-585.541"/>
<polygon fill="#cde6a0" stroke="#cde6a0" points="999.132,-191.243 989.168,-186.665 994.132,-191.204 989.132,-191.165 989.132,-191.165 989.132,-191.165 994.132,-191.204 989.097,-195.664 999.132,-191.243 999.132,-191.243"/>
<text text-anchor="middle" x="1625.28" y="-400.8" font-family="Times,serif" font-size="14.00">government_people</text>
</g>
<!-- Meeting&#45;&gt;InfluenceOfficePerson -->
<g id="edge22" class="edge"><title>Meeting&#45;&gt;InfluenceOfficePerson</title>
<path fill="none" stroke="#dc9c25" d="M881.792,-102.763C821.316,-101.327 722.353,-94.8107 699.308,-68 695.252,-63.2814 695.252,-58.7186 699.308,-54 716.624,-33.8549 776.801,-25.1677 831.307,-21.4842"/>
<ellipse fill="none" stroke="#dc9c25" cx="886.059" cy="-102.85" rx="4" ry="4"/>
<polygon fill="#dc9c25" stroke="#dc9c25" points="831.427,-21.4768 841.688,-25.3443 836.417,-21.1649 841.407,-20.853 841.407,-20.853 841.407,-20.853 836.417,-21.1649 841.127,-16.3618 831.427,-21.4768 831.427,-21.4768"/>
<text text-anchor="middle" x="802.878" y="-56.8" font-family="Times,serif" font-size="14.00">influence_government_office_people</text>
</g>
<!-- Meeting&#45;&gt;InfluenceOfficePerson -->
<g id="edge23" class="edge"><title>Meeting&#45;&gt;InfluenceOfficePerson</title>
<path fill="none" stroke="#89ccd1" d="M929.688,-77.2567C929.688,-67.4415 929.688,-56.2256 929.688,-46.2729"/>
<ellipse fill="none" stroke="#89ccd1" cx="929.688" cy="-81.5951" rx="4" ry="4"/>
<polygon fill="#89ccd1" stroke="#89ccd1" points="929.688,-46.0952 934.188,-36.0951 929.688,-41.0952 929.688,-36.0952 929.688,-36.0952 929.688,-36.0952 929.688,-41.0952 925.188,-36.0952 929.688,-46.0952 929.688,-46.0952"/>
<text text-anchor="middle" x="1015.49" y="-56.8" font-family="Times,serif" font-size="14.00">influence_organisation_people</text>
</g>
<!-- Meeting&#45;&gt;Organisation -->
<g id="edge24" class="edge"><title>Meeting&#45;&gt;Organisation</title>
<path fill="none" stroke="#5bc027" d="M879.997,-106.946C806.696,-110.464 673.623,-119.513 630.688,-140 546.859,-180.001 494.034,-285.024 473.041,-334.5"/>
<polygon fill="#5bc027" stroke="#5bc027" points="880.371,-106.929 890.569,-110.961 885.366,-106.697 890.36,-106.466 890.36,-106.466 890.36,-106.466 885.366,-106.697 890.152,-101.971 880.371,-106.929 880.371,-106.929"/>
<polygon fill="#5bc027" stroke="#5bc027" points="472.978,-334.654 464.998,-342.175 471.067,-339.274 469.156,-343.895 469.156,-343.895 469.156,-343.895 471.067,-339.274 473.314,-345.614 472.978,-334.654 472.978,-334.654"/>
</g>
<!-- Meeting&#45;&gt;Person -->
<g id="edge25" class="edge"><title>Meeting&#45;&gt;Person</title>
<path fill="none" stroke="#1d9cdc" d="M957.904,-126.621C961.472,-130.658 964.599,-135.15 966.688,-140 969.736,-147.079 969.27,-155.081 967.347,-162.535"/>
<polygon fill="#1d9cdc" stroke="#1d9cdc" points="957.762,-126.481 953.823,-116.247 954.209,-122.963 950.656,-119.444 950.656,-119.444 950.656,-119.444 954.209,-122.963 947.49,-122.642 957.762,-126.481 957.762,-126.481"/>
<polygon fill="#1d9cdc" stroke="#1d9cdc" points="967.267,-162.767 959.758,-170.758 965.64,-167.495 964.013,-172.223 964.013,-172.223 964.013,-172.223 965.64,-167.495 968.268,-173.687 967.267,-162.767 967.267,-162.767"/>
<text text-anchor="middle" x="1025.33" y="-142.8" font-family="Times,serif" font-size="14.00">organisation_people</text>
</g>
<!-- Meeting&#45;&gt;Person -->
<g id="edge26" class="edge"><title>Meeting&#45;&gt;Person</title>
<path fill="none" stroke="#de4eca" d="M881.966,-111.806C848.82,-118.629 813.428,-131.45 830.501,-154 840.475,-167.174 880.199,-176.788 912.069,-182.57"/>
<polygon fill="#de4eca" stroke="#de4eca" points="882.296,-111.743 892.96,-114.298 887.208,-110.81 892.12,-109.877 892.12,-109.877 892.12,-109.877 887.208,-110.81 891.28,-105.456 882.296,-111.743 882.296,-111.743"/>
<polygon fill="#de4eca" stroke="#de4eca" points="912.241,-182.599 921.323,-188.745 917.167,-183.456 922.093,-184.312 922.093,-184.312 922.093,-184.312 917.167,-183.456 922.864,-179.878 912.241,-182.599 912.241,-182.599"/>
<text text-anchor="middle" x="885.281" y="-142.8" font-family="Times,serif" font-size="14.00">government_people</text>
</g>
<!-- Organisation&#45;&gt;InfluenceOfficePerson -->
<g id="edge27" class="edge"><title>Organisation&#45;&gt;InfluenceOfficePerson</title>
<path fill="none" stroke="#aae28a" d="M449.162,-337.154C443.905,-328.798 437.506,-319.607 430.688,-312 382.085,-257.778 335.209,-273.833 304.092,-208 275.118,-146.699 335.969,-118.108 395.688,-86 469.176,-46.4884 700.029,-29.4975 832.91,-22.835"/>
<ellipse fill="none" stroke="#aae28a" cx="451.388" cy="-340.806" rx="4.00002" ry="4.00002"/>
<polygon fill="#aae28a" stroke="#aae28a" points="833.104,-22.8256 843.312,-26.8297 838.098,-22.5803 843.092,-22.3351 843.092,-22.3351 843.092,-22.3351 838.098,-22.5803 842.871,-17.8405 833.104,-22.8256 833.104,-22.8256"/>
<text text-anchor="middle" x="389.486" y="-185.8" font-family="Times,serif" font-size="14.00">influence_organisation_people</text>
</g>
<!-- Organisation&#45;&gt;Travel -->
<g id="edge28" class="edge"><title>Organisation&#45;&gt;Travel</title>
<path fill="none" stroke="#25455b" d="M506.727,-344.261C548.046,-328.556 609.091,-305.354 647.604,-290.715"/>
<polygon fill="#25455b" stroke="#25455b" points="506.567,-344.322 495.62,-343.669 501.893,-346.099 497.219,-347.875 497.219,-347.875 497.219,-347.875 501.893,-346.099 498.818,-352.081 506.567,-344.322 506.567,-344.322"/>
<polygon fill="#25455b" stroke="#25455b" points="648.011,-290.56 658.958,-291.214 652.685,-288.784 657.359,-287.007 657.359,-287.007 657.359,-287.007 652.685,-288.784 655.76,-282.801 648.011,-290.56 648.011,-290.56"/>
</g>
<!-- Person&#45;&gt;Gift -->
<g id="edge32" class="edge"><title>Person&#45;&gt;Gift</title>
<path fill="none" stroke="#c4a6bb" d="M910.325,-192.643C817.024,-196.456 606.897,-207.056 580.688,-226 504.391,-281.145 539.539,-337.205 523.688,-430 514.415,-484.282 509.894,-548.623 507.949,-584.272"/>
<polygon fill="#c4a6bb" stroke="#c4a6bb" points="910.583,-192.633 920.755,-196.729 915.579,-192.433 920.575,-192.232 920.575,-192.232 920.575,-192.232 915.579,-192.433 920.395,-187.736 910.583,-192.633 910.583,-192.633"/>
<polygon fill="#c4a6bb" stroke="#c4a6bb" points="507.943,-584.385 502.932,-594.138 507.684,-589.378 507.426,-594.371 507.426,-594.371 507.426,-594.371 507.684,-589.378 511.92,-594.604 507.943,-584.385 507.943,-584.385"/>
</g>
<!-- Person&#45;&gt;Hospitality -->
<g id="edge31" class="edge"><title>Person&#45;&gt;Hospitality</title>
<path fill="none" stroke="#72d3ce" d="M991.439,-204.818C1032.72,-222.571 1097.6,-257.726 1125.69,-312 1144.27,-347.904 1122.76,-394.021 1105.35,-422.002"/>
<polygon fill="#72d3ce" stroke="#72d3ce" points="991.228,-204.73 983.729,-196.73 986.613,-202.807 981.998,-200.883 981.998,-200.883 981.998,-200.883 986.613,-202.807 980.267,-205.037 991.228,-204.73 991.228,-204.73"/>
<polygon fill="#72d3ce" stroke="#72d3ce" points="1105.34,-422.022 1096.12,-427.965 1102.62,-426.217 1099.9,-430.413 1099.9,-430.413 1099.9,-430.413 1102.62,-426.217 1103.68,-432.861 1105.34,-422.022 1105.34,-422.022"/>
</g>
<!-- Person&#45;&gt;InfluenceOfficePerson -->
<g id="edge29" class="edge"><title>Person&#45;&gt;InfluenceOfficePerson</title>
<path fill="none" stroke="#651e12" d="M997.311,-188.758C1026.25,-186.237 1063.21,-178.009 1085.69,-154 1116.5,-121.089 1131.23,-88.8956 1102.69,-54 1091.69,-40.5578 1056.52,-32.1578 1020.74,-26.97"/>
<ellipse fill="none" stroke="#651e12" cx="992.986" cy="-189.064" rx="4" ry="4"/>
<polygon fill="#651e12" stroke="#651e12" points="1020.55,-26.9452 1011.26,-21.132 1015.6,-26.2679 1010.65,-25.5905 1010.65,-25.5905 1010.65,-25.5905 1015.6,-26.2679 1010.04,-30.049 1020.55,-26.9452 1020.55,-26.9452"/>
</g>
<!-- Person&#45;&gt;Meeting -->
<g id="edge30" class="edge"><title>Person&#45;&gt;Meeting</title>
<path fill="none" stroke="#a4d5ad" d="M947.831,-161.769C945.939,-154.655 943.818,-147.016 941.688,-140 940.848,-137.234 939.932,-134.359 938.994,-131.499"/>
<polygon fill="#a4d5ad" stroke="#a4d5ad" points="947.892,-162.004 946.058,-172.815 949.152,-166.843 950.412,-171.681 950.412,-171.681 950.412,-171.681 949.152,-166.843 954.767,-170.547 947.892,-162.004 947.892,-162.004"/>
<polygon fill="#a4d5ad" stroke="#a4d5ad" points="938.99,-131.486 940.055,-120.572 937.39,-126.748 935.791,-122.011 935.791,-122.011 935.791,-122.011 937.39,-126.748 931.527,-123.45 938.99,-131.486 938.99,-131.486"/>
</g>
<!-- Person&#45;&gt;Travel -->
<g id="edge33" class="edge"><title>Person&#45;&gt;Travel</title>
<path fill="none" stroke="#5d4579" d="M912.761,-198.497C883.398,-204.378 843.523,-213.64 809.688,-226 796.619,-230.774 794.485,-234.539 781.688,-240 761.968,-248.415 739.472,-256.549 721.011,-262.855"/>
<polygon fill="#5d4579" stroke="#5d4579" points="912.866,-198.477 923.544,-200.975 917.774,-197.518 922.681,-196.559 922.681,-196.559 922.681,-196.559 917.774,-197.518 921.818,-192.142 912.866,-198.477 912.866,-198.477"/>
<polygon fill="#5d4579" stroke="#5d4579" points="720.963,-262.871 710.049,-261.805 716.225,-264.47 711.488,-266.069 711.488,-266.069 711.488,-266.069 716.225,-264.47 712.927,-270.332 720.963,-262.871 720.963,-262.871"/>
</g>
<!-- Travel&#45;&gt;InfluenceOfficePerson -->
<g id="edge34" class="edge"><title>Travel&#45;&gt;InfluenceOfficePerson</title>
<path fill="none" stroke="#a416c3" d="M654.157,-258.751C606.562,-232.793 514.692,-183.697 479.688,-172 435.276,-157.159 352.32,-178.266 379.308,-140 431.139,-66.5112 692.355,-36.1708 835.501,-24.9052"/>
<ellipse fill="none" stroke="#a416c3" cx="657.889" cy="-260.791" rx="4.00002" ry="4.00002"/>
<polygon fill="#a416c3" stroke="#a416c3" points="835.629,-24.8954 845.945,-28.6134 840.614,-24.511 845.599,-24.1267 845.599,-24.1267 845.599,-24.1267 840.614,-24.511 845.253,-19.64 835.629,-24.8954 835.629,-24.8954"/>
<text text-anchor="middle" x="482.878" y="-142.8" font-family="Times,serif" font-size="14.00">influence_government_office_people</text>
</g>
<!-- Travel&#45;&gt;InfluenceOfficePerson -->
<g id="edge35" class="edge"><title>Travel&#45;&gt;InfluenceOfficePerson</title>
<path fill="none" stroke="#90098f" d="M663.327,-253.62C660.273,-249.382 657.534,-244.761 655.688,-240 625.251,-161.493 623.808,-103.821 691.688,-54 714.199,-37.4779 778.13,-28.6667 834.069,-24.0189"/>
<ellipse fill="none" stroke="#90098f" cx="665.825" cy="-256.79" rx="4.00002" ry="4.00002"/>
<polygon fill="#90098f" stroke="#90098f" points="834.079,-24.0182 844.404,-27.7118 839.063,-23.6221 844.047,-23.226 844.047,-23.226 844.047,-23.226 839.063,-23.6221 843.691,-18.7401 834.079,-24.0182 834.079,-24.0182"/>
<text text-anchor="middle" x="721.486" y="-142.8" font-family="Times,serif" font-size="14.00">influence_organisation_people</text>
</g>
<!-- Travel&#45;&gt;Person -->
<g id="edge36" class="edge"><title>Travel&#45;&gt;Person</title>
<path fill="none" stroke="#e8c03c" d="M664.491,-250.818C660.042,-242.249 658.198,-233.006 664.409,-226 680.431,-207.931 833.035,-197.385 910.309,-193.162"/>
<polygon fill="#e8c03c" stroke="#e8c03c" points="664.543,-250.901 666.025,-261.766 667.192,-255.141 669.841,-259.382 669.841,-259.382 669.841,-259.382 667.192,-255.141 673.658,-256.997 664.543,-250.901 664.543,-250.901"/>
<polygon fill="#e8c03c" stroke="#e8c03c" points="910.705,-193.141 920.931,-197.102 915.698,-192.875 920.691,-192.608 920.691,-192.608 920.691,-192.608 915.698,-192.875 920.451,-188.115 910.705,-193.141 910.705,-193.141"/>
<text text-anchor="middle" x="720.327" y="-228.8" font-family="Times,serif" font-size="14.00">organisation_people</text>
</g>
<!-- Travel&#45;&gt;Person -->
<g id="edge37" class="edge"><title>Travel&#45;&gt;Person</title>
<path fill="none" stroke="#79c4bd" d="M724.084,-266.455C748.564,-260.561 780.096,-251.678 806.688,-240 817.58,-235.216 818.598,-230.759 829.501,-226 856.496,-214.218 888.505,-205.352 913.399,-199.492"/>
<polygon fill="#79c4bd" stroke="#79c4bd" points="723.797,-266.522 713.036,-264.415 718.928,-267.66 714.06,-268.797 714.06,-268.797 714.06,-268.797 718.928,-267.66 715.084,-273.179 723.797,-266.522 723.797,-266.522"/>
<polygon fill="#79c4bd" stroke="#79c4bd" points="913.502,-199.468 924.253,-201.628 918.377,-198.354 923.251,-197.241 923.251,-197.241 923.251,-197.241 918.377,-198.354 922.249,-192.854 913.502,-199.468 913.502,-199.468"/>
<text text-anchor="middle" x="884.281" y="-228.8" font-family="Times,serif" font-size="14.00">government_people</text>
</g>
</g>
</svg>
