<?xml version="1.0" encoding="UTF-8" standalone="no"?>
<!DOCTYPE svg PUBLIC "-//W3C//DTD SVG 1.1//EN"
 "http://www.w3.org/Graphics/SVG/1.1/DTD/svg11.dtd">
<!-- Generated by graphviz version 2.38.0 (20140413.2041)
 -->
<!-- Title: models_diagram Pages: 1 -->
<svg width="1655pt" height="1533pt"
 viewBox="0.00 0.00 1654.69 1533.00" xmlns="http://www.w3.org/2000/svg" xmlns:xlink="http://www.w3.org/1999/xlink">
<g id="graph0" class="graph" transform="scale(1 1) rotate(0) translate(4 1529)">
<title>models_diagram</title>
<polygon fill="none" stroke="none" points="-4,4 -4,-1529 1650.69,-1529 1650.69,4 -4,4"/>
<!-- _diagram_info -->
<g id="node1" class="node"><title>_diagram_info</title>
<text text-anchor="start" x="8" y="-1454.6" font-family="Times,serif" font-size="13.00">Models diagram</text>
<text text-anchor="start" x="8" y="-1441.6" font-family="Times,serif" font-size="13.00">Date: Oct 06 2016 &#45; 08:08</text>
<text text-anchor="start" x="8" y="-1428.6" font-family="Times,serif" font-size="13.00">Migration version: 20161004124950</text>
<text text-anchor="start" x="8" y="-1415.6" font-family="Times,serif" font-size="13.00">Generated by RailRoady 1.5.2</text>
<text text-anchor="start" x="8" y="-1402.6" font-family="Times,serif" font-size="13.00">http://railroady.prestonlee.com</text>
</g>
<!-- ApplicationRecord -->
<g id="node2" class="node"><title>ApplicationRecord</title>
<ellipse fill="none" stroke="black" cx="302.688" cy="-1432.5" rx="77.2916" ry="18"/>
<text text-anchor="middle" x="302.688" y="-1428.3" font-family="Times,serif" font-size="14.00">ApplicationRecord</text>
</g>
<!-- Entity -->
<g id="node3" class="node"><title>Entity</title>
<path fill="none" stroke="black" d="M409.825,-1375.5C409.825,-1375.5 633.55,-1375.5 633.55,-1375.5 639.55,-1375.5 645.55,-1381.5 645.55,-1387.5 645.55,-1387.5 645.55,-1477.5 645.55,-1477.5 645.55,-1483.5 639.55,-1489.5 633.55,-1489.5 633.55,-1489.5 409.825,-1489.5 409.825,-1489.5 403.825,-1489.5 397.825,-1483.5 397.825,-1477.5 397.825,-1477.5 397.825,-1387.5 397.825,-1387.5 397.825,-1381.5 403.825,-1375.5 409.825,-1375.5"/>
<text text-anchor="middle" x="521.688" y="-1474.3" font-family="Times,serif" font-size="14.00">Entity</text>
<polyline fill="none" stroke="black" points="397.825,-1467.5 645.55,-1467.5 "/>
<text text-anchor="start" x="405.825" y="-1452.3" font-family="Times,serif" font-size="14.00">id :integer</text>
<text text-anchor="start" x="405.825" y="-1438.3" font-family="Times,serif" font-size="14.00">name :character varying</text>
<text text-anchor="start" x="405.825" y="-1424.3" font-family="Times,serif" font-size="14.00">wikipedia_entry :character varying</text>
<text text-anchor="start" x="405.825" y="-1410.3" font-family="Times,serif" font-size="14.00">type :character varying</text>
<text text-anchor="start" x="405.825" y="-1396.3" font-family="Times,serif" font-size="14.00">created_at :timestamp without time zone</text>
<text text-anchor="start" x="405.825" y="-1382.3" font-family="Times,serif" font-size="14.00">updated_at :timestamp without time zone</text>
</g>
<!-- Gift -->
<g id="node4" class="node"><title>Gift</title>
<path fill="none" stroke="black" d="M1282.83,-1340.5C1282.83,-1340.5 1506.55,-1340.5 1506.55,-1340.5 1512.55,-1340.5 1518.55,-1346.5 1518.55,-1352.5 1518.55,-1352.5 1518.55,-1512.5 1518.55,-1512.5 1518.55,-1518.5 1512.55,-1524.5 1506.55,-1524.5 1506.55,-1524.5 1282.83,-1524.5 1282.83,-1524.5 1276.83,-1524.5 1270.83,-1518.5 1270.83,-1512.5 1270.83,-1512.5 1270.83,-1352.5 1270.83,-1352.5 1270.83,-1346.5 1276.83,-1340.5 1282.83,-1340.5"/>
<text text-anchor="middle" x="1394.69" y="-1509.3" font-family="Times,serif" font-size="14.00">Gift</text>
<polyline fill="none" stroke="black" points="1270.83,-1502.5 1518.55,-1502.5 "/>
<text text-anchor="start" x="1278.83" y="-1487.3" font-family="Times,serif" font-size="14.00">updated_at :timestamp without time zone</text>
<text text-anchor="start" x="1278.83" y="-1473.3" font-family="Times,serif" font-size="14.00">type :character varying</text>
<text text-anchor="start" x="1278.83" y="-1459.3" font-family="Times,serif" font-size="14.00">day :integer</text>
<text text-anchor="start" x="1278.83" y="-1445.3" font-family="Times,serif" font-size="14.00">month :integer</text>
<text text-anchor="start" x="1278.83" y="-1431.3" font-family="Times,serif" font-size="14.00">year :integer</text>
<text text-anchor="start" x="1278.83" y="-1417.3" font-family="Times,serif" font-size="14.00">purpose :character varying</text>
<text text-anchor="start" x="1278.83" y="-1403.3" font-family="Times,serif" font-size="14.00">type_of_hospitality :character varying</text>
<text text-anchor="start" x="1278.83" y="-1389.3" font-family="Times,serif" font-size="14.00">gift :character varying</text>
<text text-anchor="start" x="1278.83" y="-1375.3" font-family="Times,serif" font-size="14.00">value :integer</text>
<text text-anchor="start" x="1278.83" y="-1361.3" font-family="Times,serif" font-size="14.00">created_at :timestamp without time zone</text>
<text text-anchor="start" x="1278.83" y="-1347.3" font-family="Times,serif" font-size="14.00">id :integer</text>
</g>
<!-- GovernmentOffice -->
<g id="node5" class="node"><title>GovernmentOffice</title>
<path fill="none" stroke="black" d="M1111.83,-1188.5C1111.83,-1188.5 1335.55,-1188.5 1335.55,-1188.5 1341.55,-1188.5 1347.55,-1194.5 1347.55,-1200.5 1347.55,-1200.5 1347.55,-1290.5 1347.55,-1290.5 1347.55,-1296.5 1341.55,-1302.5 1335.55,-1302.5 1335.55,-1302.5 1111.83,-1302.5 1111.83,-1302.5 1105.83,-1302.5 1099.83,-1296.5 1099.83,-1290.5 1099.83,-1290.5 1099.83,-1200.5 1099.83,-1200.5 1099.83,-1194.5 1105.83,-1188.5 1111.83,-1188.5"/>
<text text-anchor="middle" x="1223.69" y="-1287.3" font-family="Times,serif" font-size="14.00">GovernmentOffice</text>
<polyline fill="none" stroke="black" points="1099.83,-1280.5 1347.55,-1280.5 "/>
<text text-anchor="start" x="1107.83" y="-1265.3" font-family="Times,serif" font-size="14.00">id :integer</text>
<text text-anchor="start" x="1107.83" y="-1251.3" font-family="Times,serif" font-size="14.00">name :character varying</text>
<text text-anchor="start" x="1107.83" y="-1237.3" font-family="Times,serif" font-size="14.00">wikipedia_entry :character varying</text>
<text text-anchor="start" x="1107.83" y="-1223.3" font-family="Times,serif" font-size="14.00">type :character varying</text>
<text text-anchor="start" x="1107.83" y="-1209.3" font-family="Times,serif" font-size="14.00">created_at :timestamp without time zone</text>
<text text-anchor="start" x="1107.83" y="-1195.3" font-family="Times,serif" font-size="14.00">updated_at :timestamp without time zone</text>
</g>
<!-- Gift&#45;&gt;GovernmentOffice -->
<g id="edge6" class="edge"><title>Gift&#45;&gt;GovernmentOffice</title>
<path fill="none" stroke="#89fc6d" d="M1303.48,-1332.82C1296.47,-1325.24 1289.51,-1317.71 1282.79,-1310.44"/>
<polygon fill="#89fc6d" stroke="#89fc6d" points="1303.65,-1333.01 1307.14,-1343.41 1307.05,-1336.68 1310.44,-1340.35 1310.44,-1340.35 1310.44,-1340.35 1307.05,-1336.68 1313.74,-1337.3 1303.65,-1333.01 1303.65,-1333.01"/>
<polygon fill="#89fc6d" stroke="#89fc6d" points="1282.39,-1310.01 1278.91,-1299.61 1279,-1306.34 1275.6,-1302.66 1275.6,-1302.66 1275.6,-1302.66 1279,-1306.34 1272.3,-1305.72 1282.39,-1310.01 1282.39,-1310.01"/>
</g>
<!-- InfluenceGovernmentOfficePerson -->
<g id="node7" class="node"><title>InfluenceGovernmentOfficePerson</title>
<path fill="none" stroke="black" d="M1401.83,-0.5C1401.83,-0.5 1625.55,-0.5 1625.55,-0.5 1631.55,-0.5 1637.55,-6.5 1637.55,-12.5 1637.55,-12.5 1637.55,-116.5 1637.55,-116.5 1637.55,-122.5 1631.55,-128.5 1625.55,-128.5 1625.55,-128.5 1401.83,-128.5 1401.83,-128.5 1395.83,-128.5 1389.83,-122.5 1389.83,-116.5 1389.83,-116.5 1389.83,-12.5 1389.83,-12.5 1389.83,-6.5 1395.83,-0.5 1401.83,-0.5"/>
<text text-anchor="middle" x="1513.69" y="-113.3" font-family="Times,serif" font-size="14.00">InfluenceGovernmentOfficePerson</text>
<polyline fill="none" stroke="black" points="1389.83,-106.5 1637.55,-106.5 "/>
<text text-anchor="start" x="1397.83" y="-91.3" font-family="Times,serif" font-size="14.00">person_id :integer</text>
<text text-anchor="start" x="1397.83" y="-77.3" font-family="Times,serif" font-size="14.00">means_of_influence_id :integer</text>
<text text-anchor="start" x="1397.83" y="-63.3" font-family="Times,serif" font-size="14.00">office_id :integer</text>
<text text-anchor="start" x="1397.83" y="-49.3" font-family="Times,serif" font-size="14.00">id :integer</text>
<text text-anchor="start" x="1397.83" y="-35.3" font-family="Times,serif" font-size="14.00">created_at :timestamp without time zone</text>
<text text-anchor="start" x="1397.83" y="-21.3" font-family="Times,serif" font-size="14.00">updated_at :timestamp without time zone</text>
<text text-anchor="start" x="1397.83" y="-7.3" font-family="Times,serif" font-size="14.00">type :character varying</text>
</g>
<!-- Gift&#45;&gt;InfluenceGovernmentOfficePerson -->
<g id="edge1" class="edge"><title>Gift&#45;&gt;InfluenceGovernmentOfficePerson</title>
<path fill="none" stroke="#9fe63c" d="M1526.3,-1388.49C1587.37,-1359.45 1646.69,-1313.91 1646.69,-1246.5 1646.69,-1246.5 1646.69,-1246.5 1646.69,-257.5 1646.69,-215.458 1644.35,-202.033 1622.69,-166 1616.41,-155.556 1608.73,-145.537 1600.37,-136.144"/>
<ellipse fill="none" stroke="#9fe63c" cx="1522.47" cy="-1390.26" rx="4.00002" ry="4.00002"/>
<polygon fill="#9fe63c" stroke="#9fe63c" points="1600.32,-136.095 1596.85,-125.696 1596.93,-132.422 1593.54,-128.749 1593.54,-128.749 1593.54,-128.749 1596.93,-132.422 1590.23,-131.802 1600.32,-136.095 1600.32,-136.095"/>
</g>
<!-- InfluenceOrganisationPerson -->
<g id="node9" class="node"><title>InfluenceOrganisationPerson</title>
<path fill="none" stroke="black" d="M615.825,-0.5C615.825,-0.5 839.55,-0.5 839.55,-0.5 845.55,-0.5 851.55,-6.5 851.55,-12.5 851.55,-12.5 851.55,-116.5 851.55,-116.5 851.55,-122.5 845.55,-128.5 839.55,-128.5 839.55,-128.5 615.825,-128.5 615.825,-128.5 609.825,-128.5 603.825,-122.5 603.825,-116.5 603.825,-116.5 603.825,-12.5 603.825,-12.5 603.825,-6.5 609.825,-0.5 615.825,-0.5"/>
<text text-anchor="middle" x="727.688" y="-113.3" font-family="Times,serif" font-size="14.00">InfluenceOrganisationPerson</text>
<polyline fill="none" stroke="black" points="603.825,-106.5 851.55,-106.5 "/>
<text text-anchor="start" x="611.825" y="-91.3" font-family="Times,serif" font-size="14.00">person_id :integer</text>
<text text-anchor="start" x="611.825" y="-77.3" font-family="Times,serif" font-size="14.00">means_of_influence_id :integer</text>
<text text-anchor="start" x="611.825" y="-63.3" font-family="Times,serif" font-size="14.00">office_id :integer</text>
<text text-anchor="start" x="611.825" y="-49.3" font-family="Times,serif" font-size="14.00">id :integer</text>
<text text-anchor="start" x="611.825" y="-35.3" font-family="Times,serif" font-size="14.00">created_at :timestamp without time zone</text>
<text text-anchor="start" x="611.825" y="-21.3" font-family="Times,serif" font-size="14.00">updated_at :timestamp without time zone</text>
<text text-anchor="start" x="611.825" y="-7.3" font-family="Times,serif" font-size="14.00">type :character varying</text>
</g>
<!-- Gift&#45;&gt;InfluenceOrganisationPerson -->
<g id="edge2" class="edge"><title>Gift&#45;&gt;InfluenceOrganisationPerson</title>
<path fill="none" stroke="#6640db" d="M1262.79,-1402.12C1191.07,-1381.96 1103.27,-1350.16 1034.69,-1303 872.107,-1191.2 912.43,-1071.49 745.688,-966 719.993,-949.744 699.335,-971.204 679.688,-948 562.492,-809.59 638.688,-723.362 638.688,-542 638.688,-542 638.688,-542 638.688,-257.5 638.688,-215.342 656.569,-172.402 676.301,-137.852"/>
<ellipse fill="none" stroke="#6640db" cx="1266.71" cy="-1403.21" rx="4.00001" ry="4.00001"/>
<polygon fill="#6640db" stroke="#6640db" points="676.556,-137.418 685.503,-131.077 679.09,-133.107 681.624,-128.797 681.624,-128.797 681.624,-128.797 679.09,-133.107 677.744,-126.516 676.556,-137.418 676.556,-137.418"/>
</g>
<!-- Organisation -->
<g id="node12" class="node"><title>Organisation</title>
<path fill="none" stroke="black" d="M774.825,-801.5C774.825,-801.5 998.55,-801.5 998.55,-801.5 1004.55,-801.5 1010.55,-807.5 1010.55,-813.5 1010.55,-813.5 1010.55,-903.5 1010.55,-903.5 1010.55,-909.5 1004.55,-915.5 998.55,-915.5 998.55,-915.5 774.825,-915.5 774.825,-915.5 768.825,-915.5 762.825,-909.5 762.825,-903.5 762.825,-903.5 762.825,-813.5 762.825,-813.5 762.825,-807.5 768.825,-801.5 774.825,-801.5"/>
<text text-anchor="middle" x="886.688" y="-900.3" font-family="Times,serif" font-size="14.00">Organisation</text>
<polyline fill="none" stroke="black" points="762.825,-893.5 1010.55,-893.5 "/>
<text text-anchor="start" x="770.825" y="-878.3" font-family="Times,serif" font-size="14.00">id :integer</text>
<text text-anchor="start" x="770.825" y="-864.3" font-family="Times,serif" font-size="14.00">name :character varying</text>
<text text-anchor="start" x="770.825" y="-850.3" font-family="Times,serif" font-size="14.00">wikipedia_entry :character varying</text>
<text text-anchor="start" x="770.825" y="-836.3" font-family="Times,serif" font-size="14.00">type :character varying</text>
<text text-anchor="start" x="770.825" y="-822.3" font-family="Times,serif" font-size="14.00">created_at :timestamp without time zone</text>
<text text-anchor="start" x="770.825" y="-808.3" font-family="Times,serif" font-size="14.00">updated_at :timestamp without time zone</text>
</g>
<!-- Gift&#45;&gt;Organisation -->
<g id="edge3" class="edge"><title>Gift&#45;&gt;Organisation</title>
<path fill="none" stroke="#6b3844" d="M1260.92,-1399.73C1202.47,-1380.11 1136.87,-1349.51 1090.69,-1303 1039.16,-1251.11 1053.92,-1219.26 1027.69,-1151 990.973,-1055.48 1002.01,-1022.54 950.688,-934 948.724,-930.612 946.597,-927.232 944.352,-923.886"/>
<polygon fill="#6b3844" stroke="#6b3844" points="1261.11,-1399.79 1269.21,-1407.18 1265.86,-1401.35 1270.61,-1402.91 1270.61,-1402.91 1270.61,-1402.91 1265.86,-1401.35 1272.01,-1398.63 1261.11,-1399.79 1261.11,-1399.79"/>
<polygon fill="#6b3844" stroke="#6b3844" points="944.313,-923.83 942.235,-913.063 941.434,-919.742 938.556,-915.653 938.556,-915.653 938.556,-915.653 941.434,-919.742 934.876,-918.244 944.313,-923.83 944.313,-923.83"/>
</g>
<!-- Person -->
<g id="node13" class="node"><title>Person</title>
<path fill="none" stroke="black" d="M1098.83,-401.5C1098.83,-401.5 1322.55,-401.5 1322.55,-401.5 1328.55,-401.5 1334.55,-407.5 1334.55,-413.5 1334.55,-413.5 1334.55,-503.5 1334.55,-503.5 1334.55,-509.5 1328.55,-515.5 1322.55,-515.5 1322.55,-515.5 1098.83,-515.5 1098.83,-515.5 1092.83,-515.5 1086.83,-509.5 1086.83,-503.5 1086.83,-503.5 1086.83,-413.5 1086.83,-413.5 1086.83,-407.5 1092.83,-401.5 1098.83,-401.5"/>
<text text-anchor="middle" x="1210.69" y="-500.3" font-family="Times,serif" font-size="14.00">Person</text>
<polyline fill="none" stroke="black" points="1086.83,-493.5 1334.55,-493.5 "/>
<text text-anchor="start" x="1094.83" y="-478.3" font-family="Times,serif" font-size="14.00">id :integer</text>
<text text-anchor="start" x="1094.83" y="-464.3" font-family="Times,serif" font-size="14.00">name :character varying</text>
<text text-anchor="start" x="1094.83" y="-450.3" font-family="Times,serif" font-size="14.00">wikipedia_entry :character varying</text>
<text text-anchor="start" x="1094.83" y="-436.3" font-family="Times,serif" font-size="14.00">type :character varying</text>
<text text-anchor="start" x="1094.83" y="-422.3" font-family="Times,serif" font-size="14.00">created_at :timestamp without time zone</text>
<text text-anchor="start" x="1094.83" y="-408.3" font-family="Times,serif" font-size="14.00">updated_at :timestamp without time zone</text>
</g>
<!-- Gift&#45;&gt;Person -->
<g id="edge4" class="edge"><title>Gift&#45;&gt;Person</title>
<path fill="none" stroke="#8db202" d="M1401.59,-1330.04C1403.54,-1229.99 1393.05,-1076.44 1323.69,-966 1316.16,-954.012 1304.01,-960.523 1297.41,-948 1256.75,-870.87 1398.95,-853.557 1377.69,-769 1354.73,-677.714 1298.86,-584.131 1258.04,-524.124"/>
<polygon fill="#8db202" stroke="#8db202" points="1401.59,-1330.16 1396.85,-1340.05 1401.47,-1335.16 1401.35,-1340.16 1401.35,-1340.16 1401.35,-1340.16 1401.47,-1335.16 1405.85,-1340.27 1401.59,-1330.16 1401.59,-1330.16"/>
<polygon fill="#8db202" stroke="#8db202" points="1257.79,-523.763 1255.84,-512.971 1254.96,-519.64 1252.13,-515.518 1252.13,-515.518 1252.13,-515.518 1254.96,-519.64 1248.42,-518.065 1257.79,-523.763 1257.79,-523.763"/>
<text text-anchor="middle" x="1353.33" y="-936.8" font-family="Times,serif" font-size="14.00">organisation_people</text>
</g>
<!-- Gift&#45;&gt;Person -->
<g id="edge5" class="edge"><title>Gift&#45;&gt;Person</title>
<path fill="none" stroke="#120f24" d="M1415.51,-1330.32C1415.65,-1327.19 1415.71,-1324.07 1415.69,-1321 1414.1,-1075.46 1435.46,-1010.79 1392.69,-769 1376.5,-677.502 1392.57,-644.393 1342.69,-566 1332.52,-550.028 1319.14,-535.361 1304.79,-522.352"/>
<polygon fill="#120f24" stroke="#120f24" points="1415.51,-1330.42 1410.36,-1340.11 1415.18,-1335.41 1414.85,-1340.4 1414.85,-1340.4 1414.85,-1340.4 1415.18,-1335.41 1419.34,-1340.7 1415.51,-1330.42 1415.51,-1330.42"/>
<polygon fill="#120f24" stroke="#120f24" points="1304.73,-522.297 1300.18,-512.319 1300.97,-518.999 1297.22,-515.701 1297.22,-515.701 1297.22,-515.701 1300.97,-518.999 1294.25,-519.083 1304.73,-522.297 1304.73,-522.297"/>
<text text-anchor="middle" x="1471.28" y="-936.8" font-family="Times,serif" font-size="14.00">government_people</text>
</g>
<!-- Hospitality -->
<g id="node6" class="node"><title>Hospitality</title>
<path fill="none" stroke="black" d="M1078.83,-966.5C1078.83,-966.5 1302.55,-966.5 1302.55,-966.5 1308.55,-966.5 1314.55,-972.5 1314.55,-978.5 1314.55,-978.5 1314.55,-1138.5 1314.55,-1138.5 1314.55,-1144.5 1308.55,-1150.5 1302.55,-1150.5 1302.55,-1150.5 1078.83,-1150.5 1078.83,-1150.5 1072.83,-1150.5 1066.83,-1144.5 1066.83,-1138.5 1066.83,-1138.5 1066.83,-978.5 1066.83,-978.5 1066.83,-972.5 1072.83,-966.5 1078.83,-966.5"/>
<text text-anchor="middle" x="1190.69" y="-1135.3" font-family="Times,serif" font-size="14.00">Hospitality</text>
<polyline fill="none" stroke="black" points="1066.83,-1128.5 1314.55,-1128.5 "/>
<text text-anchor="start" x="1074.83" y="-1113.3" font-family="Times,serif" font-size="14.00">updated_at :timestamp without time zone</text>
<text text-anchor="start" x="1074.83" y="-1099.3" font-family="Times,serif" font-size="14.00">type :character varying</text>
<text text-anchor="start" x="1074.83" y="-1085.3" font-family="Times,serif" font-size="14.00">day :integer</text>
<text text-anchor="start" x="1074.83" y="-1071.3" font-family="Times,serif" font-size="14.00">month :integer</text>
<text text-anchor="start" x="1074.83" y="-1057.3" font-family="Times,serif" font-size="14.00">year :integer</text>
<text text-anchor="start" x="1074.83" y="-1043.3" font-family="Times,serif" font-size="14.00">purpose :character varying</text>
<text text-anchor="start" x="1074.83" y="-1029.3" font-family="Times,serif" font-size="14.00">type_of_hospitality :character varying</text>
<text text-anchor="start" x="1074.83" y="-1015.3" font-family="Times,serif" font-size="14.00">gift :character varying</text>
<text text-anchor="start" x="1074.83" y="-1001.3" font-family="Times,serif" font-size="14.00">value :integer</text>
<text text-anchor="start" x="1074.83" y="-987.3" font-family="Times,serif" font-size="14.00">created_at :timestamp without time zone</text>
<text text-anchor="start" x="1074.83" y="-973.3" font-family="Times,serif" font-size="14.00">id :integer</text>
</g>
<!-- GovernmentOffice&#45;&gt;Hospitality -->
<g id="edge9" class="edge"><title>GovernmentOffice&#45;&gt;Hospitality</title>
<path fill="none" stroke="#f2c6a9" d="M1211.9,-1178.44C1210.87,-1172.63 1209.8,-1166.67 1208.73,-1160.66"/>
<polygon fill="#f2c6a9" stroke="#f2c6a9" points="1211.94,-1178.65 1209.27,-1189.28 1212.82,-1183.57 1213.7,-1188.49 1213.7,-1188.49 1213.7,-1188.49 1212.82,-1183.57 1218.13,-1187.7 1211.94,-1178.65 1211.94,-1178.65"/>
<polygon fill="#f2c6a9" stroke="#f2c6a9" points="1208.68,-1160.37 1211.35,-1149.73 1207.8,-1155.44 1206.92,-1150.52 1206.92,-1150.52 1206.92,-1150.52 1207.8,-1155.44 1202.49,-1151.31 1208.68,-1160.37 1208.68,-1160.37"/>
</g>
<!-- GovernmentOffice&#45;&gt;InfluenceGovernmentOfficePerson -->
<g id="edge7" class="edge"><title>GovernmentOffice&#45;&gt;InfluenceGovernmentOfficePerson</title>
<path fill="none" stroke="#f855a3" d="M1355.47,-1214.92C1395.76,-1200.82 1437.81,-1180.38 1469.69,-1151 1575.24,-1053.74 1608.69,-1003.03 1608.69,-859.5 1608.69,-859.5 1608.69,-859.5 1608.69,-257.5 1608.69,-215.458 1602.43,-204.113 1584.69,-166 1580.17,-156.288 1574.69,-146.525 1568.81,-137.102"/>
<ellipse fill="none" stroke="#f855a3" cx="1351.49" cy="-1216.28" rx="4.00001" ry="4.00001"/>
<polygon fill="#f855a3" stroke="#f855a3" points="1568.72,-136.966 1567.09,-126.122 1566.02,-132.761 1563.31,-128.557 1563.31,-128.557 1563.31,-128.557 1566.02,-132.761 1559.53,-130.992 1568.72,-136.966 1568.72,-136.966"/>
</g>
<!-- Meeting -->
<g id="node11" class="node"><title>Meeting</title>
<path fill="none" stroke="black" d="M1231.83,-166.5C1231.83,-166.5 1455.55,-166.5 1455.55,-166.5 1461.55,-166.5 1467.55,-172.5 1467.55,-178.5 1467.55,-178.5 1467.55,-338.5 1467.55,-338.5 1467.55,-344.5 1461.55,-350.5 1455.55,-350.5 1455.55,-350.5 1231.83,-350.5 1231.83,-350.5 1225.83,-350.5 1219.83,-344.5 1219.83,-338.5 1219.83,-338.5 1219.83,-178.5 1219.83,-178.5 1219.83,-172.5 1225.83,-166.5 1231.83,-166.5"/>
<text text-anchor="middle" x="1343.69" y="-335.3" font-family="Times,serif" font-size="14.00">Meeting</text>
<polyline fill="none" stroke="black" points="1219.83,-328.5 1467.55,-328.5 "/>
<text text-anchor="start" x="1227.83" y="-313.3" font-family="Times,serif" font-size="14.00">updated_at :timestamp without time zone</text>
<text text-anchor="start" x="1227.83" y="-299.3" font-family="Times,serif" font-size="14.00">type :character varying</text>
<text text-anchor="start" x="1227.83" y="-285.3" font-family="Times,serif" font-size="14.00">day :integer</text>
<text text-anchor="start" x="1227.83" y="-271.3" font-family="Times,serif" font-size="14.00">month :integer</text>
<text text-anchor="start" x="1227.83" y="-257.3" font-family="Times,serif" font-size="14.00">year :integer</text>
<text text-anchor="start" x="1227.83" y="-243.3" font-family="Times,serif" font-size="14.00">purpose :character varying</text>
<text text-anchor="start" x="1227.83" y="-229.3" font-family="Times,serif" font-size="14.00">type_of_hospitality :character varying</text>
<text text-anchor="start" x="1227.83" y="-215.3" font-family="Times,serif" font-size="14.00">gift :character varying</text>
<text text-anchor="start" x="1227.83" y="-201.3" font-family="Times,serif" font-size="14.00">value :integer</text>
<text text-anchor="start" x="1227.83" y="-187.3" font-family="Times,serif" font-size="14.00">created_at :timestamp without time zone</text>
<text text-anchor="start" x="1227.83" y="-173.3" font-family="Times,serif" font-size="14.00">id :integer</text>
</g>
<!-- GovernmentOffice&#45;&gt;Meeting -->
<g id="edge8" class="edge"><title>GovernmentOffice&#45;&gt;Meeting</title>
<path fill="none" stroke="#ba29a5" d="M1328.61,-1182.59C1405.22,-1130.77 1503.15,-1049.12 1547.69,-948 1550.2,-942.306 1547.98,-940.215 1547.69,-934 1544.35,-863.984 1532.69,-847.096 1532.69,-777 1532.69,-777 1532.69,-777 1532.69,-457.5 1532.69,-412.878 1507.26,-374.352 1475.06,-343.453"/>
<polygon fill="#ba29a5" stroke="#ba29a5" points="1328.16,-1182.89 1317.35,-1184.7 1324,-1185.67 1319.85,-1188.44 1319.85,-1188.44 1319.85,-1188.44 1324,-1185.67 1322.35,-1192.19 1328.16,-1182.89 1328.16,-1182.89"/>
<polygon fill="#ba29a5" stroke="#ba29a5" points="1474.98,-343.375 1470.71,-333.275 1471.31,-339.975 1467.64,-336.574 1467.64,-336.574 1467.64,-336.574 1471.31,-339.975 1464.58,-339.873 1474.98,-343.375 1474.98,-343.375"/>
</g>
<!-- Travel -->
<g id="node14" class="node"><title>Travel</title>
<path fill="none" stroke="black" d="M906.825,-566.5C906.825,-566.5 1130.55,-566.5 1130.55,-566.5 1136.55,-566.5 1142.55,-572.5 1142.55,-578.5 1142.55,-578.5 1142.55,-738.5 1142.55,-738.5 1142.55,-744.5 1136.55,-750.5 1130.55,-750.5 1130.55,-750.5 906.825,-750.5 906.825,-750.5 900.825,-750.5 894.825,-744.5 894.825,-738.5 894.825,-738.5 894.825,-578.5 894.825,-578.5 894.825,-572.5 900.825,-566.5 906.825,-566.5"/>
<text text-anchor="middle" x="1018.69" y="-735.3" font-family="Times,serif" font-size="14.00">Travel</text>
<polyline fill="none" stroke="black" points="894.825,-728.5 1142.55,-728.5 "/>
<text text-anchor="start" x="902.825" y="-713.3" font-family="Times,serif" font-size="14.00">updated_at :timestamp without time zone</text>
<text text-anchor="start" x="902.825" y="-699.3" font-family="Times,serif" font-size="14.00">type :character varying</text>
<text text-anchor="start" x="902.825" y="-685.3" font-family="Times,serif" font-size="14.00">day :integer</text>
<text text-anchor="start" x="902.825" y="-671.3" font-family="Times,serif" font-size="14.00">month :integer</text>
<text text-anchor="start" x="902.825" y="-657.3" font-family="Times,serif" font-size="14.00">year :integer</text>
<text text-anchor="start" x="902.825" y="-643.3" font-family="Times,serif" font-size="14.00">purpose :character varying</text>
<text text-anchor="start" x="902.825" y="-629.3" font-family="Times,serif" font-size="14.00">type_of_hospitality :character varying</text>
<text text-anchor="start" x="902.825" y="-615.3" font-family="Times,serif" font-size="14.00">gift :character varying</text>
<text text-anchor="start" x="902.825" y="-601.3" font-family="Times,serif" font-size="14.00">value :integer</text>
<text text-anchor="start" x="902.825" y="-587.3" font-family="Times,serif" font-size="14.00">created_at :timestamp without time zone</text>
<text text-anchor="start" x="902.825" y="-573.3" font-family="Times,serif" font-size="14.00">id :integer</text>
</g>
<!-- GovernmentOffice&#45;&gt;Travel -->
<g id="edge10" class="edge"><title>GovernmentOffice&#45;&gt;Travel</title>
<path fill="none" stroke="#9a04ec" d="M1091.26,-1187.19C1078.2,-1176.85 1066.54,-1164.85 1057.69,-1151 1037.25,-1119.01 1026.41,-895.387 1021.68,-761.048"/>
<polygon fill="#9a04ec" stroke="#9a04ec" points="1091.56,-1187.41 1096.86,-1197.01 1095.56,-1190.41 1099.56,-1193.41 1099.56,-1193.41 1099.56,-1193.41 1095.56,-1190.41 1102.26,-1189.81 1091.56,-1187.41 1091.56,-1187.41"/>
<polygon fill="#9a04ec" stroke="#9a04ec" points="1021.67,-760.729 1025.82,-750.579 1021.5,-755.732 1021.32,-750.735 1021.32,-750.735 1021.32,-750.735 1021.5,-755.732 1016.83,-750.891 1021.67,-760.729 1021.67,-760.729"/>
</g>
<!-- Hospitality&#45;&gt;InfluenceGovernmentOfficePerson -->
<g id="edge11" class="edge"><title>Hospitality&#45;&gt;InfluenceGovernmentOfficePerson</title>
<path fill="none" stroke="#65b541" d="M1260.89,-960.141C1269.42,-950.817 1278.41,-941.906 1287.69,-934 1397.17,-840.707 1570.69,-920.837 1570.69,-777 1570.69,-777 1570.69,-777 1570.69,-257.5 1570.69,-216.977 1558.87,-173.558 1546,-138.278"/>
<ellipse fill="none" stroke="#65b541" cx="1258.02" cy="-963.342" rx="4.00002" ry="4.00002"/>
<polygon fill="#65b541" stroke="#65b541" points="1545.87,-137.915 1546.57,-126.971 1544.11,-133.234 1542.35,-128.552 1542.35,-128.552 1542.35,-128.552 1544.11,-133.234 1538.14,-130.133 1545.87,-137.915 1545.87,-137.915"/>
</g>
<!-- Hospitality&#45;&gt;InfluenceOrganisationPerson -->
<g id="edge12" class="edge"><title>Hospitality&#45;&gt;InfluenceOrganisationPerson</title>
<path fill="none" stroke="#f4258c" d="M1144.47,-959.354C1115.18,-906.231 1072.78,-843.063 1019.69,-801 969.862,-761.528 926.827,-799.459 885.688,-751 842.816,-700.5 790.213,-229.301 770.688,-166 767.835,-156.751 764.412,-147.199 760.76,-137.831"/>
<ellipse fill="none" stroke="#f4258c" cx="1146.42" cy="-962.934" rx="4.00002" ry="4.00002"/>
<polygon fill="#f4258c" stroke="#f4258c" points="760.758,-137.827 761.221,-126.871 758.901,-133.185 757.043,-128.543 757.043,-128.543 757.043,-128.543 758.901,-133.185 752.865,-130.214 760.758,-137.827 760.758,-137.827"/>
</g>
<!-- Hospitality&#45;&gt;Organisation -->
<g id="edge13" class="edge"><title>Hospitality&#45;&gt;Organisation</title>
<path fill="none" stroke="#e39df8" d="M1058.07,-971.123C1032.2,-954.274 1005.57,-936.929 981.239,-921.083"/>
<polygon fill="#e39df8" stroke="#e39df8" points="1058.22,-971.223 1064.14,-980.451 1062.41,-973.951 1066.6,-976.68 1066.6,-976.68 1066.6,-976.68 1062.41,-973.951 1069.06,-972.91 1058.22,-971.223 1058.22,-971.223"/>
<polygon fill="#e39df8" stroke="#e39df8" points="981.115,-921.002 975.191,-911.773 976.925,-918.273 972.735,-915.544 972.735,-915.544 972.735,-915.544 976.925,-918.273 970.279,-919.315 981.115,-921.002 981.115,-921.002"/>
</g>
<!-- Hospitality&#45;&gt;Person -->
<g id="edge14" class="edge"><title>Hospitality&#45;&gt;Person</title>
<path fill="none" stroke="#416977" d="M1171.31,-956.247C1162.39,-904.614 1152.83,-840.693 1148.41,-783 1147.93,-776.796 1144.96,-774.176 1148.41,-769 1159.97,-751.67 1178.89,-767.436 1191.69,-751 1247.73,-679.045 1215,-638.957 1221.69,-548 1222.22,-540.781 1222.19,-533.248 1221.78,-525.755"/>
<polygon fill="#416977" stroke="#416977" points="1171.36,-956.553 1168.65,-967.178 1172.22,-961.479 1173.08,-966.404 1173.08,-966.404 1173.08,-966.404 1172.22,-961.479 1177.52,-965.631 1171.36,-956.553 1171.36,-956.553"/>
<polygon fill="#416977" stroke="#416977" points="1221.77,-525.568 1225.51,-515.259 1221.4,-520.582 1221.02,-515.596 1221.02,-515.596 1221.02,-515.596 1221.4,-520.582 1216.53,-515.934 1221.77,-525.568 1221.77,-525.568"/>
<text text-anchor="middle" x="1204.33" y="-771.8" font-family="Times,serif" font-size="14.00">organisation_people</text>
</g>
<!-- Hospitality&#45;&gt;Person -->
<g id="edge15" class="edge"><title>Hospitality&#45;&gt;Person</title>
<path fill="none" stroke="#78eb0c" d="M1223.37,-956.427C1238.29,-905.09 1254.26,-841.375 1261.69,-783 1275.73,-672.621 1259.64,-642.659 1235.69,-534 1235.07,-531.19 1234.38,-528.337 1233.64,-525.467"/>
<polygon fill="#78eb0c" stroke="#78eb0c" points="1223.32,-956.6 1216.18,-964.926 1221.91,-961.397 1220.5,-966.194 1220.5,-966.194 1220.5,-966.194 1221.91,-961.397 1224.82,-967.463 1223.32,-956.6 1223.32,-956.6"/>
<polygon fill="#78eb0c" stroke="#78eb0c" points="1233.6,-525.326 1235.29,-514.49 1232.28,-520.505 1230.95,-515.685 1230.95,-515.685 1230.95,-515.685 1232.28,-520.505 1226.61,-516.879 1233.6,-525.326 1233.6,-525.326"/>
<text text-anchor="middle" x="1318.28" y="-771.8" font-family="Times,serif" font-size="14.00">government_people</text>
</g>
<!-- InfluenceOfficePerson -->
<g id="node8" class="node"><title>InfluenceOfficePerson</title>
<path fill="none" stroke="black" d="M965.825,-194.5C965.825,-194.5 1189.55,-194.5 1189.55,-194.5 1195.55,-194.5 1201.55,-200.5 1201.55,-206.5 1201.55,-206.5 1201.55,-310.5 1201.55,-310.5 1201.55,-316.5 1195.55,-322.5 1189.55,-322.5 1189.55,-322.5 965.825,-322.5 965.825,-322.5 959.825,-322.5 953.825,-316.5 953.825,-310.5 953.825,-310.5 953.825,-206.5 953.825,-206.5 953.825,-200.5 959.825,-194.5 965.825,-194.5"/>
<text text-anchor="middle" x="1077.69" y="-307.3" font-family="Times,serif" font-size="14.00">InfluenceOfficePerson</text>
<polyline fill="none" stroke="black" points="953.825,-300.5 1201.55,-300.5 "/>
<text text-anchor="start" x="961.825" y="-285.3" font-family="Times,serif" font-size="14.00">person_id :integer</text>
<text text-anchor="start" x="961.825" y="-271.3" font-family="Times,serif" font-size="14.00">means_of_influence_id :integer</text>
<text text-anchor="start" x="961.825" y="-257.3" font-family="Times,serif" font-size="14.00">office_id :integer</text>
<text text-anchor="start" x="961.825" y="-243.3" font-family="Times,serif" font-size="14.00">id :integer</text>
<text text-anchor="start" x="961.825" y="-229.3" font-family="Times,serif" font-size="14.00">created_at :timestamp without time zone</text>
<text text-anchor="start" x="961.825" y="-215.3" font-family="Times,serif" font-size="14.00">updated_at :timestamp without time zone</text>
<text text-anchor="start" x="961.825" y="-201.3" font-family="Times,serif" font-size="14.00">type :character varying</text>
</g>
<!-- MeansOfInfluence -->
<g id="node10" class="node"><title>MeansOfInfluence</title>
<path fill="none" stroke="black" d="M675.825,-1340.5C675.825,-1340.5 899.55,-1340.5 899.55,-1340.5 905.55,-1340.5 911.55,-1346.5 911.55,-1352.5 911.55,-1352.5 911.55,-1512.5 911.55,-1512.5 911.55,-1518.5 905.55,-1524.5 899.55,-1524.5 899.55,-1524.5 675.825,-1524.5 675.825,-1524.5 669.825,-1524.5 663.825,-1518.5 663.825,-1512.5 663.825,-1512.5 663.825,-1352.5 663.825,-1352.5 663.825,-1346.5 669.825,-1340.5 675.825,-1340.5"/>
<text text-anchor="middle" x="787.688" y="-1509.3" font-family="Times,serif" font-size="14.00">MeansOfInfluence</text>
<polyline fill="none" stroke="black" points="663.825,-1502.5 911.55,-1502.5 "/>
<text text-anchor="start" x="671.825" y="-1487.3" font-family="Times,serif" font-size="14.00">updated_at :timestamp without time zone</text>
<text text-anchor="start" x="671.825" y="-1473.3" font-family="Times,serif" font-size="14.00">type :character varying</text>
<text text-anchor="start" x="671.825" y="-1459.3" font-family="Times,serif" font-size="14.00">day :integer</text>
<text text-anchor="start" x="671.825" y="-1445.3" font-family="Times,serif" font-size="14.00">month :integer</text>
<text text-anchor="start" x="671.825" y="-1431.3" font-family="Times,serif" font-size="14.00">year :integer</text>
<text text-anchor="start" x="671.825" y="-1417.3" font-family="Times,serif" font-size="14.00">purpose :character varying</text>
<text text-anchor="start" x="671.825" y="-1403.3" font-family="Times,serif" font-size="14.00">type_of_hospitality :character varying</text>
<text text-anchor="start" x="671.825" y="-1389.3" font-family="Times,serif" font-size="14.00">gift :character varying</text>
<text text-anchor="start" x="671.825" y="-1375.3" font-family="Times,serif" font-size="14.00">value :integer</text>
<text text-anchor="start" x="671.825" y="-1361.3" font-family="Times,serif" font-size="14.00">created_at :timestamp without time zone</text>
<text text-anchor="start" x="671.825" y="-1347.3" font-family="Times,serif" font-size="14.00">id :integer</text>
</g>
<!-- MeansOfInfluence&#45;&gt;GovernmentOffice -->
<g id="edge21" class="edge"><title>MeansOfInfluence&#45;&gt;GovernmentOffice</title>
<path fill="none" stroke="#63b31c" d="M921.163,-1374.86C974.922,-1352.05 1036.8,-1325.8 1090.52,-1303"/>
<polygon fill="#63b31c" stroke="#63b31c" points="920.958,-1374.95 909.995,-1374.72 916.356,-1376.9 911.753,-1378.86 911.753,-1378.86 911.753,-1378.86 916.356,-1376.9 913.511,-1383 920.958,-1374.95 920.958,-1374.95"/>
<polygon fill="#63b31c" stroke="#63b31c" points="1090.56,-1302.99 1101.52,-1303.23 1095.16,-1301.04 1099.76,-1299.08 1099.76,-1299.08 1099.76,-1299.08 1095.16,-1301.04 1098,-1294.94 1090.56,-1302.99 1090.56,-1302.99"/>
</g>
<!-- MeansOfInfluence&#45;&gt;InfluenceGovernmentOfficePerson -->
<g id="edge16" class="edge"><title>MeansOfInfluence&#45;&gt;InfluenceGovernmentOfficePerson</title>
<path fill="none" stroke="#f227e9" d="M794.106,-1332.04C793.739,-1328.31 793.271,-1324.62 792.688,-1321 764.808,-1147.96 694.053,-1120.79 664.688,-948 634.663,-771.326 722.966,-279.453 861.688,-166 938.795,-102.938 1212.14,-79.1743 1379.44,-70.4197"/>
<ellipse fill="none" stroke="#f227e9" cx="794.44" cy="-1336.29" rx="4" ry="4"/>
<polygon fill="#f227e9" stroke="#f227e9" points="1379.57,-70.4131 1389.79,-74.3959 1384.57,-70.1574 1389.56,-69.9018 1389.56,-69.9018 1389.56,-69.9018 1384.57,-70.1574 1389.33,-65.4076 1379.57,-70.4131 1379.57,-70.4131"/>
</g>
<!-- MeansOfInfluence&#45;&gt;InfluenceOrganisationPerson -->
<g id="edge17" class="edge"><title>MeansOfInfluence&#45;&gt;InfluenceOrganisationPerson</title>
<path fill="none" stroke="#6178d9" d="M657.178,-1340.05C616.791,-1306.92 582.688,-1271.53 582.688,-1246.5 582.688,-1246.5 582.688,-1246.5 582.688,-257.5 582.688,-204.961 593.636,-189.381 624.688,-147 627.376,-143.331 630.27,-139.739 633.322,-136.235"/>
<ellipse fill="none" stroke="#6178d9" cx="660.602" cy="-1342.83" rx="4.00002" ry="4.00002"/>
<polygon fill="#6178d9" stroke="#6178d9" points="633.473,-136.071 643.552,-131.75 636.855,-132.388 640.238,-128.706 640.238,-128.706 640.238,-128.706 636.855,-132.388 636.924,-125.662 633.473,-136.071 633.473,-136.071"/>
</g>
<!-- MeansOfInfluence&#45;&gt;Organisation -->
<g id="edge18" class="edge"><title>MeansOfInfluence&#45;&gt;Organisation</title>
<path fill="none" stroke="#ed83cb" d="M828.414,-1330.83C865.067,-1234.43 916.213,-1083.96 936.688,-948 937.826,-940.442 937.148,-932.908 935.235,-925.606"/>
<polygon fill="#ed83cb" stroke="#ed83cb" points="828.373,-1330.94 820.599,-1338.67 826.588,-1335.61 824.802,-1340.28 824.802,-1340.28 824.802,-1340.28 826.588,-1335.61 829.006,-1341.88 828.373,-1330.94 828.373,-1330.94"/>
<polygon fill="#ed83cb" stroke="#ed83cb" points="935.126,-925.284 936.179,-914.369 933.521,-920.549 931.917,-915.813 931.917,-915.813 931.917,-915.813 933.521,-920.549 927.655,-917.257 935.126,-925.284 935.126,-925.284"/>
</g>
<!-- MeansOfInfluence&#45;&gt;Person -->
<g id="edge19" class="edge"><title>MeansOfInfluence&#45;&gt;Person</title>
<path fill="none" stroke="#bab86c" d="M756.771,-1330.51C756.05,-1327.65 755.353,-1324.81 754.688,-1322 697.889,-1082.4 645.452,-1003.47 720.688,-769 757.422,-654.518 745.935,-585.267 854.688,-534 924.097,-501.28 1007.83,-482.836 1076.65,-472.488"/>
<polygon fill="#bab86c" stroke="#bab86c" points="756.801,-1330.63 754.957,-1341.44 758.057,-1335.47 759.312,-1340.31 759.312,-1340.31 759.312,-1340.31 758.057,-1335.47 763.668,-1339.18 756.801,-1330.63 756.801,-1330.63"/>
<polygon fill="#bab86c" stroke="#bab86c" points="1076.79,-472.467 1087.34,-475.472 1081.74,-471.743 1086.69,-471.019 1086.69,-471.019 1086.69,-471.019 1081.74,-471.743 1086.04,-466.567 1076.79,-472.467 1076.79,-472.467"/>
<text text-anchor="middle" x="741.327" y="-936.8" font-family="Times,serif" font-size="14.00">organisation_people</text>
</g>
<!-- MeansOfInfluence&#45;&gt;Person -->
<g id="edge20" class="edge"><title>MeansOfInfluence&#45;&gt;Person</title>
<path fill="none" stroke="#80dec1" d="M792.031,-1330.27C797.961,-1187.16 807.253,-942.03 801.688,-934 788.71,-915.273 766.665,-934.727 753.688,-916 724.575,-873.99 740.751,-850.447 753.688,-801 757.478,-786.513 876.551,-577.864 885.688,-566 898.154,-549.814 900.612,-543.521 918.688,-534 954.394,-515.193 968.445,-525.417 1007.69,-516 1030.18,-510.604 1053.94,-504.427 1076.97,-498.184"/>
<polygon fill="#80dec1" stroke="#80dec1" points="792.026,-1330.4 787.114,-1340.2 791.818,-1335.4 791.61,-1340.39 791.61,-1340.39 791.61,-1340.39 791.818,-1335.4 796.106,-1340.58 792.026,-1330.4 792.026,-1330.4"/>
<polygon fill="#80dec1" stroke="#80dec1" points="1077.14,-498.137 1087.98,-499.849 1081.97,-496.822 1086.79,-495.507 1086.79,-495.507 1086.79,-495.507 1081.97,-496.822 1085.61,-491.166 1077.14,-498.137 1077.14,-498.137"/>
<text text-anchor="middle" x="858.281" y="-936.8" font-family="Times,serif" font-size="14.00">government_people</text>
</g>
<!-- Meeting&#45;&gt;InfluenceGovernmentOfficePerson -->
<g id="edge22" class="edge"><title>Meeting&#45;&gt;InfluenceGovernmentOfficePerson</title>
<path fill="none" stroke="#bb5680" d="M1429.76,-160.288C1436.92,-152.197 1444.08,-144.118 1451.02,-136.281"/>
<ellipse fill="none" stroke="#bb5680" cx="1427.11" cy="-163.285" rx="4.00002" ry="4.00002"/>
<polygon fill="#bb5680" stroke="#bb5680" points="1451.25,-136.019 1461.25,-131.515 1454.56,-132.276 1457.88,-128.532 1457.88,-128.532 1457.88,-128.532 1454.56,-132.276 1454.51,-125.549 1451.25,-136.019 1451.25,-136.019"/>
</g>
<!-- Meeting&#45;&gt;InfluenceOrganisationPerson -->
<g id="edge23" class="edge"><title>Meeting&#45;&gt;InfluenceOrganisationPerson</title>
<path fill="none" stroke="#044562" d="M1212.08,-166.599C1211.61,-166.398 1211.15,-166.198 1210.69,-166 1098.28,-117.96 961.083,-92.2486 861.677,-78.9004"/>
<ellipse fill="none" stroke="#044562" cx="1215.94" cy="-168.35" rx="4.00002" ry="4.00002"/>
<polygon fill="#044562" stroke="#044562" points="861.485,-78.8752 852.159,-73.107 856.528,-78.2218 851.571,-77.5684 851.571,-77.5684 851.571,-77.5684 856.528,-78.2218 850.983,-82.0298 861.485,-78.8752 861.485,-78.8752"/>
</g>
<!-- Meeting&#45;&gt;Organisation -->
<g id="edge24" class="edge"><title>Meeting&#45;&gt;Organisation</title>
<path fill="none" stroke="#ba4c22" d="M1210.97,-350.854C1210.87,-350.903 1210.78,-350.951 1210.69,-351 1154.71,-380.223 1132.23,-369.179 1077.69,-401 884.133,-513.911 902.42,-526.467 885.688,-566 855.043,-638.402 861.96,-730.278 872.135,-791.33"/>
<polygon fill="#ba4c22" stroke="#ba4c22" points="1210.86,-350.913 1221.8,-350.137 1215.26,-348.544 1219.66,-346.174 1219.66,-346.174 1219.66,-346.174 1215.26,-348.544 1217.53,-342.212 1210.86,-350.913 1210.86,-350.913"/>
<polygon fill="#ba4c22" stroke="#ba4c22" points="872.144,-791.379 869.426,-802.003 873.001,-796.305 873.859,-801.231 873.859,-801.231 873.859,-801.231 873.001,-796.305 878.292,-800.459 872.144,-791.379 872.144,-791.379"/>
</g>
<!-- Meeting&#45;&gt;Person -->
<g id="edge25" class="edge"><title>Meeting&#45;&gt;Person</title>
<path fill="none" stroke="#39d50c" d="M1233.33,-359.058C1231.23,-362.325 1229.25,-365.641 1227.41,-369 1223.56,-376.02 1220.59,-383.771 1218.29,-391.68"/>
<polygon fill="#39d50c" stroke="#39d50c" points="1233.51,-358.788 1242.87,-353.066 1236.33,-354.658 1239.15,-350.529 1239.15,-350.529 1239.15,-350.529 1236.33,-354.658 1235.43,-347.992 1233.51,-358.788 1233.51,-358.788"/>
<polygon fill="#39d50c" stroke="#39d50c" points="1218.29,-391.68 1211.44,-400.249 1217.05,-396.524 1215.8,-401.367 1215.8,-401.367 1215.8,-401.367 1217.05,-396.524 1220.16,-402.485 1218.29,-391.68 1218.29,-391.68"/>
<text text-anchor="middle" x="1283.33" y="-371.8" font-family="Times,serif" font-size="14.00">organisation_people</text>
</g>
<!-- Meeting&#45;&gt;Person -->
<g id="edge26" class="edge"><title>Meeting&#45;&gt;Person</title>
<path fill="none" stroke="#8253ba" d="M1349.95,-360.391C1347.86,-368.34 1344.86,-375.992 1340.69,-383 1338.48,-386.708 1336.01,-390.249 1333.32,-393.628"/>
<polygon fill="#8253ba" stroke="#8253ba" points="1349.96,-360.348 1356.45,-351.512 1351,-355.459 1352.05,-350.57 1352.05,-350.57 1352.05,-350.57 1351,-355.459 1347.65,-349.627 1349.96,-360.348 1349.96,-360.348"/>
<polygon fill="#8253ba" stroke="#8253ba" points="1333.27,-393.694 1323.29,-398.259 1329.97,-397.458 1326.68,-401.221 1326.68,-401.221 1326.68,-401.221 1329.97,-397.458 1330.07,-404.184 1333.27,-393.694 1333.27,-393.694"/>
<text text-anchor="middle" x="1401.28" y="-371.8" font-family="Times,serif" font-size="14.00">government_people</text>
</g>
<!-- Organisation&#45;&gt;InfluenceOrganisationPerson -->
<g id="edge27" class="edge"><title>Organisation&#45;&gt;InfluenceOrganisationPerson</title>
<path fill="none" stroke="#18ebd0" d="M862.718,-793.681C828.084,-698.663 764.697,-513.71 732.688,-351 715.111,-261.653 705.952,-237.73 713.688,-147 713.92,-144.278 714.195,-141.51 714.505,-138.718"/>
<ellipse fill="none" stroke="#18ebd0" cx="864.196" cy="-797.722" rx="4.00001" ry="4.00001"/>
<polygon fill="#18ebd0" stroke="#18ebd0" points="714.536,-138.468 720.234,-129.098 715.152,-133.506 715.768,-128.544 715.768,-128.544 715.768,-128.544 715.152,-133.506 711.303,-127.989 714.536,-138.468 714.536,-138.468"/>
</g>
<!-- Organisation&#45;&gt;Travel -->
<g id="edge28" class="edge"><title>Organisation&#45;&gt;Travel</title>
<path fill="none" stroke="#7da52e" d="M929.938,-792.624C937.066,-781.933 944.596,-770.637 952.136,-759.327"/>
<polygon fill="#7da52e" stroke="#7da52e" points="929.708,-792.97 920.416,-798.795 926.934,-797.131 924.161,-801.291 924.161,-801.291 924.161,-801.291 926.934,-797.131 927.905,-803.787 929.708,-792.97 929.708,-792.97"/>
<polygon fill="#7da52e" stroke="#7da52e" points="952.351,-759.006 961.642,-753.181 955.124,-754.846 957.898,-750.685 957.898,-750.685 957.898,-750.685 955.124,-754.846 954.153,-748.189 952.351,-759.006 952.351,-759.006"/>
</g>
<!-- Person&#45;&gt;Gift -->
<g id="edge32" class="edge"><title>Person&#45;&gt;Gift</title>
<path fill="none" stroke="#abb10a" d="M1333.25,-521.917C1350.55,-534.698 1366.8,-549.404 1379.69,-566 1488.11,-705.64 1496.49,-760.551 1530.69,-934 1558.19,-1073.5 1499.25,-1231.35 1450.52,-1331.12"/>
<polygon fill="#abb10a" stroke="#abb10a" points="1332.82,-521.61 1327.29,-512.136 1328.75,-518.704 1324.68,-515.798 1324.68,-515.798 1324.68,-515.798 1328.75,-518.704 1322.06,-519.46 1332.82,-521.61 1332.82,-521.61"/>
<polygon fill="#abb10a" stroke="#abb10a" points="1450.42,-1331.33 1441.96,-1338.3 1448.21,-1335.81 1445.99,-1340.29 1445.99,-1340.29 1445.99,-1340.29 1448.21,-1335.81 1450.02,-1342.29 1450.42,-1331.33 1450.42,-1331.33"/>
</g>
<!-- Person&#45;&gt;Hospitality -->
<g id="edge31" class="edge"><title>Person&#45;&gt;Hospitality</title>
<path fill="none" stroke="#83e156" d="M1201.06,-525.726C1199.71,-533.262 1198.25,-540.813 1196.69,-548 1194.93,-556.114 1193.68,-557.939 1191.69,-566 1171.53,-647.672 1179.61,-671.646 1151.69,-751 1148.72,-759.437 1144.74,-760.295 1142.69,-769 1141.26,-775.056 1142.62,-776.778 1142.69,-783 1143.35,-842.122 1135.96,-857.679 1145.69,-916 1147.91,-929.3 1151.1,-943.072 1154.77,-956.567"/>
<polygon fill="#83e156" stroke="#83e156" points="1201.06,-525.715 1207.19,-516.625 1201.91,-520.788 1202.76,-515.86 1202.76,-515.86 1202.76,-515.86 1201.91,-520.788 1198.33,-515.095 1201.06,-525.715 1201.06,-525.715"/>
<polygon fill="#83e156" stroke="#83e156" points="1154.81,-956.71 1153.19,-967.556 1156.16,-961.523 1157.52,-966.335 1157.52,-966.335 1157.52,-966.335 1156.16,-961.523 1161.85,-965.115 1154.81,-956.71 1154.81,-956.71"/>
</g>
<!-- Person&#45;&gt;InfluenceOfficePerson -->
<g id="edge29" class="edge"><title>Person&#45;&gt;InfluenceOfficePerson</title>
<path fill="none" stroke="#d975ba" d="M1168.43,-394.597C1154.91,-374.456 1139.82,-352.004 1125.9,-331.278"/>
<ellipse fill="none" stroke="#d975ba" cx="1170.7" cy="-397.97" rx="4.00002" ry="4.00002"/>
<polygon fill="#d975ba" stroke="#d975ba" points="1125.8,-331.122 1123.96,-320.311 1123.01,-326.971 1120.22,-322.821 1120.22,-322.821 1120.22,-322.821 1123.01,-326.971 1116.49,-325.33 1125.8,-331.122 1125.8,-331.122"/>
</g>
<!-- Person&#45;&gt;Meeting -->
<g id="edge30" class="edge"><title>Person&#45;&gt;Meeting</title>
<path fill="none" stroke="#eddf16" d="M1209.35,-391.479C1210.86,-383.65 1213.2,-375.974 1216.69,-369 1218.38,-365.611 1220.23,-362.283 1222.22,-359.019"/>
<polygon fill="#eddf16" stroke="#eddf16" points="1209.34,-391.546 1203.4,-400.765 1208.59,-396.491 1207.85,-401.435 1207.85,-401.435 1207.85,-401.435 1208.59,-396.491 1212.3,-402.105 1209.34,-391.546 1209.34,-391.546"/>
<polygon fill="#eddf16" stroke="#eddf16" points="1222.3,-358.896 1231.54,-352.997 1225.04,-354.714 1227.78,-350.531 1227.78,-350.531 1227.78,-350.531 1225.04,-354.714 1224.01,-348.065 1222.3,-358.896 1222.3,-358.896"/>
</g>
<!-- Person&#45;&gt;Travel -->
<g id="edge33" class="edge"><title>Person&#45;&gt;Travel</title>
<path fill="none" stroke="#2934eb" d="M1076.44,-479.177C1013.64,-491.403 948.531,-509.51 929.688,-534 924.141,-541.209 921.694,-548.712 921.614,-556.3"/>
<polygon fill="#2934eb" stroke="#2934eb" points="1076.67,-479.133 1087.33,-481.685 1081.58,-478.199 1086.49,-477.265 1086.49,-477.265 1086.49,-477.265 1081.58,-478.199 1085.65,-472.844 1076.67,-479.133 1076.67,-479.133"/>
<polygon fill="#2934eb" stroke="#2934eb" points="921.623,-556.376 918.343,-566.84 922.217,-561.341 922.811,-566.305 922.811,-566.305 922.811,-566.305 922.217,-561.341 927.279,-565.771 921.623,-556.376 921.623,-556.376"/>
</g>
<!-- Travel&#45;&gt;InfluenceGovernmentOfficePerson -->
<g id="edge34" class="edge"><title>Travel&#45;&gt;InfluenceGovernmentOfficePerson</title>
<path fill="none" stroke="#040dbd" d="M923.542,-558.962C921.753,-555.362 920.125,-551.705 918.688,-548 857.145,-389.348 830.794,-292.437 944.688,-166 1001.25,-103.205 1229.87,-79.5336 1379.54,-70.6884"/>
<ellipse fill="none" stroke="#040dbd" cx="925.555" cy="-562.741" rx="4.00002" ry="4.00002"/>
<polygon fill="#040dbd" stroke="#040dbd" points="1379.75,-70.6767 1389.99,-74.5945 1384.74,-70.3893 1389.73,-70.1019 1389.73,-70.1019 1389.73,-70.1019 1384.74,-70.3893 1389.47,-65.6093 1379.75,-70.6767 1379.75,-70.6767"/>
</g>
<!-- Travel&#45;&gt;InfluenceOrganisationPerson -->
<g id="edge35" class="edge"><title>Travel&#45;&gt;InfluenceOrganisationPerson</title>
<path fill="none" stroke="#65d584" d="M889.07,-562.343C884.724,-557.665 880.575,-552.879 876.688,-548 779.501,-426.026 745.435,-240.585 733.694,-138.779"/>
<ellipse fill="none" stroke="#65d584" cx="891.912" cy="-565.317" rx="4.00002" ry="4.00002"/>
<polygon fill="#65d584" stroke="#65d584" points="733.666,-138.531 737.034,-128.095 733.114,-133.561 732.562,-128.592 732.562,-128.592 732.562,-128.592 733.114,-133.561 728.089,-129.089 733.666,-138.531 733.666,-138.531"/>
</g>
<!-- Travel&#45;&gt;Person -->
<g id="edge36" class="edge"><title>Travel&#45;&gt;Person</title>
<path fill="none" stroke="#32dbac" d="M1064.36,-557.837C1070.16,-549.327 1076.52,-541.224 1083.41,-534 1087.28,-529.948 1091.41,-526.044 1095.74,-522.294"/>
<polygon fill="#32dbac" stroke="#32dbac" points="1064.19,-558.088 1054.96,-564.009 1061.46,-562.277 1058.73,-566.466 1058.73,-566.466 1058.73,-566.466 1061.46,-562.277 1062.5,-568.923 1064.19,-558.088 1064.19,-558.088"/>
<polygon fill="#32dbac" stroke="#32dbac" points="1096.01,-522.07 1106.59,-519.18 1099.87,-518.889 1103.73,-515.708 1103.73,-515.708 1103.73,-515.708 1099.87,-518.889 1100.86,-512.236 1096.01,-522.07 1096.01,-522.07"/>
<text text-anchor="middle" x="1139.33" y="-536.8" font-family="Times,serif" font-size="14.00">organisation_people</text>
</g>
<!-- Travel&#45;&gt;Person -->
<g id="edge37" class="edge"><title>Travel&#45;&gt;Person</title>
<path fill="none" stroke="#73ed10" d="M949.352,-556.021C949.82,-548.361 952.319,-540.927 957.501,-534 973.037,-513.234 1024.34,-496.265 1076.74,-483.797"/>
<polygon fill="#73ed10" stroke="#73ed10" points="949.361,-556.208 945.355,-566.416 949.605,-561.202 949.85,-566.196 949.85,-566.196 949.85,-566.196 949.605,-561.202 954.344,-565.976 949.361,-556.208 949.361,-556.208"/>
<polygon fill="#73ed10" stroke="#73ed10" points="1076.79,-483.785 1087.55,-485.904 1081.66,-482.653 1086.53,-481.521 1086.53,-481.521 1086.53,-481.521 1081.66,-482.653 1085.51,-477.138 1076.79,-483.785 1076.79,-483.785"/>
<text text-anchor="middle" x="1012.28" y="-536.8" font-family="Times,serif" font-size="14.00">government_people</text>
</g>
</g>
</svg>
