<?xml version="1.0" encoding="UTF-8" standalone="no"?>
<!DOCTYPE svg PUBLIC "-//W3C//DTD SVG 1.1//EN"
 "http://www.w3.org/Graphics/SVG/1.1/DTD/svg11.dtd">
<!-- Generated by graphviz version 2.38.0 (20140413.2041)
 -->
<!-- Title: models_diagram Pages: 1 -->
<svg width="1375pt" height="644pt"
 viewBox="0.00 0.00 1374.69 644.00" xmlns="http://www.w3.org/2000/svg" xmlns:xlink="http://www.w3.org/1999/xlink">
<g id="graph0" class="graph" transform="scale(1 1) rotate(0) translate(4 640)">
<title>models_diagram</title>
<polygon fill="none" stroke="none" points="-4,4 -4,-640 1370.69,-640 1370.69,4 -4,4"/>
<!-- _diagram_info -->
<g id="node1" class="node"><title>_diagram_info</title>
<text text-anchor="start" x="8" y="-621.6" font-family="Times,serif" font-size="13.00">Models diagram</text>
<text text-anchor="start" x="8" y="-608.6" font-family="Times,serif" font-size="13.00">Date: Oct 06 2016 &#45; 08:08</text>
<text text-anchor="start" x="8" y="-595.6" font-family="Times,serif" font-size="13.00">Migration version: 20161004124950</text>
<text text-anchor="start" x="8" y="-582.6" font-family="Times,serif" font-size="13.00">Generated by RailRoady 1.5.2</text>
<text text-anchor="start" x="8" y="-569.6" font-family="Times,serif" font-size="13.00">http://railroady.prestonlee.com</text>
</g>
<!-- ApplicationRecord -->
<g id="node2" class="node"><title>ApplicationRecord</title>
<ellipse fill="none" stroke="black" cx="302.688" cy="-599.5" rx="77.2916" ry="18"/>
<text text-anchor="middle" x="302.688" y="-595.3" font-family="Times,serif" font-size="14.00">ApplicationRecord</text>
</g>
<!-- Entity -->
<g id="node3" class="node"><title>Entity</title>
<ellipse fill="none" stroke="black" cx="429.688" cy="-599.5" rx="31.948" ry="18"/>
<text text-anchor="middle" x="429.688" y="-595.3" font-family="Times,serif" font-size="14.00">Entity</text>
</g>
<!-- Gift -->
<g id="node4" class="node"><title>Gift</title>
<ellipse fill="none" stroke="black" cx="1114.69" cy="-599.5" rx="27" ry="18"/>
<text text-anchor="middle" x="1114.69" y="-595.3" font-family="Times,serif" font-size="14.00">Gift</text>
</g>
<!-- GovernmentOffice -->
<g id="node5" class="node"><title>GovernmentOffice</title>
<ellipse fill="none" stroke="black" cx="952.688" cy="-508" rx="76.3226" ry="18"/>
<text text-anchor="middle" x="952.688" y="-503.8" font-family="Times,serif" font-size="14.00">GovernmentOffice</text>
</g>
<!-- Gift&#45;&gt;GovernmentOffice -->
<g id="edge6" class="edge"><title>Gift&#45;&gt;GovernmentOffice</title>
<path fill="none" stroke="#0ea8c9" d="M1085.51,-582.381C1058.88,-567.668 1019.36,-545.836 990.355,-529.81"/>
<polygon fill="#0ea8c9" stroke="#0ea8c9" points="1085.74,-582.51 1092.32,-591.285 1090.12,-584.928 1094.5,-587.346 1094.5,-587.346 1094.5,-587.346 1090.12,-584.928 1096.67,-583.407 1085.74,-582.51 1085.74,-582.51"/>
<polygon fill="#0ea8c9" stroke="#0ea8c9" points="990.088,-529.663 983.511,-520.888 985.712,-527.245 981.335,-524.827 981.335,-524.827 981.335,-524.827 985.712,-527.245 979.159,-528.766 990.088,-529.663 990.088,-529.663"/>
</g>
<!-- InfluenceGovernmentOfficePerson -->
<g id="node7" class="node"><title>InfluenceGovernmentOfficePerson</title>
<ellipse fill="none" stroke="black" cx="1217.69" cy="-18" rx="133.277" ry="18"/>
<text text-anchor="middle" x="1217.69" y="-13.8" font-family="Times,serif" font-size="14.00">InfluenceGovernmentOfficePerson</text>
</g>
<!-- Gift&#45;&gt;InfluenceGovernmentOfficePerson -->
<g id="edge1" class="edge"><title>Gift&#45;&gt;InfluenceGovernmentOfficePerson</title>
<path fill="none" stroke="#b75e63" d="M1149.19,-593.637C1218.2,-582.938 1366.69,-554.618 1366.69,-509 1366.69,-509 1366.69,-509 1366.69,-90 1366.69,-61.9323 1344.87,-44.9489 1317.94,-34.6766"/>
<ellipse fill="none" stroke="#b75e63" cx="1145.13" cy="-594.253" rx="4.00001" ry="4.00001"/>
<polygon fill="#b75e63" stroke="#b75e63" points="1317.68,-34.5858 1309.7,-27.0633 1312.95,-32.9509 1308.23,-31.316 1308.23,-31.316 1308.23,-31.316 1312.95,-32.9509 1306.76,-35.5686 1317.68,-34.5858 1317.68,-34.5858"/>
</g>
<!-- InfluenceOrganisationPerson -->
<g id="node9" class="node"><title>InfluenceOrganisationPerson</title>
<ellipse fill="none" stroke="black" cx="494.688" cy="-18" rx="112.72" ry="18"/>
<text text-anchor="middle" x="494.688" y="-13.8" font-family="Times,serif" font-size="14.00">InfluenceOrganisationPerson</text>
</g>
<!-- Gift&#45;&gt;InfluenceOrganisationPerson -->
<g id="edge2" class="edge"><title>Gift&#45;&gt;InfluenceOrganisationPerson</title>
<path fill="none" stroke="#ec7e6d" d="M1080.81,-591.614C1024.62,-579.913 908.784,-554.616 812.688,-526 674.723,-484.917 644.923,-460.46 507.688,-417 479.11,-407.95 462.393,-421.589 442.688,-399 390.211,-338.845 418.688,-300.827 418.688,-221 418.688,-221 418.688,-221 418.688,-90 418.688,-69.0518 434.296,-52.5086 451.367,-40.6802"/>
<ellipse fill="none" stroke="#ec7e6d" cx="1085.07" cy="-592.496" rx="4.00001" ry="4.00001"/>
<polygon fill="#ec7e6d" stroke="#ec7e6d" points="451.392,-40.664 462.236,-39.0381 455.597,-37.9588 459.802,-35.2536 459.802,-35.2536 459.802,-35.2536 455.597,-37.9588 457.367,-31.4691 451.392,-40.664 451.392,-40.664"/>
</g>
<!-- Organisation -->
<g id="node12" class="node"><title>Organisation</title>
<ellipse fill="none" stroke="black" cx="690.688" cy="-349" rx="55.7654" ry="18"/>
<text text-anchor="middle" x="690.688" y="-344.8" font-family="Times,serif" font-size="14.00">Organisation</text>
</g>
<!-- Gift&#45;&gt;Organisation -->
<g id="edge3" class="edge"><title>Gift&#45;&gt;Organisation</title>
<path fill="none" stroke="#d88aca" d="M1078.42,-593.604C1028.19,-585.592 935.924,-566.351 867.688,-526 799.371,-485.601 738.211,-412.925 708.934,-374.832"/>
<polygon fill="#d88aca" stroke="#d88aca" points="1078.59,-593.63 1087.79,-599.595 1083.53,-594.388 1088.47,-595.147 1088.47,-595.147 1088.47,-595.147 1083.53,-594.388 1089.16,-590.699 1078.59,-593.63 1078.59,-593.63"/>
<polygon fill="#d88aca" stroke="#d88aca" points="708.894,-374.779 706.434,-364.092 705.871,-370.795 702.849,-366.812 702.849,-366.812 702.849,-366.812 705.871,-370.795 699.264,-369.532 708.894,-374.779 708.894,-374.779"/>
</g>
<!-- Person -->
<g id="node13" class="node"><title>Person</title>
<ellipse fill="none" stroke="black" cx="969.688" cy="-177" rx="34.3614" ry="18"/>
<text text-anchor="middle" x="969.688" y="-172.8" font-family="Times,serif" font-size="14.00">Person</text>
</g>
<!-- Gift&#45;&gt;Person -->
<g id="edge4" class="edge"><title>Gift&#45;&gt;Person</title>
<path fill="none" stroke="#b8b337" d="M1097.94,-574.495C1065.37,-526.433 998.274,-420.003 1017.41,-385 1047.56,-329.846 1157.69,-355.278 1129.69,-299 1103.87,-247.115 1044.02,-211.559 1005.28,-193.025"/>
<polygon fill="#b8b337" stroke="#b8b337" points="1098.13,-574.771 1100.07,-585.566 1100.96,-578.898 1103.78,-583.025 1103.78,-583.025 1103.78,-583.025 1100.96,-578.898 1107.49,-580.484 1098.13,-574.771 1098.13,-574.771"/>
<polygon fill="#b8b337" stroke="#b8b337" points="1004.99,-192.89 997.817,-184.598 1000.46,-190.785 995.923,-188.68 995.923,-188.68 995.923,-188.68 1000.46,-190.785 994.028,-192.761 1004.99,-192.89 1004.99,-192.89"/>
<text text-anchor="middle" x="1073.33" y="-387.8" font-family="Times,serif" font-size="14.00">organisation_people</text>
</g>
<!-- Gift&#45;&gt;Person -->
<g id="edge5" class="edge"><title>Gift&#45;&gt;Person</title>
<path fill="none" stroke="#aac550" d="M1119.91,-571.259C1131.74,-507.537 1158.59,-350.277 1145.69,-299 1133.03,-248.667 1113.24,-235.939 1066.69,-213 1048.12,-203.853 1026.55,-195.831 1008.46,-189.782"/>
<polygon fill="#aac550" stroke="#aac550" points="1119.86,-571.512 1113.6,-580.511 1118.94,-576.427 1118.02,-581.341 1118.02,-581.341 1118.02,-581.341 1118.94,-576.427 1122.44,-582.171 1119.86,-571.512 1119.86,-571.512"/>
<polygon fill="#aac550" stroke="#aac550" points="1008.32,-189.736 1000.22,-182.353 1003.57,-188.183 998.819,-186.63 998.819,-186.63 998.819,-186.63 1003.57,-188.183 997.421,-190.908 1008.32,-189.736 1008.32,-189.736"/>
<text text-anchor="middle" x="1201.28" y="-387.8" font-family="Times,serif" font-size="14.00">government_people</text>
</g>
<!-- Hospitality -->
<g id="node6" class="node"><title>Hospitality</title>
<ellipse fill="none" stroke="black" cx="888.688" cy="-435" rx="49.3205" ry="18"/>
<text text-anchor="middle" x="888.688" y="-430.8" font-family="Times,serif" font-size="14.00">Hospitality</text>
</g>
<!-- GovernmentOffice&#45;&gt;Hospitality -->
<g id="edge9" class="edge"><title>GovernmentOffice&#45;&gt;Hospitality</title>
<path fill="none" stroke="#601f1a" d="M930.595,-482.491C923.967,-475.138 916.71,-467.088 910.125,-459.782"/>
<polygon fill="#601f1a" stroke="#601f1a" points="930.825,-482.746 934.178,-493.187 934.173,-486.46 937.521,-490.174 937.521,-490.174 937.521,-490.174 934.173,-486.46 940.863,-487.161 930.825,-482.746 930.825,-482.746"/>
<polygon fill="#601f1a" stroke="#601f1a" points="910.001,-459.644 906.648,-449.204 906.653,-455.93 903.305,-452.217 903.305,-452.217 903.305,-452.217 906.653,-455.93 899.963,-455.229 910.001,-459.644 910.001,-459.644"/>
</g>
<!-- GovernmentOffice&#45;&gt;InfluenceGovernmentOfficePerson -->
<g id="edge7" class="edge"><title>GovernmentOffice&#45;&gt;InfluenceGovernmentOfficePerson</title>
<path fill="none" stroke="#a90756" d="M1024.54,-496.536C1072.44,-488.142 1136.19,-474.206 1189.69,-453 1233.76,-435.529 1244.48,-428.386 1281.69,-399 1305.37,-380.296 1328.69,-380.176 1328.69,-350 1328.69,-350 1328.69,-350 1328.69,-90 1328.69,-65.5715 1309.37,-49.1689 1286.86,-38.3469"/>
<ellipse fill="none" stroke="#a90756" cx="1020.33" cy="-497.26" rx="4.00001" ry="4.00001"/>
<polygon fill="#a90756" stroke="#a90756" points="1286.56,-38.2169 1279.23,-30.0672 1281.99,-36.2011 1277.41,-34.1853 1277.41,-34.1853 1277.41,-34.1853 1281.99,-36.2011 1275.6,-38.3033 1286.56,-38.2169 1286.56,-38.2169"/>
</g>
<!-- Meeting -->
<g id="node11" class="node"><title>Meeting</title>
<ellipse fill="none" stroke="black" cx="1023.69" cy="-91" rx="39.6558" ry="18"/>
<text text-anchor="middle" x="1023.69" y="-86.8" font-family="Times,serif" font-size="14.00">Meeting</text>
</g>
<!-- GovernmentOffice&#45;&gt;Meeting -->
<g id="edge8" class="edge"><title>GovernmentOffice&#45;&gt;Meeting</title>
<path fill="none" stroke="#2770dd" d="M1006.63,-490.296C1094.54,-462.821 1259.81,-410.024 1267.69,-399 1271.3,-393.937 1268.28,-391.194 1267.69,-385 1264.34,-349.857 1252.69,-342.302 1252.69,-307 1252.69,-307 1252.69,-307 1252.69,-176 1252.69,-147.604 1236.2,-141.332 1211.69,-127 1169.37,-102.259 1113.33,-94.4146 1073.47,-92.2061"/>
<polygon fill="#2770dd" stroke="#2770dd" points="1006.62,-490.297 995.736,-488.98 1001.85,-491.787 997.077,-493.276 997.077,-493.276 997.077,-493.276 1001.85,-491.787 998.417,-497.572 1006.62,-490.297 1006.62,-490.297"/>
<polygon fill="#2770dd" stroke="#2770dd" points="1073.44,-92.2047 1063.66,-87.2547 1068.45,-91.9774 1063.45,-91.75 1063.45,-91.75 1063.45,-91.75 1068.45,-91.9774 1063.25,-96.2454 1073.44,-92.2047 1073.44,-92.2047"/>
</g>
<!-- Travel -->
<g id="node14" class="node"><title>Travel</title>
<ellipse fill="none" stroke="black" cx="707.688" cy="-263" rx="32.7528" ry="18"/>
<text text-anchor="middle" x="707.688" y="-258.8" font-family="Times,serif" font-size="14.00">Travel</text>
</g>
<!-- GovernmentOffice&#45;&gt;Travel -->
<g id="edge10" class="edge"><title>GovernmentOffice&#45;&gt;Travel</title>
<path fill="none" stroke="#92906c" d="M896.136,-490.127C873.99,-481.548 849.452,-469.396 830.688,-453 782.759,-411.12 790.91,-384.014 755.688,-331 746.101,-316.571 734.847,-300.806 725.647,-288.195"/>
<polygon fill="#92906c" stroke="#92906c" points="896.407,-490.228 904.22,-497.923 901.096,-491.966 905.784,-493.704 905.784,-493.704 905.784,-493.704 901.096,-491.966 907.348,-489.484 896.407,-490.228 896.407,-490.228"/>
<polygon fill="#92906c" stroke="#92906c" points="725.567,-288.085 723.279,-277.361 722.609,-284.054 719.651,-280.023 719.651,-280.023 719.651,-280.023 722.609,-284.054 716.023,-282.685 725.567,-288.085 725.567,-288.085"/>
</g>
<!-- Hospitality&#45;&gt;InfluenceGovernmentOfficePerson -->
<g id="edge11" class="edge"><title>Hospitality&#45;&gt;InfluenceGovernmentOfficePerson</title>
<path fill="none" stroke="#67d1f7" d="M926.555,-417.368C950.201,-407.308 981.419,-394.612 1009.69,-385 1132.4,-343.274 1290.69,-436.611 1290.69,-307 1290.69,-307 1290.69,-307 1290.69,-90 1290.69,-69.6756 1275.97,-53.2873 1259.75,-41.3986"/>
<ellipse fill="none" stroke="#67d1f7" cx="922.835" cy="-418.96" rx="4.00002" ry="4.00002"/>
<polygon fill="#67d1f7" stroke="#67d1f7" points="1259.47,-41.2116 1253.72,-31.8716 1255.33,-38.4032 1251.2,-35.5947 1251.2,-35.5947 1251.2,-35.5947 1255.33,-38.4032 1248.67,-39.3178 1259.47,-41.2116 1259.47,-41.2116"/>
</g>
<!-- Hospitality&#45;&gt;InfluenceOrganisationPerson -->
<g id="edge12" class="edge"><title>Hospitality&#45;&gt;InfluenceOrganisationPerson</title>
<path fill="none" stroke="#979418" d="M863.711,-412.802C837.598,-391.091 795.02,-356.94 755.688,-331 717.489,-305.808 698.533,-312.859 665.688,-281 588.434,-206.066 604.824,-160.161 541.688,-73 534.357,-62.8796 525.534,-52.3788 517.523,-43.3577"/>
<ellipse fill="none" stroke="#979418" cx="866.913" cy="-415.477" rx="4.00002" ry="4.00002"/>
<polygon fill="#979418" stroke="#979418" points="517.451,-43.2789 514.088,-32.8415 514.1,-39.5684 510.749,-35.8578 510.749,-35.8578 510.749,-35.8578 514.1,-39.5684 507.409,-38.874 517.451,-43.2789 517.451,-43.2789"/>
</g>
<!-- Hospitality&#45;&gt;Organisation -->
<g id="edge13" class="edge"><title>Hospitality&#45;&gt;Organisation</title>
<path fill="none" stroke="#3529c9" d="M846.034,-417.965C830.999,-412.167 814.025,-405.456 798.688,-399 775.752,-389.346 750.401,-377.886 730.027,-368.477"/>
<polygon fill="#3529c9" stroke="#3529c9" points="846.261,-418.052 853.987,-425.833 850.93,-419.842 855.598,-421.632 855.598,-421.632 855.598,-421.632 850.93,-419.842 857.209,-417.43 846.261,-418.052 846.261,-418.052"/>
<polygon fill="#3529c9" stroke="#3529c9" points="729.824,-368.383 722.644,-360.094 725.288,-366.28 720.751,-364.176 720.751,-364.176 720.751,-364.176 725.288,-366.28 718.859,-368.259 729.824,-368.383 729.824,-368.383"/>
</g>
<!-- Hospitality&#45;&gt;Person -->
<g id="edge14" class="edge"><title>Hospitality&#45;&gt;Person</title>
<path fill="none" stroke="#2c8031" d="M880.534,-406.642C873.65,-378.154 867.369,-333.022 884.409,-299 908.338,-251.225 956.759,-274.775 980.688,-227 984.217,-219.954 983.883,-211.774 981.973,-204.141"/>
<polygon fill="#2c8031" stroke="#2c8031" points="880.63,-407.012 878.8,-417.824 881.892,-411.85 883.155,-416.688 883.155,-416.688 883.155,-416.688 881.892,-411.85 887.509,-415.552 880.63,-407.012 880.63,-407.012"/>
<polygon fill="#2c8031" stroke="#2c8031" points="981.939,-204.038 983.012,-193.125 980.343,-199.3 978.748,-194.561 978.748,-194.561 978.748,-194.561 980.343,-199.3 974.483,-195.997 981.939,-204.038 981.939,-204.038"/>
<text text-anchor="middle" x="940.327" y="-301.8" font-family="Times,serif" font-size="14.00">organisation_people</text>
</g>
<!-- Hospitality&#45;&gt;Person -->
<g id="edge15" class="edge"><title>Hospitality&#45;&gt;Person</title>
<path fill="none" stroke="#c2f5b0" d="M917.955,-412.21C944.488,-390.46 981.797,-354.382 997.688,-313 1004.68,-294.788 1035.85,-329.83 995.688,-213 994.369,-209.164 992.463,-205.399 990.273,-201.846"/>
<polygon fill="#c2f5b0" stroke="#c2f5b0" points="917.912,-412.244 907.292,-414.975 914.007,-415.367 910.102,-418.49 910.102,-418.49 910.102,-418.49 914.007,-415.367 912.913,-422.004 917.912,-412.244 917.912,-412.244"/>
<polygon fill="#c2f5b0" stroke="#c2f5b0" points="990.172,-201.702 988.099,-190.934 987.295,-197.612 984.419,-193.523 984.419,-193.523 984.419,-193.523 987.295,-197.612 980.738,-196.112 990.172,-201.702 990.172,-201.702"/>
<text text-anchor="middle" x="1070.28" y="-301.8" font-family="Times,serif" font-size="14.00">government_people</text>
</g>
<!-- InfluenceOfficePerson -->
<g id="node8" class="node"><title>InfluenceOfficePerson</title>
<ellipse fill="none" stroke="black" cx="876.688" cy="-91" rx="89.3687" ry="18"/>
<text text-anchor="middle" x="876.688" y="-86.8" font-family="Times,serif" font-size="14.00">InfluenceOfficePerson</text>
</g>
<!-- MeansOfInfluence -->
<g id="node10" class="node"><title>MeansOfInfluence</title>
<ellipse fill="none" stroke="black" cx="555.688" cy="-599.5" rx="75.838" ry="18"/>
<text text-anchor="middle" x="555.688" y="-595.3" font-family="Times,serif" font-size="14.00">MeansOfInfluence</text>
</g>
<!-- MeansOfInfluence&#45;&gt;GovernmentOffice -->
<g id="edge21" class="edge"><title>MeansOfInfluence&#45;&gt;GovernmentOffice</title>
<path fill="none" stroke="#b71a47" d="M618.947,-584.239C693.101,-567.521 815.264,-539.981 889.421,-523.263"/>
<polygon fill="#b71a47" stroke="#b71a47" points="618.572,-584.323 607.827,-582.133 613.695,-585.423 608.817,-586.522 608.817,-586.522 608.817,-586.522 613.695,-585.423 609.807,-590.912 618.572,-584.323 618.572,-584.323"/>
<polygon fill="#b71a47" stroke="#b71a47" points="889.801,-523.177 900.546,-525.368 894.679,-522.078 899.556,-520.978 899.556,-520.978 899.556,-520.978 894.679,-522.078 898.567,-516.588 889.801,-523.177 889.801,-523.177"/>
</g>
<!-- MeansOfInfluence&#45;&gt;InfluenceGovernmentOfficePerson -->
<g id="edge16" class="edge"><title>MeansOfInfluence&#45;&gt;InfluenceGovernmentOfficePerson</title>
<path fill="none" stroke="#89cd65" d="M562.688,-573.317C564.119,-563.856 564.259,-553.177 560.688,-544 528.973,-462.505 459.402,-480.495 427.688,-399 379.897,-276.197 446.262,-213.482 545.688,-127 623.541,-59.2817 907.927,-33.6953 1080.81,-24.272"/>
<ellipse fill="none" stroke="#89cd65" cx="561.916" cy="-577.321" rx="4.00001" ry="4.00001"/>
<polygon fill="#89cd65" stroke="#89cd65" points="1081.02,-24.2608 1091.25,-28.2214 1086.02,-23.9943 1091.01,-23.7278 1091.01,-23.7278 1091.01,-23.7278 1086.02,-23.9943 1090.77,-19.2342 1081.02,-24.2608 1081.02,-24.2608"/>
</g>
<!-- MeansOfInfluence&#45;&gt;InfluenceOrganisationPerson -->
<g id="edge17" class="edge"><title>MeansOfInfluence&#45;&gt;InfluenceOrganisationPerson</title>
<path fill="none" stroke="#41f7ee" d="M512.039,-580.225C452.919,-555.311 354.688,-513.273 354.688,-509 354.688,-509 354.688,-509 354.688,-90 354.688,-61.3529 378.292,-44.2607 406.117,-34.0643"/>
<ellipse fill="none" stroke="#41f7ee" cx="516.066" cy="-581.92" rx="4.00001" ry="4.00001"/>
<polygon fill="#41f7ee" stroke="#41f7ee" points="406.203,-34.0356 417.114,-35.1317 410.945,-32.4498 415.687,-30.864 415.687,-30.864 415.687,-30.864 410.945,-32.4498 414.259,-26.5963 406.203,-34.0356 406.203,-34.0356"/>
</g>
<!-- MeansOfInfluence&#45;&gt;Organisation -->
<g id="edge18" class="edge"><title>MeansOfInfluence&#45;&gt;Organisation</title>
<path fill="none" stroke="#9c3a4c" d="M580.671,-574.63C615.073,-539.84 675.414,-471.418 698.688,-399 700.946,-391.972 700.798,-384.163 699.601,-376.881"/>
<polygon fill="#9c3a4c" stroke="#9c3a4c" points="580.423,-574.877 570.162,-578.745 576.88,-578.405 573.338,-581.933 573.338,-581.933 573.338,-581.933 576.88,-578.405 576.513,-585.122 580.423,-574.877 580.423,-574.877"/>
<polygon fill="#9c3a4c" stroke="#9c3a4c" points="699.588,-376.822 701.738,-366.069 698.47,-371.949 697.352,-367.075 697.352,-367.075 697.352,-367.075 698.47,-371.949 692.966,-368.081 699.588,-376.822 699.588,-376.822"/>
</g>
<!-- MeansOfInfluence&#45;&gt;Person -->
<g id="edge19" class="edge"><title>MeansOfInfluence&#45;&gt;Person</title>
<path fill="none" stroke="#36a057" d="M529.671,-574.807C490.351,-535.971 423.209,-455.982 451.409,-385 490.213,-287.328 519.34,-259.303 613.688,-213 667.487,-186.597 842.501,-180.112 925.388,-178.519"/>
<polygon fill="#36a057" stroke="#36a057" points="529.936,-575.062 534.002,-585.247 533.532,-578.536 537.128,-582.01 537.128,-582.01 537.128,-582.01 533.532,-578.536 540.255,-578.774 529.936,-575.062 529.936,-575.062"/>
<polygon fill="#36a057" stroke="#36a057" points="925.503,-178.517 935.581,-182.839 930.502,-178.428 935.501,-178.34 935.501,-178.34 935.501,-178.34 930.502,-178.428 935.421,-173.841 925.503,-178.517 925.503,-178.517"/>
<text text-anchor="middle" x="507.327" y="-387.8" font-family="Times,serif" font-size="14.00">organisation_people</text>
</g>
<!-- MeansOfInfluence&#45;&gt;Person -->
<g id="edge20" class="edge"><title>MeansOfInfluence&#45;&gt;Person</title>
<path fill="none" stroke="#906dad" d="M554.368,-570.805C552.562,-496.693 559.34,-293.986 680.688,-213 690.771,-206.271 848.106,-189.965 926.282,-182.22"/>
<polygon fill="#906dad" stroke="#906dad" points="554.38,-571.173 550.202,-581.312 554.54,-576.17 554.7,-581.168 554.7,-581.168 554.7,-581.168 554.54,-576.17 559.197,-581.024 554.38,-571.173 554.38,-571.173"/>
<polygon fill="#906dad" stroke="#906dad" points="926.361,-182.212 936.755,-185.709 931.337,-181.721 936.313,-181.23 936.313,-181.23 936.313,-181.23 931.337,-181.721 935.871,-176.752 926.361,-182.212 926.361,-182.212"/>
<text text-anchor="middle" x="628.281" y="-387.8" font-family="Times,serif" font-size="14.00">government_people</text>
</g>
<!-- Meeting&#45;&gt;InfluenceGovernmentOfficePerson -->
<g id="edge22" class="edge"><title>Meeting&#45;&gt;InfluenceGovernmentOfficePerson</title>
<path fill="none" stroke="#7b9599" d="M1061.43,-76.1856C1090.71,-65.4697 1131.67,-50.4803 1164.31,-38.5361"/>
<ellipse fill="none" stroke="#7b9599" cx="1057.33" cy="-77.6871" rx="4.00001" ry="4.00001"/>
<polygon fill="#7b9599" stroke="#7b9599" points="1164.32,-38.532 1175.26,-39.3209 1169.01,-36.8135 1173.71,-35.0951 1173.71,-35.0951 1173.71,-35.0951 1169.01,-36.8135 1172.16,-30.8692 1164.32,-38.532 1164.32,-38.532"/>
</g>
<!-- Meeting&#45;&gt;InfluenceOrganisationPerson -->
<g id="edge23" class="edge"><title>Meeting&#45;&gt;InfluenceOrganisationPerson</title>
<path fill="none" stroke="#e6497d" d="M986.776,-76.225C982.733,-75.007 978.648,-73.8979 974.688,-73 852.257,-45.2379 708.874,-31.479 610.91,-24.8395"/>
<ellipse fill="none" stroke="#e6497d" cx="990.646" cy="-77.4591" rx="4.00001" ry="4.00001"/>
<polygon fill="#e6497d" stroke="#e6497d" points="610.661,-24.8231 600.98,-19.6709 605.672,-24.492 600.683,-24.161 600.683,-24.161 600.683,-24.161 605.672,-24.492 600.385,-28.6512 610.661,-24.8231 610.661,-24.8231"/>
</g>
<!-- Meeting&#45;&gt;Organisation -->
<g id="edge24" class="edge"><title>Meeting&#45;&gt;Organisation</title>
<path fill="none" stroke="#c7803e" d="M983.679,-105.89C893.833,-137.112 683.631,-210.335 680.688,-213 651.133,-239.759 665.139,-290.335 677.952,-321.412"/>
<polygon fill="#c7803e" stroke="#c7803e" points="983.813,-105.844 994.736,-106.813 988.536,-104.203 993.259,-102.562 993.259,-102.562 993.259,-102.562 988.536,-104.203 991.782,-98.3111 983.813,-105.844 983.813,-105.844"/>
<polygon fill="#c7803e" stroke="#c7803e" points="678.029,-321.59 677.886,-332.555 680.021,-326.176 682.013,-330.762 682.013,-330.762 682.013,-330.762 680.021,-326.176 686.141,-328.969 678.029,-321.59 678.029,-321.59"/>
</g>
<!-- Meeting&#45;&gt;Person -->
<g id="edge25" class="edge"><title>Meeting&#45;&gt;Person</title>
<path fill="none" stroke="#51b389" d="M992.668,-112.639C987.996,-116.91 983.661,-121.732 980.409,-127 976.43,-133.447 973.916,-141.171 972.333,-148.559"/>
<polygon fill="#51b389" stroke="#51b389" points="993.006,-112.359 1003.58,-109.46 996.861,-109.175 1000.72,-105.991 1000.72,-105.991 1000.72,-105.991 996.861,-109.175 997.851,-102.521 993.006,-112.359 993.006,-112.359"/>
<polygon fill="#51b389" stroke="#51b389" points="972.301,-148.75 966.218,-157.874 971.479,-153.682 970.657,-158.613 970.657,-158.613 970.657,-158.613 971.479,-153.682 975.096,-159.353 972.301,-148.75 972.301,-148.75"/>
<text text-anchor="middle" x="1036.33" y="-129.8" font-family="Times,serif" font-size="14.00">organisation_people</text>
</g>
<!-- Meeting&#45;&gt;Person -->
<g id="edge26" class="edge"><title>Meeting&#45;&gt;Person</title>
<path fill="none" stroke="#a6d314" d="M1066.29,-104.735C1087.07,-113.212 1105.33,-125.613 1093.69,-141 1083.73,-154.157 1044.07,-163.774 1012.24,-169.561"/>
<polygon fill="#a6d314" stroke="#a6d314" points="1066.02,-104.635 1058.24,-96.907 1061.34,-102.878 1056.66,-101.12 1056.66,-101.12 1056.66,-101.12 1061.34,-102.878 1055.08,-105.333 1066.02,-104.635 1066.02,-104.635"/>
<polygon fill="#a6d314" stroke="#a6d314" points="1012.09,-169.588 1001.46,-166.872 1007.16,-170.446 1002.23,-171.305 1002.23,-171.305 1002.23,-171.305 1007.16,-170.446 1003.01,-175.738 1012.09,-169.588 1012.09,-169.588"/>
<text text-anchor="middle" x="1152.28" y="-129.8" font-family="Times,serif" font-size="14.00">government_people</text>
</g>
<!-- Organisation&#45;&gt;InfluenceOrganisationPerson -->
<g id="edge27" class="edge"><title>Organisation&#45;&gt;InfluenceOrganisationPerson</title>
<path fill="none" stroke="#f6895a" d="M666.477,-326.172C618.745,-281.19 514.221,-172.494 480.688,-55 479.814,-51.939 479.746,-48.7754 480.214,-45.6525"/>
<ellipse fill="none" stroke="#f6895a" cx="669.627" cy="-329.111" rx="4.00002" ry="4.00002"/>
<polygon fill="#f6895a" stroke="#f6895a" points="480.249,-45.5418 487.509,-37.3236 481.73,-40.7662 483.211,-35.9906 483.211,-35.9906 483.211,-35.9906 481.73,-40.7662 478.913,-34.6575 480.249,-45.5418 480.249,-45.5418"/>
</g>
<!-- Organisation&#45;&gt;Travel -->
<g id="edge28" class="edge"><title>Organisation&#45;&gt;Travel</title>
<path fill="none" stroke="#58ba7a" d="M696.141,-321.055C698.097,-311.392 700.3,-300.504 702.254,-290.849"/>
<polygon fill="#58ba7a" stroke="#58ba7a" points="696.112,-321.2 689.717,-330.109 695.12,-326.101 694.128,-331.001 694.128,-331.001 694.128,-331.001 695.12,-326.101 698.539,-331.894 696.112,-321.2 696.112,-321.2"/>
<polygon fill="#58ba7a" stroke="#58ba7a" points="702.269,-290.775 708.663,-281.866 703.261,-285.874 704.253,-280.973 704.253,-280.973 704.253,-280.973 703.261,-285.874 699.842,-280.081 702.269,-290.775 702.269,-290.775"/>
</g>
<!-- Person&#45;&gt;Gift -->
<g id="edge32" class="edge"><title>Person&#45;&gt;Gift</title>
<path fill="none" stroke="#8e7617" d="M1010.95,-186.331C1035.62,-192.114 1067.2,-200.955 1093.69,-213 1190.68,-257.108 1224.14,-284.917 1260.69,-385 1290.41,-466.37 1192.42,-546.346 1142.33,-580.82"/>
<polygon fill="#8e7617" stroke="#8e7617" points="1010.94,-186.327 1002.18,-179.726 1006.06,-185.221 1001.18,-184.114 1001.18,-184.114 1001.18,-184.114 1006.06,-185.221 1000.19,-188.503 1010.94,-186.327 1010.94,-186.327"/>
<polygon fill="#8e7617" stroke="#8e7617" points="1142.15,-580.938 1131.35,-582.796 1138.01,-583.733 1133.86,-586.528 1133.86,-586.528 1133.86,-586.528 1138.01,-583.733 1136.38,-590.259 1142.15,-580.938 1142.15,-580.938"/>
</g>
<!-- Person&#45;&gt;Hospitality -->
<g id="edge31" class="edge"><title>Person&#45;&gt;Hospitality</title>
<path fill="none" stroke="#5bc505" d="M967.028,-204.897C965.018,-212.897 961.57,-221.093 955.688,-227 935.442,-247.332 914.535,-225.284 893.688,-245 875.203,-262.482 881.274,-274.425 874.688,-299 863.178,-341.949 859.707,-356.18 871.688,-399 872.516,-401.962 873.588,-404.978 874.79,-407.934"/>
<polygon fill="#5bc505" stroke="#5bc505" points="967.031,-204.882 973.302,-195.887 967.955,-199.969 968.879,-195.055 968.879,-195.055 968.879,-195.055 967.955,-199.969 964.457,-194.223 967.031,-204.882 967.031,-204.882"/>
<polygon fill="#5bc505" stroke="#5bc505" points="874.792,-407.937 874.841,-418.903 876.864,-412.487 878.936,-417.038 878.936,-417.038 878.936,-417.038 876.864,-412.487 883.031,-415.173 874.792,-407.937 874.792,-407.937"/>
</g>
<!-- Person&#45;&gt;InfluenceOfficePerson -->
<g id="edge29" class="edge"><title>Person&#45;&gt;InfluenceOfficePerson</title>
<path fill="none" stroke="#4a7191" d="M947.007,-155.514C933.674,-143.472 916.763,-128.197 902.866,-115.645"/>
<ellipse fill="none" stroke="#4a7191" cx="950.093" cy="-158.301" rx="4.00002" ry="4.00002"/>
<polygon fill="#4a7191" stroke="#4a7191" points="902.503,-115.317 898.099,-105.275 898.793,-111.966 895.082,-108.615 895.082,-108.615 895.082,-108.615 898.793,-111.966 892.066,-111.954 902.503,-115.317 902.503,-115.317"/>
</g>
<!-- Person&#45;&gt;Meeting -->
<g id="edge30" class="edge"><title>Person&#45;&gt;Meeting</title>
<path fill="none" stroke="#f20411" d="M965.067,-148.633C965.021,-141.245 966.153,-133.503 969.688,-127 973.589,-119.822 979.668,-113.889 986.361,-109.076"/>
<polygon fill="#f20411" stroke="#f20411" points="965.072,-148.701 961.299,-158.998 965.43,-153.688 965.788,-158.675 965.788,-158.675 965.788,-158.675 965.43,-153.688 970.276,-158.353 965.072,-148.701 965.072,-148.701"/>
<polygon fill="#f20411" stroke="#f20411" points="986.605,-108.921 997.46,-107.368 990.828,-106.244 995.051,-103.568 995.051,-103.568 995.051,-103.568 990.828,-106.244 992.642,-99.7668 986.605,-108.921 986.605,-108.921"/>
</g>
<!-- Person&#45;&gt;Travel -->
<g id="edge33" class="edge"><title>Person&#45;&gt;Travel</title>
<path fill="none" stroke="#d4ab56" d="M925.59,-180.335C850.43,-184.77 704.093,-195.557 688.688,-213 682.502,-220.004 684.307,-229.247 688.699,-237.817"/>
<polygon fill="#d4ab56" stroke="#d4ab56" points="925.719,-180.328 935.962,-184.244 930.711,-180.04 935.702,-179.752 935.702,-179.752 935.702,-179.752 930.711,-180.04 935.443,-175.259 925.719,-180.328 925.719,-180.328"/>
<polygon fill="#d4ab56" stroke="#d4ab56" points="688.733,-237.872 690.157,-248.745 691.359,-242.126 693.986,-246.381 693.986,-246.381 693.986,-246.381 691.359,-242.126 697.815,-244.017 688.733,-237.872 688.733,-237.872"/>
</g>
<!-- Travel&#45;&gt;InfluenceGovernmentOfficePerson -->
<g id="edge34" class="edge"><title>Travel&#45;&gt;InfluenceGovernmentOfficePerson</title>
<path fill="none" stroke="#46911c" d="M686.827,-240.29C681.359,-232.064 677.722,-222.408 680.688,-213 703.522,-140.562 713.591,-112.13 778.688,-73 828.11,-43.2921 970.637,-29.8558 1080.02,-23.824"/>
<ellipse fill="none" stroke="#46911c" cx="689.34" cy="-243.63" rx="4.00002" ry="4.00002"/>
<polygon fill="#46911c" stroke="#46911c" points="1080.17,-23.8157 1090.4,-27.774 1085.17,-23.5481 1090.16,-23.2805 1090.16,-23.2805 1090.16,-23.2805 1085.17,-23.5481 1089.92,-18.7869 1080.17,-23.8157 1080.17,-23.8157"/>
</g>
<!-- Travel&#45;&gt;InfluenceOrganisationPerson -->
<g id="edge35" class="edge"><title>Travel&#45;&gt;InfluenceOrganisationPerson</title>
<path fill="none" stroke="#f23b74" d="M673.677,-248.805C661.107,-243.092 647.143,-235.704 635.688,-227 570.752,-177.66 525.466,-89.4664 505.758,-45.4729"/>
<ellipse fill="none" stroke="#f23b74" cx="677.626" cy="-250.536" rx="4.00002" ry="4.00002"/>
<polygon fill="#f23b74" stroke="#f23b74" points="505.636,-45.1947 505.743,-34.2293 503.629,-40.6154 501.621,-36.0361 501.621,-36.0361 501.621,-36.0361 503.629,-40.6154 497.5,-37.8429 505.636,-45.1947 505.636,-45.1947"/>
</g>
<!-- Travel&#45;&gt;Person -->
<g id="edge36" class="edge"><title>Travel&#45;&gt;Person</title>
<path fill="none" stroke="#8f6a93" d="M747.361,-252.205C769.193,-246.175 796.483,-237.574 819.688,-227 830.482,-222.082 831.532,-217.731 842.409,-213 869.93,-201.029 902.601,-192.147 927.951,-186.326"/>
<polygon fill="#8f6a93" stroke="#8f6a93" points="747.093,-252.277 736.268,-250.528 742.265,-253.575 737.436,-254.874 737.436,-254.874 737.436,-254.874 742.265,-253.575 738.605,-259.219 747.093,-252.277 747.093,-252.277"/>
<polygon fill="#8f6a93" stroke="#8f6a93" points="928.219,-186.266 938.958,-188.486 933.099,-185.18 937.98,-184.094 937.98,-184.094 937.98,-184.094 933.099,-185.18 937.002,-179.701 928.219,-186.266 928.219,-186.266"/>
<text text-anchor="middle" x="898.327" y="-215.8" font-family="Times,serif" font-size="14.00">organisation_people</text>
</g>
<!-- Travel&#45;&gt;Person -->
<g id="edge37" class="edge"><title>Travel&#45;&gt;Person</title>
<path fill="none" stroke="#12e3af" d="M699.134,-235.262C698.241,-227.271 699.206,-219.04 704.501,-213 732.616,-180.931 856.898,-176.863 924.879,-177.123"/>
<polygon fill="#12e3af" stroke="#12e3af" points="699.135,-235.264 696.661,-245.947 700.105,-240.169 701.076,-245.074 701.076,-245.074 701.076,-245.074 700.105,-240.169 705.49,-244.201 699.135,-235.264 699.135,-235.264"/>
<polygon fill="#12e3af" stroke="#12e3af" points="925.283,-177.126 935.25,-181.699 930.283,-177.162 935.283,-177.199 935.283,-177.199 935.283,-177.199 930.283,-177.162 935.315,-172.699 925.283,-177.126 925.283,-177.126"/>
<text text-anchor="middle" x="759.281" y="-215.8" font-family="Times,serif" font-size="14.00">government_people</text>
</g>
</g>
</svg>
