<?xml version="1.0" encoding="UTF-8" standalone="no"?>
<!DOCTYPE svg PUBLIC "-//W3C//DTD SVG 1.1//EN"
 "http://www.w3.org/Graphics/SVG/1.1/DTD/svg11.dtd">
<!-- Generated by graphviz version 2.36.0 (20140111.2315)
 -->
<!-- Title: models_diagram Pages: 1 -->
<svg width="1801pt" height="468pt"
 viewBox="0.00 0.00 1800.52 468.00" xmlns="http://www.w3.org/2000/svg" xmlns:xlink="http://www.w3.org/1999/xlink">
<g id="graph0" class="graph" transform="scale(1 1) rotate(0) translate(4 464)">
<title>models_diagram</title>
<polygon fill="none" stroke="none" points="-4,4 -4,-464 1796.52,-464 1796.52,4 -4,4"/>
<!-- _diagram_info -->
<g id="node1" class="node"><title>_diagram_info</title>
<text text-anchor="start" x="8" y="-385.6" font-family="Times,serif" font-size="13.00">Models diagram</text>
<text text-anchor="start" x="8" y="-371.6" font-family="Times,serif" font-size="13.00">Date: Oct 02 2016 &#45; 21:35</text>
<text text-anchor="start" x="8" y="-357.6" font-family="Times,serif" font-size="13.00">Migration version: 20161002183132</text>
<text text-anchor="start" x="8" y="-343.6" font-family="Times,serif" font-size="13.00">Generated by RailRoady 1.5.2</text>
<text text-anchor="start" x="8" y="-329.6" font-family="Times,serif" font-size="13.00">http://railroady.prestonlee.com</text>
</g>
<!-- GovernmentOffice -->
<g id="node2" class="node"><title>GovernmentOffice</title>
<path fill="none" stroke="black" d="M1479,-88.5C1479,-88.5 1699,-88.5 1699,-88.5 1705,-88.5 1711,-94.5 1711,-100.5 1711,-100.5 1711,-197.5 1711,-197.5 1711,-203.5 1705,-209.5 1699,-209.5 1699,-209.5 1479,-209.5 1479,-209.5 1473,-209.5 1467,-203.5 1467,-197.5 1467,-197.5 1467,-100.5 1467,-100.5 1467,-94.5 1473,-88.5 1479,-88.5"/>
<text text-anchor="middle" x="1589" y="-194.3" font-family="Times,serif" font-size="14.00">GovernmentOffice</text>
<polyline fill="none" stroke="black" points="1467,-186.5 1711,-186.5 "/>
<text text-anchor="start" x="1475" y="-171.3" font-family="Times,serif" font-size="14.00">id :integer</text>
<text text-anchor="start" x="1475" y="-156.3" font-family="Times,serif" font-size="14.00">name :character varying</text>
<text text-anchor="start" x="1475" y="-141.3" font-family="Times,serif" font-size="14.00">wikipedia_entry :character varying</text>
<text text-anchor="start" x="1475" y="-126.3" font-family="Times,serif" font-size="14.00">type :character varying</text>
<text text-anchor="start" x="1475" y="-111.3" font-family="Times,serif" font-size="14.00">created_at :timestamp without time zone</text>
<text text-anchor="start" x="1475" y="-96.3" font-family="Times,serif" font-size="14.00">updated_at :timestamp without time zone</text>
</g>
<!-- InfluenceOfficePeople -->
<g id="node13" class="node"><title>InfluenceOfficePeople</title>
<ellipse fill="none" stroke="black" cx="828" cy="-18" rx="90.0136" ry="18"/>
<text text-anchor="middle" x="828" y="-14.3" font-family="Times,serif" font-size="14.00">InfluenceOfficePeople</text>
</g>
<!-- GovernmentOffice&#45;&gt;InfluenceOfficePeople -->
<g id="edge1" class="edge"><title>GovernmentOffice&#45;&gt;InfluenceOfficePeople</title>
<path fill="none" stroke="#d2cf63" d="M1458.54,-125.885C1298.98,-98.8375 1034.16,-53.9474 904.411,-31.9528"/>
<ellipse fill="none" stroke="#d2cf63" cx="1462.79" cy="-126.605" rx="4.00001" ry="4.00001"/>
<polygon fill="#d2cf63" stroke="#d2cf63" points="904.409,-31.9525 895.302,-25.8444 899.48,-31.1168 894.55,-30.2811 894.55,-30.2811 894.55,-30.2811 899.48,-31.1168 893.798,-34.7178 904.409,-31.9525 904.409,-31.9525"/>
<text text-anchor="middle" x="1135.5" y="-58.3" font-family="Times,serif" font-size="14.00">offices</text>
</g>
<!-- GovernmentOffice&#45;&gt;InfluenceOfficePeople -->
<g id="edge2" class="edge"><title>GovernmentOffice&#45;&gt;InfluenceOfficePeople</title>
<path fill="none" stroke="#ae5d07" d="M1458.71,-115.703C1373.58,-95.5627 1259.73,-70.4373 1158,-54 1078.34,-41.1282 987.067,-31.8645 920.733,-26.1137"/>
<ellipse fill="none" stroke="#ae5d07" cx="1462.71" cy="-116.651" rx="4.00001" ry="4.00001"/>
<polygon fill="#ae5d07" stroke="#ae5d07" points="920.683,-26.1095 911.103,-20.7722 915.701,-25.6826 910.719,-25.2558 910.719,-25.2558 910.719,-25.2558 915.701,-25.6826 910.335,-29.7394 920.683,-26.1095 920.683,-26.1095"/>
<text text-anchor="middle" x="1259.5" y="-58.3" font-family="Times,serif" font-size="14.00">people</text>
</g>
<!-- Hospitality -->
<g id="node3" class="node"><title>Hospitality</title>
<path fill="none" stroke="black" d="M509,-263C509,-263 729,-263 729,-263 735,-263 741,-269 741,-275 741,-275 741,-447 741,-447 741,-453 735,-459 729,-459 729,-459 509,-459 509,-459 503,-459 497,-453 497,-447 497,-447 497,-275 497,-275 497,-269 503,-263 509,-263"/>
<text text-anchor="middle" x="619" y="-443.8" font-family="Times,serif" font-size="14.00">Hospitality</text>
<polyline fill="none" stroke="black" points="497,-436 741,-436 "/>
<text text-anchor="start" x="505" y="-420.8" font-family="Times,serif" font-size="14.00">id :integer</text>
<text text-anchor="start" x="505" y="-405.8" font-family="Times,serif" font-size="14.00">type :character varying</text>
<text text-anchor="start" x="505" y="-390.8" font-family="Times,serif" font-size="14.00">day :integer</text>
<text text-anchor="start" x="505" y="-375.8" font-family="Times,serif" font-size="14.00">month :integer</text>
<text text-anchor="start" x="505" y="-360.8" font-family="Times,serif" font-size="14.00">year :integer</text>
<text text-anchor="start" x="505" y="-345.8" font-family="Times,serif" font-size="14.00">purpose :character varying</text>
<text text-anchor="start" x="505" y="-330.8" font-family="Times,serif" font-size="14.00">type_of_hospitality :character varying</text>
<text text-anchor="start" x="505" y="-315.8" font-family="Times,serif" font-size="14.00">gift :character varying</text>
<text text-anchor="start" x="505" y="-300.8" font-family="Times,serif" font-size="14.00">value :integer</text>
<text text-anchor="start" x="505" y="-285.8" font-family="Times,serif" font-size="14.00">created_at :timestamp without time zone</text>
<text text-anchor="start" x="505" y="-270.8" font-family="Times,serif" font-size="14.00">updated_at :timestamp without time zone</text>
</g>
<!-- Hospitality&#45;&gt;GovernmentOffice -->
<g id="edge7" class="edge"><title>Hospitality&#45;&gt;GovernmentOffice</title>
<path fill="none" stroke="#4fce8a" d="M750.776,-262.771C751.516,-262.509 752.258,-262.251 753,-262 796.262,-247.342 1540.73,-274.202 1575,-244 1582.35,-237.522 1587.04,-228.993 1589.92,-219.712"/>
<polygon fill="#4fce8a" stroke="#4fce8a" points="750.515,-262.872 739.565,-262.292 745.853,-264.68 741.192,-266.488 741.192,-266.488 741.192,-266.488 745.853,-264.68 742.819,-270.683 750.515,-262.872 750.515,-262.872"/>
<polygon fill="#4fce8a" stroke="#4fce8a" points="1589.96,-219.547 1596.66,-210.872 1591.12,-214.685 1592.29,-209.823 1592.29,-209.823 1592.29,-209.823 1591.12,-214.685 1587.91,-208.773 1589.96,-219.547 1589.96,-219.547"/>
</g>
<!-- Organisation -->
<g id="node9" class="node"><title>Organisation</title>
<path fill="none" stroke="black" d="M572,-88.5C572,-88.5 792,-88.5 792,-88.5 798,-88.5 804,-94.5 804,-100.5 804,-100.5 804,-197.5 804,-197.5 804,-203.5 798,-209.5 792,-209.5 792,-209.5 572,-209.5 572,-209.5 566,-209.5 560,-203.5 560,-197.5 560,-197.5 560,-100.5 560,-100.5 560,-94.5 566,-88.5 572,-88.5"/>
<text text-anchor="middle" x="682" y="-194.3" font-family="Times,serif" font-size="14.00">Organisation</text>
<polyline fill="none" stroke="black" points="560,-186.5 804,-186.5 "/>
<text text-anchor="start" x="568" y="-171.3" font-family="Times,serif" font-size="14.00">id :integer</text>
<text text-anchor="start" x="568" y="-156.3" font-family="Times,serif" font-size="14.00">name :character varying</text>
<text text-anchor="start" x="568" y="-141.3" font-family="Times,serif" font-size="14.00">wikipedia_entry :character varying</text>
<text text-anchor="start" x="568" y="-126.3" font-family="Times,serif" font-size="14.00">type :character varying</text>
<text text-anchor="start" x="568" y="-111.3" font-family="Times,serif" font-size="14.00">created_at :timestamp without time zone</text>
<text text-anchor="start" x="568" y="-96.3" font-family="Times,serif" font-size="14.00">updated_at :timestamp without time zone</text>
</g>
<!-- Hospitality&#45;&gt;Organisation -->
<g id="edge4" class="edge"><title>Hospitality&#45;&gt;Organisation</title>
<path fill="none" stroke="#0e3042" d="M487.202,-262.834C486.469,-262.551 485.735,-262.273 485,-262 390.193,-226.786 190.729,-301.688 260,-228 280.758,-205.918 489.87,-216.294 549.653,-209.33"/>
<polygon fill="#0e3042" stroke="#0e3042" points="487.47,-262.946 494.969,-270.946 492.085,-264.869 496.7,-266.792 496.7,-266.792 496.7,-266.792 492.085,-264.869 498.431,-262.639 487.47,-262.946 487.47,-262.946"/>
<polygon fill="#0e3042" stroke="#0e3042" points="549.911,-209.287 560.519,-212.065 554.841,-208.457 559.772,-207.627 559.772,-207.627 559.772,-207.627 554.841,-208.457 559.025,-203.19 549.911,-209.287 549.911,-209.287"/>
</g>
<!-- InfluenceOfficePerson -->
<g id="node11" class="node"><title>InfluenceOfficePerson</title>
<path fill="none" stroke="black" d="M48,-88.5C48,-88.5 268,-88.5 268,-88.5 274,-88.5 280,-94.5 280,-100.5 280,-100.5 280,-197.5 280,-197.5 280,-203.5 274,-209.5 268,-209.5 268,-209.5 48,-209.5 48,-209.5 42,-209.5 36,-203.5 36,-197.5 36,-197.5 36,-100.5 36,-100.5 36,-94.5 42,-88.5 48,-88.5"/>
<text text-anchor="middle" x="158" y="-194.3" font-family="Times,serif" font-size="14.00">InfluenceOfficePerson</text>
<polyline fill="none" stroke="black" points="36,-186.5 280,-186.5 "/>
<text text-anchor="start" x="44" y="-171.3" font-family="Times,serif" font-size="14.00">id :integer</text>
<text text-anchor="start" x="44" y="-156.3" font-family="Times,serif" font-size="14.00">means_of_influence_id :integer</text>
<text text-anchor="start" x="44" y="-141.3" font-family="Times,serif" font-size="14.00">office_id :integer</text>
<text text-anchor="start" x="44" y="-126.3" font-family="Times,serif" font-size="14.00">person_id :integer</text>
<text text-anchor="start" x="44" y="-111.3" font-family="Times,serif" font-size="14.00">created_at :timestamp without time zone</text>
<text text-anchor="start" x="44" y="-96.3" font-family="Times,serif" font-size="14.00">updated_at :timestamp without time zone</text>
</g>
<!-- Hospitality&#45;&gt;InfluenceOfficePerson -->
<g id="edge3" class="edge"><title>Hospitality&#45;&gt;InfluenceOfficePerson</title>
<path fill="none" stroke="#cee26f" d="M489.052,-263.505C487.704,-262.986 486.353,-262.484 485,-262 450.945,-249.823 185.134,-270.005 160,-244 153.502,-237.277 149.812,-228.856 147.998,-219.834"/>
<ellipse fill="none" stroke="#cee26f" cx="493.047" cy="-265.145" rx="4.00001" ry="4.00001"/>
<polygon fill="#cee26f" stroke="#cee26f" points="147.991,-219.78 151.186,-209.289 147.357,-214.82 146.723,-209.86 146.723,-209.86 146.723,-209.86 147.357,-214.82 142.259,-210.431 147.991,-219.78 147.991,-219.78"/>
</g>
<!-- Person -->
<g id="node12" class="node"><title>Person</title>
<path fill="none" stroke="black" d="M834,-88.5C834,-88.5 1054,-88.5 1054,-88.5 1060,-88.5 1066,-94.5 1066,-100.5 1066,-100.5 1066,-197.5 1066,-197.5 1066,-203.5 1060,-209.5 1054,-209.5 1054,-209.5 834,-209.5 834,-209.5 828,-209.5 822,-203.5 822,-197.5 822,-197.5 822,-100.5 822,-100.5 822,-94.5 828,-88.5 834,-88.5"/>
<text text-anchor="middle" x="944" y="-194.3" font-family="Times,serif" font-size="14.00">Person</text>
<polyline fill="none" stroke="black" points="822,-186.5 1066,-186.5 "/>
<text text-anchor="start" x="830" y="-171.3" font-family="Times,serif" font-size="14.00">id :integer</text>
<text text-anchor="start" x="830" y="-156.3" font-family="Times,serif" font-size="14.00">name :character varying</text>
<text text-anchor="start" x="830" y="-141.3" font-family="Times,serif" font-size="14.00">wikipedia_entry :character varying</text>
<text text-anchor="start" x="830" y="-126.3" font-family="Times,serif" font-size="14.00">type :character varying</text>
<text text-anchor="start" x="830" y="-111.3" font-family="Times,serif" font-size="14.00">created_at :timestamp without time zone</text>
<text text-anchor="start" x="830" y="-96.3" font-family="Times,serif" font-size="14.00">updated_at :timestamp without time zone</text>
</g>
<!-- Hospitality&#45;&gt;Person -->
<g id="edge5" class="edge"><title>Hospitality&#45;&gt;Person</title>
<path fill="none" stroke="#b74508" d="M726.47,-256.505C739.618,-246.186 753.272,-236.429 767,-228 783.516,-217.859 790.97,-218.277 812.395,-210.049"/>
<polygon fill="#b74508" stroke="#b74508" points="726.163,-256.75 715.543,-259.481 722.258,-259.873 718.353,-262.995 718.353,-262.995 718.353,-262.995 722.258,-259.873 721.163,-266.51 726.163,-256.75 726.163,-256.75"/>
<polygon fill="#b74508" stroke="#b74508" points="812.451,-210.026 823.41,-210.441 817.085,-208.148 821.719,-206.27 821.719,-206.27 821.719,-206.27 817.085,-208.148 820.029,-202.1 812.451,-210.026 812.451,-210.026"/>
<text text-anchor="middle" x="822" y="-232.3" font-family="Times,serif" font-size="14.00">organisation_people</text>
</g>
<!-- Hospitality&#45;&gt;Person -->
<g id="edge6" class="edge"><title>Hospitality&#45;&gt;Person</title>
<path fill="none" stroke="#acaa3d" d="M615.329,-253.305C618.778,-243.902 623.828,-235.229 631,-228 657.779,-201.008 759.408,-218.05 811.675,-209.611"/>
<polygon fill="#acaa3d" stroke="#acaa3d" points="615.312,-253.36 608.09,-261.611 613.853,-258.142 612.394,-262.924 612.394,-262.924 612.394,-262.924 613.853,-258.142 616.699,-264.237 615.312,-253.36 615.312,-253.36"/>
<polygon fill="#acaa3d" stroke="#acaa3d" points="811.951,-209.553 822.666,-211.884 816.842,-208.517 821.734,-207.482 821.734,-207.482 821.734,-207.482 816.842,-208.517 820.802,-203.079 811.951,-209.553 811.951,-209.553"/>
<text text-anchor="middle" x="685.5" y="-232.3" font-family="Times,serif" font-size="14.00">government_people</text>
</g>
<!-- Gift -->
<g id="node4" class="node"><title>Gift</title>
<path fill="none" stroke="black" d="M244,-263C244,-263 464,-263 464,-263 470,-263 476,-269 476,-275 476,-275 476,-447 476,-447 476,-453 470,-459 464,-459 464,-459 244,-459 244,-459 238,-459 232,-453 232,-447 232,-447 232,-275 232,-275 232,-269 238,-263 244,-263"/>
<text text-anchor="middle" x="354" y="-443.8" font-family="Times,serif" font-size="14.00">Gift</text>
<polyline fill="none" stroke="black" points="232,-436 476,-436 "/>
<text text-anchor="start" x="240" y="-420.8" font-family="Times,serif" font-size="14.00">id :integer</text>
<text text-anchor="start" x="240" y="-405.8" font-family="Times,serif" font-size="14.00">type :character varying</text>
<text text-anchor="start" x="240" y="-390.8" font-family="Times,serif" font-size="14.00">day :integer</text>
<text text-anchor="start" x="240" y="-375.8" font-family="Times,serif" font-size="14.00">month :integer</text>
<text text-anchor="start" x="240" y="-360.8" font-family="Times,serif" font-size="14.00">year :integer</text>
<text text-anchor="start" x="240" y="-345.8" font-family="Times,serif" font-size="14.00">purpose :character varying</text>
<text text-anchor="start" x="240" y="-330.8" font-family="Times,serif" font-size="14.00">type_of_hospitality :character varying</text>
<text text-anchor="start" x="240" y="-315.8" font-family="Times,serif" font-size="14.00">gift :character varying</text>
<text text-anchor="start" x="240" y="-300.8" font-family="Times,serif" font-size="14.00">value :integer</text>
<text text-anchor="start" x="240" y="-285.8" font-family="Times,serif" font-size="14.00">created_at :timestamp without time zone</text>
<text text-anchor="start" x="240" y="-270.8" font-family="Times,serif" font-size="14.00">updated_at :timestamp without time zone</text>
</g>
<!-- Gift&#45;&gt;GovernmentOffice -->
<g id="edge12" class="edge"><title>Gift&#45;&gt;GovernmentOffice</title>
<path fill="none" stroke="#eb6ef5" d="M485.774,-262.766C486.515,-262.505 487.257,-262.25 488,-262 543.459,-243.358 1491.36,-274.974 1541,-244 1551.08,-237.71 1559.13,-228.575 1565.54,-218.441"/>
<polygon fill="#eb6ef5" stroke="#eb6ef5" points="485.514,-262.866 474.565,-262.264 480.849,-264.664 476.183,-266.463 476.183,-266.463 476.183,-266.463 480.849,-264.664 477.802,-270.661 485.514,-262.866 485.514,-262.866"/>
<polygon fill="#eb6ef5" stroke="#eb6ef5" points="1565.56,-218.404 1574.44,-211.975 1568.05,-214.069 1570.54,-209.733 1570.54,-209.733 1570.54,-209.733 1568.05,-214.069 1566.64,-207.492 1565.56,-218.404 1565.56,-218.404"/>
</g>
<!-- Gift&#45;&gt;Organisation -->
<g id="edge9" class="edge"><title>Gift&#45;&gt;Organisation</title>
<path fill="none" stroke="#c65273" d="M234.604,-252.801C234.428,-244.289 237.526,-235.926 245,-228 266.905,-204.769 487.637,-216.511 549.604,-209.342"/>
<polygon fill="#c65273" stroke="#c65273" points="234.633,-252.976 231.81,-263.572 235.442,-257.91 236.251,-262.844 236.251,-262.844 236.251,-262.844 235.442,-257.91 240.691,-262.116 234.633,-252.976 234.633,-252.976"/>
<polygon fill="#c65273" stroke="#c65273" points="549.912,-209.29 560.518,-212.078 554.843,-208.465 559.775,-207.639 559.775,-207.639 559.775,-207.639 554.843,-208.465 559.032,-203.201 549.912,-209.29 549.912,-209.29"/>
</g>
<!-- Gift&#45;&gt;InfluenceOfficePerson -->
<g id="edge8" class="edge"><title>Gift&#45;&gt;InfluenceOfficePerson</title>
<path fill="none" stroke="#906668" d="M224.441,-263.111C223.628,-262.735 222.814,-262.365 222,-262 185.968,-245.852 159.932,-274.619 135,-244 129.219,-236.901 126.942,-228.565 126.938,-219.84"/>
<ellipse fill="none" stroke="#906668" cx="228.148" cy="-264.9" rx="4.00002" ry="4.00002"/>
<polygon fill="#906668" stroke="#906668" points="126.938,-219.83 132.316,-210.273 127.386,-214.85 127.834,-209.87 127.834,-209.87 127.834,-209.87 127.386,-214.85 123.352,-209.467 126.938,-219.83 126.938,-219.83"/>
</g>
<!-- Gift&#45;&gt;Person -->
<g id="edge10" class="edge"><title>Gift&#45;&gt;Person</title>
<path fill="none" stroke="#63cbb6" d="M340.601,-252.887C343.473,-243.666 348.077,-235.147 355,-228 371.645,-210.818 739.374,-215.253 811.67,-209.056"/>
<polygon fill="#63cbb6" stroke="#63cbb6" points="340.572,-253.005 333.838,-261.659 339.392,-257.863 338.211,-262.722 338.211,-262.722 338.211,-262.722 339.392,-257.863 342.583,-263.785 340.572,-253.005 340.572,-253.005"/>
<polygon fill="#63cbb6" stroke="#63cbb6" points="811.88,-209.028 822.384,-212.178 816.837,-208.373 821.794,-207.717 821.794,-207.717 821.794,-207.717 816.837,-208.373 821.204,-203.256 811.88,-209.028 811.88,-209.028"/>
<text text-anchor="middle" x="410" y="-232.3" font-family="Times,serif" font-size="14.00">organisation_people</text>
</g>
<!-- Gift&#45;&gt;Person -->
<g id="edge11" class="edge"><title>Gift&#45;&gt;Person</title>
<path fill="none" stroke="#c88781" d="M456.219,-256.756C472.174,-245.295 489.282,-235.186 507,-228 567.411,-203.499 731.92,-224.488 811.576,-209.836"/>
<polygon fill="#c88781" stroke="#c88781" points="456.015,-256.907 445.302,-259.251 451.999,-259.886 447.983,-262.865 447.983,-262.865 447.983,-262.865 451.999,-259.886 450.664,-266.479 456.015,-256.907 456.015,-256.907"/>
<polygon fill="#c88781" stroke="#c88781" points="811.999,-209.745 822.722,-212.039 816.887,-208.692 821.775,-207.639 821.775,-207.639 821.775,-207.639 816.887,-208.692 820.827,-203.24 811.999,-209.745 811.999,-209.745"/>
<text text-anchor="middle" x="561.5" y="-232.3" font-family="Times,serif" font-size="14.00">government_people</text>
</g>
<!-- Travel -->
<g id="node5" class="node"><title>Travel</title>
<path fill="none" stroke="black" d="M774,-263C774,-263 994,-263 994,-263 1000,-263 1006,-269 1006,-275 1006,-275 1006,-447 1006,-447 1006,-453 1000,-459 994,-459 994,-459 774,-459 774,-459 768,-459 762,-453 762,-447 762,-447 762,-275 762,-275 762,-269 768,-263 774,-263"/>
<text text-anchor="middle" x="884" y="-443.8" font-family="Times,serif" font-size="14.00">Travel</text>
<polyline fill="none" stroke="black" points="762,-436 1006,-436 "/>
<text text-anchor="start" x="770" y="-420.8" font-family="Times,serif" font-size="14.00">id :integer</text>
<text text-anchor="start" x="770" y="-405.8" font-family="Times,serif" font-size="14.00">type :character varying</text>
<text text-anchor="start" x="770" y="-390.8" font-family="Times,serif" font-size="14.00">day :integer</text>
<text text-anchor="start" x="770" y="-375.8" font-family="Times,serif" font-size="14.00">month :integer</text>
<text text-anchor="start" x="770" y="-360.8" font-family="Times,serif" font-size="14.00">year :integer</text>
<text text-anchor="start" x="770" y="-345.8" font-family="Times,serif" font-size="14.00">purpose :character varying</text>
<text text-anchor="start" x="770" y="-330.8" font-family="Times,serif" font-size="14.00">type_of_hospitality :character varying</text>
<text text-anchor="start" x="770" y="-315.8" font-family="Times,serif" font-size="14.00">gift :character varying</text>
<text text-anchor="start" x="770" y="-300.8" font-family="Times,serif" font-size="14.00">value :integer</text>
<text text-anchor="start" x="770" y="-285.8" font-family="Times,serif" font-size="14.00">created_at :timestamp without time zone</text>
<text text-anchor="start" x="770" y="-270.8" font-family="Times,serif" font-size="14.00">updated_at :timestamp without time zone</text>
</g>
<!-- Travel&#45;&gt;GovernmentOffice -->
<g id="edge17" class="edge"><title>Travel&#45;&gt;GovernmentOffice</title>
<path fill="none" stroke="#4bafbe" d="M1015.78,-262.781C1016.52,-262.515 1017.26,-262.255 1018,-262 1048.59,-251.481 1577.48,-267.225 1600,-244 1606.48,-237.315 1609.55,-228.983 1610.41,-220.061"/>
<polygon fill="#4bafbe" stroke="#4bafbe" points="1015.52,-262.884 1004.56,-262.346 1010.86,-264.71 1006.21,-266.536 1006.21,-266.536 1006.21,-266.536 1010.86,-264.71 1007.85,-270.725 1015.52,-262.884 1015.52,-262.884"/>
<polygon fill="#4bafbe" stroke="#4bafbe" points="1610.41,-219.793 1615,-209.831 1610.46,-214.793 1610.5,-209.793 1610.5,-209.793 1610.5,-209.793 1610.46,-214.793 1606,-209.755 1610.41,-219.793 1610.41,-219.793"/>
</g>
<!-- Travel&#45;&gt;Organisation -->
<g id="edge14" class="edge"><title>Travel&#45;&gt;Organisation</title>
<path fill="none" stroke="#d1e86d" d="M752.218,-262.79C751.479,-262.521 750.74,-262.258 750,-262 701.17,-244.997 320.847,-281.262 285,-244 280.07,-238.875 280.144,-233.195 285,-228 303.845,-207.837 493.531,-215.945 549.683,-209.318"/>
<polygon fill="#d1e86d" stroke="#d1e86d" points="752.481,-262.894 760.12,-270.76 757.129,-264.735 761.778,-266.577 761.778,-266.577 761.778,-266.577 757.129,-264.735 763.435,-262.393 752.481,-262.894 752.481,-262.894"/>
<polygon fill="#d1e86d" stroke="#d1e86d" points="549.907,-209.28 560.52,-212.041 554.837,-208.442 559.766,-207.604 559.766,-207.604 559.766,-207.604 554.837,-208.442 559.012,-203.168 549.907,-209.28 549.907,-209.28"/>
</g>
<!-- Travel&#45;&gt;InfluenceOfficePerson -->
<g id="edge13" class="edge"><title>Travel&#45;&gt;InfluenceOfficePerson</title>
<path fill="none" stroke="#bf18ca" d="M754.068,-263.459C752.714,-262.954 751.358,-262.468 750,-262 690.613,-241.549 234.562,-282.583 185,-244 176.776,-237.598 170.943,-228.861 166.828,-219.278"/>
<ellipse fill="none" stroke="#bf18ca" cx="758.075" cy="-265.058" rx="4.00001" ry="4.00001"/>
<polygon fill="#bf18ca" stroke="#bf18ca" points="166.825,-219.27 167.613,-208.332 165.106,-214.575 163.387,-209.88 163.387,-209.88 163.387,-209.88 165.106,-214.575 159.161,-211.427 166.825,-219.27 166.825,-219.27"/>
</g>
<!-- Travel&#45;&gt;Person -->
<g id="edge15" class="edge"><title>Travel&#45;&gt;Person</title>
<path fill="none" stroke="#7dd37c" d="M878.991,-252.862C880.348,-244.336 882.297,-235.954 885,-228 886.065,-224.865 887.311,-221.755 888.702,-218.685"/>
<polygon fill="#7dd37c" stroke="#7dd37c" points="878.973,-253.004 873.201,-262.328 878.317,-257.961 877.662,-262.918 877.662,-262.918 877.662,-262.918 878.317,-257.961 882.123,-263.508 878.973,-253.004 878.973,-253.004"/>
<polygon fill="#7dd37c" stroke="#7dd37c" points="888.779,-218.534 897.301,-211.633 891.031,-214.07 893.283,-209.606 893.283,-209.606 893.283,-209.606 891.031,-214.07 889.266,-207.579 888.779,-218.534 888.779,-218.534"/>
<text text-anchor="middle" x="940" y="-232.3" font-family="Times,serif" font-size="14.00">organisation_people</text>
</g>
<!-- Travel&#45;&gt;Person -->
<g id="edge16" class="edge"><title>Travel&#45;&gt;Person</title>
<path fill="none" stroke="#bf2034" d="M990.563,-253.874C992.177,-250.627 993.662,-247.335 995,-244 998.245,-235.915 998.587,-227.636 996.982,-219.506"/>
<polygon fill="#bf2034" stroke="#bf2034" points="990.441,-254.1 981.731,-260.762 988.066,-258.5 985.691,-262.899 985.691,-262.899 985.691,-262.899 988.066,-258.5 989.651,-265.037 990.441,-254.1 990.441,-254.1"/>
<polygon fill="#bf2034" stroke="#bf2034" points="996.918,-219.286 998.442,-208.427 995.519,-214.486 994.121,-209.685 994.121,-209.685 994.121,-209.685 995.519,-214.486 989.801,-210.943 996.918,-219.286 996.918,-219.286"/>
<text text-anchor="middle" x="1051.5" y="-232.3" font-family="Times,serif" font-size="14.00">government_people</text>
</g>
<!-- MeansOfInfluence -->
<g id="node6" class="node"><title>MeansOfInfluence</title>
<path fill="none" stroke="black" d="M1329,-263C1329,-263 1549,-263 1549,-263 1555,-263 1561,-269 1561,-275 1561,-275 1561,-447 1561,-447 1561,-453 1555,-459 1549,-459 1549,-459 1329,-459 1329,-459 1323,-459 1317,-453 1317,-447 1317,-447 1317,-275 1317,-275 1317,-269 1323,-263 1329,-263"/>
<text text-anchor="middle" x="1439" y="-443.8" font-family="Times,serif" font-size="14.00">MeansOfInfluence</text>
<polyline fill="none" stroke="black" points="1317,-436 1561,-436 "/>
<text text-anchor="start" x="1325" y="-420.8" font-family="Times,serif" font-size="14.00">id :integer</text>
<text text-anchor="start" x="1325" y="-405.8" font-family="Times,serif" font-size="14.00">type :character varying</text>
<text text-anchor="start" x="1325" y="-390.8" font-family="Times,serif" font-size="14.00">day :integer</text>
<text text-anchor="start" x="1325" y="-375.8" font-family="Times,serif" font-size="14.00">month :integer</text>
<text text-anchor="start" x="1325" y="-360.8" font-family="Times,serif" font-size="14.00">year :integer</text>
<text text-anchor="start" x="1325" y="-345.8" font-family="Times,serif" font-size="14.00">purpose :character varying</text>
<text text-anchor="start" x="1325" y="-330.8" font-family="Times,serif" font-size="14.00">type_of_hospitality :character varying</text>
<text text-anchor="start" x="1325" y="-315.8" font-family="Times,serif" font-size="14.00">gift :character varying</text>
<text text-anchor="start" x="1325" y="-300.8" font-family="Times,serif" font-size="14.00">value :integer</text>
<text text-anchor="start" x="1325" y="-285.8" font-family="Times,serif" font-size="14.00">created_at :timestamp without time zone</text>
<text text-anchor="start" x="1325" y="-270.8" font-family="Times,serif" font-size="14.00">updated_at :timestamp without time zone</text>
</g>
<!-- MeansOfInfluence&#45;&gt;GovernmentOffice -->
<g id="edge22" class="edge"><title>MeansOfInfluence&#45;&gt;GovernmentOffice</title>
<path fill="none" stroke="#bce5e9" d="M1571.03,-262.612C1629.24,-248.78 1751.82,-276.846 1782,-244 1812.15,-211.186 1772.04,-188.519 1720.72,-173.679"/>
<polygon fill="#bce5e9" stroke="#bce5e9" points="1570.84,-262.67 1559.96,-261.274 1566.06,-264.125 1561.27,-265.579 1561.27,-265.579 1561.27,-265.579 1566.06,-264.125 1562.58,-269.885 1570.84,-262.67 1570.84,-262.67"/>
<polygon fill="#bce5e9" stroke="#bce5e9" points="1720.66,-173.663 1712.22,-166.661 1715.84,-172.331 1711.02,-170.998 1711.02,-170.998 1711.02,-170.998 1715.84,-172.331 1709.83,-175.336 1720.66,-173.663 1720.66,-173.663"/>
</g>
<!-- MeansOfInfluence&#45;&gt;Organisation -->
<g id="edge19" class="edge"><title>MeansOfInfluence&#45;&gt;Organisation</title>
<path fill="none" stroke="#a516b9" d="M1386.09,-254.884C1376.78,-244.259 1366.11,-234.872 1354,-228 1303.83,-199.543 906.191,-221.796 814.267,-209.513"/>
<polygon fill="#a516b9" stroke="#a516b9" points="1386.27,-255.105 1389.16,-265.684 1389.45,-258.963 1392.63,-262.821 1392.63,-262.821 1392.63,-262.821 1389.45,-258.963 1396.1,-259.959 1386.27,-255.105 1386.27,-255.105"/>
<polygon fill="#a516b9" stroke="#a516b9" points="814.049,-209.475 804.981,-203.309 809.125,-208.608 804.201,-207.741 804.201,-207.741 804.201,-207.741 809.125,-208.608 803.42,-212.173 814.049,-209.475 814.049,-209.475"/>
</g>
<!-- MeansOfInfluence&#45;&gt;InfluenceOfficePerson -->
<g id="edge18" class="edge"><title>MeansOfInfluence&#45;&gt;InfluenceOfficePerson</title>
<path fill="none" stroke="#c45813" d="M1309.22,-272.72C1299.58,-268.529 1289.79,-264.877 1280,-262 1179.99,-232.615 443.11,-269.36 342,-244 337.915,-242.975 312.062,-230.051 280.962,-214.095"/>
<ellipse fill="none" stroke="#c45813" cx="1312.91" cy="-274.383" rx="4.00002" ry="4.00002"/>
<polygon fill="#c45813" stroke="#c45813" points="280.959,-214.093 274.122,-205.52 276.512,-211.808 272.065,-209.522 272.065,-209.522 272.065,-209.522 276.512,-211.808 270.008,-213.524 280.959,-214.093 280.959,-214.093"/>
</g>
<!-- MeansOfInfluence&#45;&gt;Person -->
<g id="edge20" class="edge"><title>MeansOfInfluence&#45;&gt;Person</title>
<path fill="none" stroke="#3a0666" d="M1433.58,-253.137C1429.6,-243.812 1424.21,-235.202 1417,-228 1370.2,-181.281 1199.25,-162.508 1076.31,-154.988"/>
<polygon fill="#3a0666" stroke="#3a0666" points="1433.63,-253.292 1432.87,-264.232 1435.37,-257.983 1437.1,-262.674 1437.1,-262.674 1437.1,-262.674 1435.37,-257.983 1441.32,-261.116 1433.63,-253.292 1433.63,-253.292"/>
<polygon fill="#3a0666" stroke="#3a0666" points="1076.04,-154.972 1066.33,-149.888 1071.05,-154.676 1066.06,-154.38 1066.06,-154.38 1066.06,-154.38 1071.05,-154.676 1065.79,-158.872 1076.04,-154.972 1076.04,-154.972"/>
<text text-anchor="middle" x="1482" y="-232.3" font-family="Times,serif" font-size="14.00">organisation_people</text>
</g>
<!-- MeansOfInfluence&#45;&gt;Person -->
<g id="edge21" class="edge"><title>MeansOfInfluence&#45;&gt;Person</title>
<path fill="none" stroke="#b578d5" d="M1550.75,-252.915C1550.91,-244.378 1548,-235.978 1541,-228 1533.35,-219.289 1249.52,-185.184 1076.02,-165.07"/>
<polygon fill="#b578d5" stroke="#b578d5" points="1550.72,-253.097 1544.77,-262.304 1549.97,-258.04 1549.21,-262.983 1549.21,-262.983 1549.21,-262.983 1549.97,-258.04 1553.66,-263.662 1550.72,-253.097 1550.72,-253.097"/>
<polygon fill="#b578d5" stroke="#b578d5" points="1075.98,-165.065 1066.56,-159.445 1071.01,-164.49 1066.05,-163.915 1066.05,-163.915 1066.05,-163.915 1071.01,-164.49 1065.53,-168.385 1075.98,-165.065 1075.98,-165.065"/>
<text text-anchor="middle" x="1603.5" y="-232.3" font-family="Times,serif" font-size="14.00">government_people</text>
</g>
<!-- Entity -->
<g id="node7" class="node"><title>Entity</title>
<path fill="none" stroke="black" d="M310,-88.5C310,-88.5 530,-88.5 530,-88.5 536,-88.5 542,-94.5 542,-100.5 542,-100.5 542,-197.5 542,-197.5 542,-203.5 536,-209.5 530,-209.5 530,-209.5 310,-209.5 310,-209.5 304,-209.5 298,-203.5 298,-197.5 298,-197.5 298,-100.5 298,-100.5 298,-94.5 304,-88.5 310,-88.5"/>
<text text-anchor="middle" x="420" y="-194.3" font-family="Times,serif" font-size="14.00">Entity</text>
<polyline fill="none" stroke="black" points="298,-186.5 542,-186.5 "/>
<text text-anchor="start" x="306" y="-171.3" font-family="Times,serif" font-size="14.00">id :integer</text>
<text text-anchor="start" x="306" y="-156.3" font-family="Times,serif" font-size="14.00">name :character varying</text>
<text text-anchor="start" x="306" y="-141.3" font-family="Times,serif" font-size="14.00">wikipedia_entry :character varying</text>
<text text-anchor="start" x="306" y="-126.3" font-family="Times,serif" font-size="14.00">type :character varying</text>
<text text-anchor="start" x="306" y="-111.3" font-family="Times,serif" font-size="14.00">created_at :timestamp without time zone</text>
<text text-anchor="start" x="306" y="-96.3" font-family="Times,serif" font-size="14.00">updated_at :timestamp without time zone</text>
</g>
<!-- Entity&#45;&gt;InfluenceOfficePeople -->
<g id="edge23" class="edge"><title>Entity&#45;&gt;InfluenceOfficePeople</title>
<path fill="none" stroke="#4d2bf2" d="M462.648,-81.9614C472.63,-70.9835 484.156,-60.9323 497,-54 535.809,-33.0542 646.005,-24.6433 728.668,-21.2659"/>
<ellipse fill="none" stroke="#4d2bf2" cx="459.891" cy="-85.1259" rx="4.00002" ry="4.00002"/>
<polygon fill="#4d2bf2" stroke="#4d2bf2" points="728.868,-21.2582 739.035,-25.3656 733.864,-21.0636 738.86,-20.869 738.86,-20.869 738.86,-20.869 733.864,-21.0636 738.685,-16.3724 728.868,-21.2582 728.868,-21.2582"/>
<text text-anchor="middle" x="515.5" y="-58.3" font-family="Times,serif" font-size="14.00">offices</text>
</g>
<!-- Entity&#45;&gt;InfluenceOfficePeople -->
<g id="edge24" class="edge"><title>Entity&#45;&gt;InfluenceOfficePeople</title>
<path fill="none" stroke="#7a7e71" d="M549.621,-88.5048C550.081,-88.3356 550.541,-88.1673 551,-88 618.315,-63.4592 697.94,-44.6309 754.504,-32.8895"/>
<ellipse fill="none" stroke="#7a7e71" cx="545.865" cy="-89.9157" rx="4.00001" ry="4.00001"/>
<polygon fill="#7a7e71" stroke="#7a7e71" points="754.64,-32.8618 765.341,-35.2597 759.538,-31.8567 764.436,-30.8516 764.436,-30.8516 764.436,-30.8516 759.538,-31.8567 763.531,-26.4434 754.64,-32.8618 754.64,-32.8618"/>
<text text-anchor="middle" x="673.5" y="-58.3" font-family="Times,serif" font-size="14.00">people</text>
</g>
<!-- ApplicationRecord -->
<g id="node8" class="node"><title>ApplicationRecord</title>
<ellipse fill="none" stroke="black" cx="1656" cy="-361" rx="77.0154" ry="18"/>
<text text-anchor="middle" x="1656" y="-357.3" font-family="Times,serif" font-size="14.00">ApplicationRecord</text>
</g>
<!-- Organisation&#45;&gt;InfluenceOfficePeople -->
<g id="edge25" class="edge"><title>Organisation&#45;&gt;InfluenceOfficePeople</title>
<path fill="none" stroke="#a9f39b" d="M707.296,-81.0418C713.264,-71.034 720.444,-61.5567 729,-54 737.86,-46.1745 748.583,-40.0678 759.657,-35.3112"/>
<ellipse fill="none" stroke="#a9f39b" cx="705.32" cy="-84.5524" rx="4.00002" ry="4.00002"/>
<polygon fill="#a9f39b" stroke="#a9f39b" points="759.706,-35.2922 770.659,-35.8116 764.357,-33.4586 769.009,-31.6251 769.009,-31.6251 769.009,-31.6251 764.357,-33.4586 767.359,-27.4386 759.706,-35.2922 759.706,-35.2922"/>
<text text-anchor="middle" x="747.5" y="-58.3" font-family="Times,serif" font-size="14.00">offices</text>
</g>
<!-- Organisation&#45;&gt;InfluenceOfficePeople -->
<g id="edge26" class="edge"><title>Organisation&#45;&gt;InfluenceOfficePeople</title>
<path fill="none" stroke="#67010e" d="M755.591,-82.9775C772.007,-68.4735 788.382,-54.0048 801.397,-42.5052"/>
<ellipse fill="none" stroke="#67010e" cx="752.442" cy="-85.7603" rx="4.00002" ry="4.00002"/>
<polygon fill="#67010e" stroke="#67010e" points="801.543,-42.3763 812.017,-39.1272 805.29,-39.0656 809.037,-35.755 809.037,-35.755 809.037,-35.755 805.29,-39.0656 806.057,-32.3827 801.543,-42.3763 801.543,-42.3763"/>
<text text-anchor="middle" x="802.5" y="-58.3" font-family="Times,serif" font-size="14.00">people</text>
</g>
<!-- Meeting -->
<g id="node10" class="node"><title>Meeting</title>
<path fill="none" stroke="black" d="M1039,-263C1039,-263 1259,-263 1259,-263 1265,-263 1271,-269 1271,-275 1271,-275 1271,-447 1271,-447 1271,-453 1265,-459 1259,-459 1259,-459 1039,-459 1039,-459 1033,-459 1027,-453 1027,-447 1027,-447 1027,-275 1027,-275 1027,-269 1033,-263 1039,-263"/>
<text text-anchor="middle" x="1149" y="-443.8" font-family="Times,serif" font-size="14.00">Meeting</text>
<polyline fill="none" stroke="black" points="1027,-436 1271,-436 "/>
<text text-anchor="start" x="1035" y="-420.8" font-family="Times,serif" font-size="14.00">id :integer</text>
<text text-anchor="start" x="1035" y="-405.8" font-family="Times,serif" font-size="14.00">type :character varying</text>
<text text-anchor="start" x="1035" y="-390.8" font-family="Times,serif" font-size="14.00">day :integer</text>
<text text-anchor="start" x="1035" y="-375.8" font-family="Times,serif" font-size="14.00">month :integer</text>
<text text-anchor="start" x="1035" y="-360.8" font-family="Times,serif" font-size="14.00">year :integer</text>
<text text-anchor="start" x="1035" y="-345.8" font-family="Times,serif" font-size="14.00">purpose :character varying</text>
<text text-anchor="start" x="1035" y="-330.8" font-family="Times,serif" font-size="14.00">type_of_hospitality :character varying</text>
<text text-anchor="start" x="1035" y="-315.8" font-family="Times,serif" font-size="14.00">gift :character varying</text>
<text text-anchor="start" x="1035" y="-300.8" font-family="Times,serif" font-size="14.00">value :integer</text>
<text text-anchor="start" x="1035" y="-285.8" font-family="Times,serif" font-size="14.00">created_at :timestamp without time zone</text>
<text text-anchor="start" x="1035" y="-270.8" font-family="Times,serif" font-size="14.00">updated_at :timestamp without time zone</text>
</g>
<!-- Meeting&#45;&gt;GovernmentOffice -->
<g id="edge31" class="edge"><title>Meeting&#45;&gt;GovernmentOffice</title>
<path fill="none" stroke="#43b270" d="M1280.26,-272.542C1289.43,-268.496 1298.72,-264.917 1308,-262 1341.66,-251.421 1600.77,-269.643 1625,-244 1631.63,-236.986 1633.72,-228.624 1632.93,-219.823"/>
<polygon fill="#43b270" stroke="#43b270" points="1280.23,-272.559 1269.26,-272.648 1275.68,-274.648 1271.14,-276.736 1271.14,-276.736 1271.14,-276.736 1275.68,-274.648 1273.02,-280.825 1280.23,-272.559 1280.23,-272.559"/>
<polygon fill="#43b270" stroke="#43b270" points="1632.87,-219.549 1635.3,-208.857 1631.88,-214.648 1630.89,-209.747 1630.89,-209.747 1630.89,-209.747 1631.88,-214.648 1626.48,-210.637 1632.87,-219.549 1632.87,-219.549"/>
</g>
<!-- Meeting&#45;&gt;Organisation -->
<g id="edge28" class="edge"><title>Meeting&#45;&gt;Organisation</title>
<path fill="none" stroke="#e7880c" d="M1017.22,-262.776C1016.48,-262.512 1015.74,-262.253 1015,-262 979.077,-249.74 358.484,-271.191 332,-244 327.038,-238.906 327.182,-233.23 332,-228 347.25,-211.445 500.426,-215.365 549.629,-209.318"/>
<polygon fill="#e7880c" stroke="#e7880c" points="1017.48,-262.878 1025.17,-270.704 1022.14,-264.695 1026.8,-266.511 1026.8,-266.511 1026.8,-266.511 1022.14,-264.695 1028.44,-262.319 1017.48,-262.878 1017.48,-262.878"/>
<polygon fill="#e7880c" stroke="#e7880c" points="549.901,-209.271 560.527,-211.98 554.826,-208.409 559.751,-207.547 559.751,-207.547 559.751,-207.547 554.826,-208.409 558.976,-203.115 549.901,-209.271 549.901,-209.271"/>
</g>
<!-- Meeting&#45;&gt;InfluenceOfficePerson -->
<g id="edge27" class="edge"><title>Meeting&#45;&gt;InfluenceOfficePerson</title>
<path fill="none" stroke="#5308c2" d="M1019.07,-263.448C1017.72,-262.947 1016.36,-262.464 1015,-262 942.415,-237.238 398.927,-264.41 325,-244 300.935,-237.356 276.629,-226.53 254.291,-214.545"/>
<ellipse fill="none" stroke="#5308c2" cx="1023.08" cy="-265.037" rx="4.00001" ry="4.00001"/>
<polygon fill="#5308c2" stroke="#5308c2" points="254.269,-214.534 247.671,-205.775 249.887,-212.126 245.505,-209.719 245.505,-209.719 245.505,-209.719 249.887,-212.126 243.338,-213.663 254.269,-214.534 254.269,-214.534"/>
</g>
<!-- Meeting&#45;&gt;Person -->
<g id="edge29" class="edge"><title>Meeting&#45;&gt;Person</title>
<path fill="none" stroke="#7661d4" d="M1126.51,-253.457C1121.98,-244.284 1116.54,-235.615 1110,-228 1100.05,-216.406 1087.99,-206.418 1074.97,-197.841"/>
<polygon fill="#7661d4" stroke="#7661d4" points="1126.61,-253.672 1126.65,-264.638 1128.68,-258.225 1130.74,-262.777 1130.74,-262.777 1130.74,-262.777 1128.68,-258.225 1134.84,-260.916 1126.61,-253.672 1126.61,-253.672"/>
<polygon fill="#7661d4" stroke="#7661d4" points="1074.77,-197.712 1068.68,-188.591 1070.53,-195.059 1066.29,-192.405 1066.29,-192.405 1066.29,-192.405 1070.53,-195.059 1063.9,-196.22 1074.77,-197.712 1074.77,-197.712"/>
<text text-anchor="middle" x="1175" y="-232.3" font-family="Times,serif" font-size="14.00">organisation_people</text>
</g>
<!-- Meeting&#45;&gt;Person -->
<g id="edge30" class="edge"><title>Meeting&#45;&gt;Person</title>
<path fill="none" stroke="#4cece3" d="M1242.66,-252.808C1242.67,-244.295 1240.08,-235.93 1234,-228 1213.97,-201.877 1143.15,-182.547 1076.51,-169.665"/>
<polygon fill="#4cece3" stroke="#4cece3" points="1242.65,-252.919 1237.02,-262.334 1242.07,-257.886 1241.49,-262.853 1241.49,-262.853 1241.49,-262.853 1242.07,-257.886 1245.96,-263.371 1242.65,-252.919 1242.65,-252.919"/>
<polygon fill="#4cece3" stroke="#4cece3" points="1076.12,-169.59 1067.13,-163.311 1071.21,-168.661 1066.29,-167.732 1066.29,-167.732 1066.29,-167.732 1071.21,-168.661 1065.46,-172.154 1076.12,-169.59 1076.12,-169.59"/>
<text text-anchor="middle" x="1295.5" y="-232.3" font-family="Times,serif" font-size="14.00">government_people</text>
</g>
<!-- Person&#45;&gt;InfluenceOfficePeople -->
<g id="edge32" class="edge"><title>Person&#45;&gt;InfluenceOfficePeople</title>
<path fill="none" stroke="#49f872" d="M884.716,-82.0717C872.263,-68.2238 859.89,-54.4638 849.893,-43.3465"/>
<ellipse fill="none" stroke="#49f872" cx="887.74" cy="-85.4345" rx="4.00002" ry="4.00002"/>
<polygon fill="#49f872" stroke="#49f872" points="849.753,-43.1908 846.413,-32.746 846.41,-39.4729 843.066,-35.755 843.066,-35.755 843.066,-35.755 846.41,-39.4729 839.72,-38.7639 849.753,-43.1908 849.753,-43.1908"/>
<text text-anchor="middle" x="890.5" y="-58.3" font-family="Times,serif" font-size="14.00">offices</text>
</g>
<!-- Person&#45;&gt;InfluenceOfficePeople -->
<g id="edge33" class="edge"><title>Person&#45;&gt;InfluenceOfficePeople</title>
<path fill="none" stroke="#718943" d="M929.779,-80.6153C925.559,-70.8942 920.089,-61.6192 913,-54 906.545,-47.0627 898.512,-41.4606 889.98,-36.9476"/>
<ellipse fill="none" stroke="#718943" cx="931.288" cy="-84.4002" rx="4.00001" ry="4.00001"/>
<polygon fill="#718943" stroke="#718943" points="889.974,-36.9448 882.896,-28.5692 885.464,-34.7866 880.954,-32.6285 880.954,-32.6285 880.954,-32.6285 885.464,-34.7866 879.012,-36.6877 889.974,-36.9448 889.974,-36.9448"/>
<text text-anchor="middle" x="941.5" y="-58.3" font-family="Times,serif" font-size="14.00">people</text>
</g>
</g>
</svg>
