<?xml version="1.0" encoding="UTF-8" standalone="no"?>
<!DOCTYPE svg PUBLIC "-//W3C//DTD SVG 1.1//EN"
 "http://www.w3.org/Graphics/SVG/1.1/DTD/svg11.dtd">
<!-- Generated by graphviz version 2.36.0 (20140111.2315)
 -->
<!-- Title: models_diagram Pages: 1 -->
<svg width="1713pt" height="262pt"
 viewBox="0.00 0.00 1712.56 262.00" xmlns="http://www.w3.org/2000/svg" xmlns:xlink="http://www.w3.org/1999/xlink">
<g id="graph0" class="graph" transform="scale(1 1) rotate(0) translate(4 258)">
<title>models_diagram</title>
<polygon fill="none" stroke="none" points="-4,4 -4,-258 1708.56,-258 1708.56,4 -4,4"/>
<!-- _diagram_info -->
<g id="node1" class="node"><title>_diagram_info</title>
<text text-anchor="start" x="22" y="-239.6" font-family="Times,serif" font-size="13.00">Models diagram</text>
<text text-anchor="start" x="22" y="-225.6" font-family="Times,serif" font-size="13.00">Date: Oct 02 2016 &#45; 21:35</text>
<text text-anchor="start" x="22" y="-211.6" font-family="Times,serif" font-size="13.00">Migration version: 20161002183132</text>
<text text-anchor="start" x="22" y="-197.6" font-family="Times,serif" font-size="13.00">Generated by RailRoady 1.5.2</text>
<text text-anchor="start" x="22" y="-183.6" font-family="Times,serif" font-size="13.00">http://railroady.prestonlee.com</text>
</g>
<!-- GovernmentOffice -->
<g id="node2" class="node"><title>GovernmentOffice</title>
<ellipse fill="none" stroke="black" cx="1508" cy="-106" rx="77.0154" ry="18"/>
<text text-anchor="middle" x="1508" y="-102.3" font-family="Times,serif" font-size="14.00">GovernmentOffice</text>
</g>
<!-- InfluenceOfficePeople -->
<g id="node13" class="node"><title>InfluenceOfficePeople</title>
<ellipse fill="none" stroke="black" cx="713" cy="-18" rx="90.0136" ry="18"/>
<text text-anchor="middle" x="713" y="-14.3" font-family="Times,serif" font-size="14.00">InfluenceOfficePeople</text>
</g>
<!-- GovernmentOffice&#45;&gt;InfluenceOfficePeople -->
<g id="edge1" class="edge"><title>GovernmentOffice&#45;&gt;InfluenceOfficePeople</title>
<path fill="none" stroke="#c783ac" d="M1431.57,-96.7323C1283.2,-80.6824 957.015,-45.3966 800.354,-28.4496"/>
<ellipse fill="none" stroke="#c783ac" cx="1435.55" cy="-97.163" rx="4.00001" ry="4.00001"/>
<polygon fill="#c783ac" stroke="#c783ac" points="800.225,-28.4358 790.767,-22.8863 795.254,-27.898 790.283,-27.3602 790.283,-27.3602 790.283,-27.3602 795.254,-27.898 789.799,-31.8341 800.225,-28.4358 800.225,-28.4358"/>
<text text-anchor="middle" x="1200.5" y="-58.3" font-family="Times,serif" font-size="14.00">offices</text>
</g>
<!-- GovernmentOffice&#45;&gt;InfluenceOfficePeople -->
<g id="edge2" class="edge"><title>GovernmentOffice&#45;&gt;InfluenceOfficePeople</title>
<path fill="none" stroke="#2317e2" d="M1445.18,-91.734C1387.63,-80.064 1299.95,-63.4967 1223,-54 1080.22,-36.3782 913.77,-27.0396 810.877,-22.5597"/>
<ellipse fill="none" stroke="#2317e2" cx="1449.18" cy="-92.5483" rx="4.00001" ry="4.00001"/>
<polygon fill="#2317e2" stroke="#2317e2" points="810.804,-22.5566 801.006,-17.6323 805.809,-22.3424 800.813,-22.1282 800.813,-22.1282 800.813,-22.1282 805.809,-22.3424 800.62,-26.6241 810.804,-22.5566 810.804,-22.5566"/>
<text text-anchor="middle" x="1344.5" y="-58.3" font-family="Times,serif" font-size="14.00">people</text>
</g>
<!-- Hospitality -->
<g id="node3" class="node"><title>Hospitality</title>
<ellipse fill="none" stroke="black" cx="538" cy="-215" rx="50.0684" ry="18"/>
<text text-anchor="middle" x="538" y="-211.3" font-family="Times,serif" font-size="14.00">Hospitality</text>
</g>
<!-- Hospitality&#45;&gt;GovernmentOffice -->
<g id="edge7" class="edge"><title>Hospitality&#45;&gt;GovernmentOffice</title>
<path fill="none" stroke="#3b8433" d="M589.962,-202.909C634.77,-193.873 701.328,-181.71 760,-176 800.598,-172.049 1461.87,-183.128 1494,-158 1501.36,-152.247 1505.08,-143.013 1506.89,-133.974"/>
<polygon fill="#3b8433" stroke="#3b8433" points="589.7,-202.962 579.002,-200.549 584.8,-203.961 579.901,-204.959 579.901,-204.959 579.901,-204.959 584.8,-203.961 580.799,-209.368 589.7,-202.962 589.7,-202.962"/>
<polygon fill="#3b8433" stroke="#3b8433" points="1506.89,-133.959 1512.68,-124.644 1507.56,-129.003 1508.22,-124.047 1508.22,-124.047 1508.22,-124.047 1507.56,-129.003 1503.76,-123.45 1506.89,-133.959 1506.89,-133.959"/>
</g>
<!-- Organisation -->
<g id="node9" class="node"><title>Organisation</title>
<ellipse fill="none" stroke="black" cx="609" cy="-106" rx="55.3436" ry="18"/>
<text text-anchor="middle" x="609" y="-102.3" font-family="Times,serif" font-size="14.00">Organisation</text>
</g>
<!-- Hospitality&#45;&gt;Organisation -->
<g id="edge4" class="edge"><title>Hospitality&#45;&gt;Organisation</title>
<path fill="none" stroke="#ad3670" d="M483.601,-204.551C437.244,-196.6 368.82,-185.103 309,-176 249.959,-167.016 137.824,-185.257 179,-142 206.996,-112.589 503.867,-130.17 544,-124 549.058,-123.222 554.292,-122.212 559.492,-121.071"/>
<polygon fill="#ad3670" stroke="#ad3670" points="483.872,-204.597 492.965,-210.726 488.8,-205.444 493.728,-206.291 493.728,-206.291 493.728,-206.291 488.8,-205.444 494.49,-201.856 483.872,-204.597 483.872,-204.597"/>
<polygon fill="#ad3670" stroke="#ad3670" points="559.662,-121.032 570.426,-123.125 564.53,-119.888 569.397,-118.744 569.397,-118.744 569.397,-118.744 564.53,-119.888 568.368,-114.364 559.662,-121.032 559.662,-121.032"/>
</g>
<!-- InfluenceOfficePerson -->
<g id="node11" class="node"><title>InfluenceOfficePerson</title>
<ellipse fill="none" stroke="black" cx="90" cy="-106" rx="90.0136" ry="18"/>
<text text-anchor="middle" x="90" y="-102.3" font-family="Times,serif" font-size="14.00">InfluenceOfficePerson</text>
</g>
<!-- Hospitality&#45;&gt;InfluenceOfficePerson -->
<g id="edge3" class="edge"><title>Hospitality&#45;&gt;InfluenceOfficePerson</title>
<path fill="none" stroke="#3d55d3" d="M486.611,-204.168C440.32,-195.623 370.325,-183.474 309,-176 283.555,-172.899 96.4043,-176.82 79,-158 72.9231,-151.429 73.1763,-142.332 75.7782,-133.639"/>
<ellipse fill="none" stroke="#3d55d3" cx="490.753" cy="-204.936" rx="4.00001" ry="4.00001"/>
<polygon fill="#3d55d3" stroke="#3d55d3" points="75.8484,-133.46 83.6907,-125.795 77.6751,-128.805 79.5017,-124.151 79.5017,-124.151 79.5017,-124.151 77.6751,-128.805 75.3127,-122.507 75.8484,-133.46 75.8484,-133.46"/>
</g>
<!-- Person -->
<g id="node12" class="node"><title>Person</title>
<ellipse fill="none" stroke="black" cx="803" cy="-106" rx="34.1708" ry="18"/>
<text text-anchor="middle" x="803" y="-102.3" font-family="Times,serif" font-size="14.00">Person</text>
</g>
<!-- Hospitality&#45;&gt;Person -->
<g id="edge5" class="edge"><title>Hospitality&#45;&gt;Person</title>
<path fill="none" stroke="#4bc428" d="M574.022,-194.976C604.207,-179.486 648.707,-157.693 689,-142 713.258,-132.552 741.189,-123.941 763.333,-117.625"/>
<polygon fill="#4bc428" stroke="#4bc428" points="573.633,-195.177 562.683,-195.77 569.191,-197.472 564.748,-199.767 564.748,-199.767 564.748,-199.767 569.191,-197.472 566.814,-203.765 573.633,-195.177 573.633,-195.177"/>
<polygon fill="#4bc428" stroke="#4bc428" points="763.439,-117.595 774.283,-119.221 768.252,-116.242 773.066,-114.889 773.066,-114.889 773.066,-114.889 768.252,-116.242 771.848,-110.557 763.439,-117.595 763.439,-117.595"/>
<text text-anchor="middle" x="744" y="-146.3" font-family="Times,serif" font-size="14.00">organisation_people</text>
</g>
<!-- Hospitality&#45;&gt;Person -->
<g id="edge6" class="edge"><title>Hospitality&#45;&gt;Person</title>
<path fill="none" stroke="#fca34f" d="M530.113,-187.155C527.453,-172.137 527.422,-154.067 538,-142 538.228,-141.74 685.285,-122.43 760.205,-112.607"/>
<polygon fill="#fca34f" stroke="#fca34f" points="530.12,-187.189 527.882,-197.924 531.198,-192.071 532.276,-196.954 532.276,-196.954 532.276,-196.954 531.198,-192.071 536.671,-195.984 530.12,-187.189 530.12,-187.189"/>
<polygon fill="#fca34f" stroke="#fca34f" points="760.359,-112.587 770.86,-115.749 765.317,-111.937 770.275,-111.287 770.275,-111.287 770.275,-111.287 765.317,-111.937 769.69,-106.826 760.359,-112.587 760.359,-112.587"/>
<text text-anchor="middle" x="592.5" y="-146.3" font-family="Times,serif" font-size="14.00">government_people</text>
</g>
<!-- Gift -->
<g id="node4" class="node"><title>Gift</title>
<ellipse fill="none" stroke="black" cx="273" cy="-215" rx="27" ry="18"/>
<text text-anchor="middle" x="273" y="-211.3" font-family="Times,serif" font-size="14.00">Gift</text>
</g>
<!-- Gift&#45;&gt;GovernmentOffice -->
<g id="edge12" class="edge"><title>Gift&#45;&gt;GovernmentOffice</title>
<path fill="none" stroke="#1b4e7e" d="M308.16,-205.692C348.967,-196.475 418.418,-182.1 479,-176 533.401,-170.522 1413.37,-180.944 1463,-158 1474.85,-152.519 1484.87,-142.255 1492.41,-132.363"/>
<polygon fill="#1b4e7e" stroke="#1b4e7e" points="307.928,-205.744 297.177,-203.585 303.053,-206.858 298.179,-207.972 298.179,-207.972 298.179,-207.972 303.053,-206.858 299.182,-212.359 307.928,-205.744 307.928,-205.744"/>
<polygon fill="#1b4e7e" stroke="#1b4e7e" points="1492.62,-132.063 1502.07,-126.493 1495.51,-127.98 1498.4,-123.896 1498.4,-123.896 1498.4,-123.896 1495.51,-127.98 1494.72,-121.299 1492.62,-132.063 1492.62,-132.063"/>
</g>
<!-- Gift&#45;&gt;Organisation -->
<g id="edge9" class="edge"><title>Gift&#45;&gt;Organisation</title>
<path fill="none" stroke="#57e40e" d="M254.632,-191.104C249.154,-185.48 242.785,-179.948 236,-176 208.606,-160.061 186.377,-183.08 167,-158 162.652,-152.373 162.093,-147.147 167,-142 181.469,-126.824 523.273,-127.17 544,-124 549.059,-123.226 554.293,-122.218 559.494,-121.079"/>
<polygon fill="#57e40e" stroke="#57e40e" points="254.79,-191.279 258.17,-201.711 258.147,-194.984 261.505,-198.69 261.505,-198.69 261.505,-198.69 258.147,-194.984 264.839,-195.668 254.79,-191.279 254.79,-191.279"/>
<polygon fill="#57e40e" stroke="#57e40e" points="559.663,-121.04 570.427,-123.135 564.531,-119.897 569.399,-118.755 569.399,-118.755 569.399,-118.755 564.531,-119.897 568.37,-114.374 559.663,-121.04 559.663,-121.04"/>
</g>
<!-- Gift&#45;&gt;InfluenceOfficePerson -->
<g id="edge8" class="edge"><title>Gift&#45;&gt;InfluenceOfficePerson</title>
<path fill="none" stroke="#41d1b4" d="M256.764,-192.218C250.934,-185.94 243.84,-179.774 236,-176 199.381,-158.371 81.2872,-188.119 54,-158 46.4391,-149.654 50.9466,-139.682 58.9714,-130.778"/>
<ellipse fill="none" stroke="#41d1b4" cx="259.537" cy="-195.423" rx="4.00002" ry="4.00002"/>
<polygon fill="#41d1b4" stroke="#41d1b4" points="59.1787,-130.576 69.4872,-126.836 62.7652,-127.092 66.3517,-123.609 66.3517,-123.609 66.3517,-123.609 62.7652,-127.092 63.2163,-120.381 59.1787,-130.576 59.1787,-130.576"/>
</g>
<!-- Gift&#45;&gt;Person -->
<g id="edge10" class="edge"><title>Gift&#45;&gt;Person</title>
<path fill="none" stroke="#c5fe31" d="M265.268,-187.324C262.608,-172.054 262.689,-153.669 274,-142 289.444,-126.067 650.896,-125.94 673,-124 702.295,-121.428 735.133,-117.123 760.475,-113.488"/>
<polygon fill="#c5fe31" stroke="#c5fe31" points="265.308,-187.508 263.047,-198.239 266.376,-192.393 267.443,-197.278 267.443,-197.278 267.443,-197.278 266.376,-192.393 271.84,-196.317 265.308,-187.508 265.308,-187.508"/>
<polygon fill="#c5fe31" stroke="#c5fe31" points="760.598,-113.47 771.142,-116.483 765.546,-112.75 770.494,-112.03 770.494,-112.03 770.494,-112.03 765.546,-112.75 769.846,-107.577 760.598,-113.47 760.598,-113.47"/>
<text text-anchor="middle" x="329" y="-146.3" font-family="Times,serif" font-size="14.00">organisation_people</text>
</g>
<!-- Gift&#45;&gt;Person -->
<g id="edge11" class="edge"><title>Gift&#45;&gt;Person</title>
<path fill="none" stroke="#a4d11a" d="M302.78,-198.843C343.418,-178.215 411.93,-143.652 418,-142 527.629,-112.169 559.955,-135.371 673,-124 702.26,-121.057 735.098,-116.754 760.449,-113.214"/>
<polygon fill="#a4d11a" stroke="#a4d11a" points="302.749,-198.859 291.796,-199.376 298.291,-201.124 293.834,-203.388 293.834,-203.388 293.834,-203.388 298.291,-201.124 295.872,-207.4 302.749,-198.859 302.749,-198.859"/>
<polygon fill="#a4d11a" stroke="#a4d11a" points="760.571,-113.197 771.101,-116.256 765.522,-112.499 770.473,-111.8 770.473,-111.8 770.473,-111.8 765.522,-112.499 769.844,-107.344 760.571,-113.197 760.571,-113.197"/>
<text text-anchor="middle" x="472.5" y="-146.3" font-family="Times,serif" font-size="14.00">government_people</text>
</g>
<!-- Travel -->
<g id="node5" class="node"><title>Travel</title>
<ellipse fill="none" stroke="black" cx="803" cy="-215" rx="33.1991" ry="18"/>
<text text-anchor="middle" x="803" y="-211.3" font-family="Times,serif" font-size="14.00">Travel</text>
</g>
<!-- Travel&#45;&gt;GovernmentOffice -->
<g id="edge17" class="edge"><title>Travel&#45;&gt;GovernmentOffice</title>
<path fill="none" stroke="#ae88b5" d="M843.052,-205.242C886.239,-196.202 957.127,-182.525 1019,-176 1046.64,-173.085 1499.7,-178.005 1519,-158 1525.21,-151.558 1524.99,-142.491 1522.38,-133.785"/>
<polygon fill="#ae88b5" stroke="#ae88b5" points="843.002,-205.253 832.288,-202.918 838.111,-206.287 833.219,-207.321 833.219,-207.321 833.219,-207.321 838.111,-206.287 834.149,-211.724 843.002,-205.253 843.002,-205.253"/>
<polygon fill="#ae88b5" stroke="#ae88b5" points="1522.29,-133.571 1522.81,-122.617 1520.46,-128.92 1518.62,-124.268 1518.62,-124.268 1518.62,-124.268 1520.46,-128.92 1514.44,-125.92 1522.29,-133.571 1522.29,-133.571"/>
</g>
<!-- Travel&#45;&gt;Organisation -->
<g id="edge14" class="edge"><title>Travel&#45;&gt;Organisation</title>
<path fill="none" stroke="#d05566" d="M762.879,-204.917C721.542,-195.955 655.123,-182.66 597,-176 575.286,-173.512 219.097,-173.804 204,-158 151.55,-103.093 468.97,-135.674 544,-124 549.057,-123.213 554.29,-122.197 559.489,-121.052"/>
<polygon fill="#d05566" stroke="#d05566" points="763.06,-204.956 771.866,-211.491 767.944,-206.025 772.828,-207.095 772.828,-207.095 772.828,-207.095 767.944,-206.025 773.791,-202.699 763.06,-204.956 763.06,-204.956"/>
<polygon fill="#d05566" stroke="#d05566" points="559.66,-121.013 570.425,-123.102 564.527,-119.867 569.394,-118.721 569.394,-118.721 569.394,-118.721 564.527,-119.867 568.363,-114.341 559.66,-121.013 559.66,-121.013"/>
</g>
<!-- Travel&#45;&gt;InfluenceOfficePerson -->
<g id="edge13" class="edge"><title>Travel&#45;&gt;InfluenceOfficePerson</title>
<path fill="none" stroke="#5a4170" d="M764.971,-205.261C723.818,-196.21 656.139,-182.499 597,-176 569.757,-173.006 125.488,-175.013 104,-158 96.6777,-152.203 92.964,-142.96 91.1472,-133.926"/>
<ellipse fill="none" stroke="#5a4170" cx="768.933" cy="-206.14" rx="4.00001" ry="4.00001"/>
<polygon fill="#5a4170" stroke="#5a4170" points="91.1464,-133.92 94.2705,-123.409 90.4786,-128.965 89.8108,-124.01 89.8108,-124.01 89.8108,-124.01 90.4786,-128.965 85.3511,-124.611 91.1464,-133.92 91.1464,-133.92"/>
</g>
<!-- Travel&#45;&gt;Person -->
<g id="edge15" class="edge"><title>Travel&#45;&gt;Person</title>
<path fill="none" stroke="#177f63" d="M803,-186.611C803,-170.613 803,-150.489 803,-134.476"/>
<polygon fill="#177f63" stroke="#177f63" points="803,-186.809 798.5,-196.809 803,-191.809 803,-196.809 803,-196.809 803,-196.809 803,-191.809 807.5,-196.809 803,-186.809 803,-186.809"/>
<polygon fill="#177f63" stroke="#177f63" points="803,-134.149 807.5,-124.149 803,-129.149 803,-124.149 803,-124.149 803,-124.149 803,-129.149 798.5,-124.149 803,-134.149 803,-134.149"/>
<text text-anchor="middle" x="858" y="-146.3" font-family="Times,serif" font-size="14.00">organisation_people</text>
</g>
<!-- Travel&#45;&gt;Person -->
<g id="edge16" class="edge"><title>Travel&#45;&gt;Person</title>
<path fill="none" stroke="#9e5ad6" d="M843.253,-204.857C883.516,-193.761 936.475,-172.653 914,-142 898.736,-121.183 871.065,-112.426 847.17,-108.877"/>
<polygon fill="#9e5ad6" stroke="#9e5ad6" points="843.015,-204.919 832.199,-203.11 838.179,-206.191 833.344,-207.462 833.344,-207.462 833.344,-207.462 838.179,-206.191 834.488,-211.814 843.015,-204.919 843.015,-204.919"/>
<polygon fill="#9e5ad6" stroke="#9e5ad6" points="847.134,-108.873 837.756,-103.189 842.171,-108.264 837.208,-107.655 837.208,-107.655 837.208,-107.655 842.171,-108.264 836.66,-112.122 847.134,-108.873 847.134,-108.873"/>
<text text-anchor="middle" x="974.5" y="-146.3" font-family="Times,serif" font-size="14.00">government_people</text>
</g>
<!-- MeansOfInfluence -->
<g id="node6" class="node"><title>MeansOfInfluence</title>
<ellipse fill="none" stroke="black" cx="1358" cy="-215" rx="77.0154" ry="18"/>
<text text-anchor="middle" x="1358" y="-211.3" font-family="Times,serif" font-size="14.00">MeansOfInfluence</text>
</g>
<!-- MeansOfInfluence&#45;&gt;GovernmentOffice -->
<g id="edge22" class="edge"><title>MeansOfInfluence&#45;&gt;GovernmentOffice</title>
<path fill="none" stroke="#9e594d" d="M1396.61,-193.754C1411.37,-186.933 1428.59,-180.034 1445,-176 1472.69,-169.194 1681.56,-178.858 1701,-158 1705.85,-152.798 1705.56,-147.459 1701,-142 1686.87,-125.08 1637.68,-116.322 1592.49,-111.798"/>
<polygon fill="#9e594d" stroke="#9e594d" points="1396.34,-193.887 1385.37,-194.134 1391.82,-196.041 1387.31,-198.195 1387.31,-198.195 1387.31,-198.195 1391.82,-196.041 1389.25,-202.256 1396.34,-193.887 1396.34,-193.887"/>
<polygon fill="#9e594d" stroke="#9e594d" points="1592.28,-111.779 1582.75,-106.363 1587.31,-111.311 1582.33,-110.843 1582.33,-110.843 1582.33,-110.843 1587.31,-111.311 1581.91,-115.323 1592.28,-111.779 1592.28,-111.779"/>
</g>
<!-- MeansOfInfluence&#45;&gt;Organisation -->
<g id="edge19" class="edge"><title>MeansOfInfluence&#45;&gt;Organisation</title>
<path fill="none" stroke="#fcee2c" d="M1339.43,-188.672C1325.65,-172.086 1305.27,-151.741 1282,-142 1228.47,-119.592 817.879,-128.25 760,-124 730.138,-121.807 697.074,-118.217 669.516,-114.9"/>
<polygon fill="#fcee2c" stroke="#fcee2c" points="1339.78,-189.11 1342.5,-199.733 1342.9,-193.018 1346.02,-196.927 1346.02,-196.927 1346.02,-196.927 1342.9,-193.018 1349.53,-194.12 1339.78,-189.11 1339.78,-189.11"/>
<polygon fill="#fcee2c" stroke="#fcee2c" points="669.169,-114.858 659.788,-109.179 664.205,-114.252 659.242,-113.646 659.242,-113.646 659.242,-113.646 664.205,-114.252 658.697,-118.112 669.169,-114.858 669.169,-114.858"/>
</g>
<!-- MeansOfInfluence&#45;&gt;InfluenceOfficePerson -->
<g id="edge18" class="edge"><title>MeansOfInfluence&#45;&gt;InfluenceOfficePerson</title>
<path fill="none" stroke="#891c43" d="M1292.92,-201.292C1244.59,-192.452 1176.95,-181.333 1117,-176 1022.35,-167.581 354.738,-178.703 262,-158 244.912,-154.185 242.535,-147.757 226,-142 204.336,-134.457 180.225,-127.731 158.393,-122.24"/>
<ellipse fill="none" stroke="#891c43" cx="1296.88" cy="-202.021" rx="4.00001" ry="4.00001"/>
<polygon fill="#891c43" stroke="#891c43" points="158.247,-122.204 149.618,-115.437 153.393,-121.005 148.539,-119.805 148.539,-119.805 148.539,-119.805 153.393,-121.005 147.46,-124.174 158.247,-122.204 158.247,-122.204"/>
</g>
<!-- MeansOfInfluence&#45;&gt;Person -->
<g id="edge20" class="edge"><title>MeansOfInfluence&#45;&gt;Person</title>
<path fill="none" stroke="#53c599" d="M1356.94,-186.511C1354.78,-170.952 1349.32,-152.55 1336,-142 1298.12,-111.997 968.618,-107.649 847.457,-107.068"/>
<polygon fill="#53c599" stroke="#53c599" points="1356.96,-186.746 1353.48,-197.144 1357.46,-191.722 1357.95,-196.697 1357.95,-196.697 1357.95,-196.697 1357.46,-191.722 1362.43,-196.25 1356.96,-186.746 1356.96,-186.746"/>
<polygon fill="#53c599" stroke="#53c599" points="847.406,-107.068 837.425,-102.527 842.406,-107.048 837.406,-107.027 837.406,-107.027 837.406,-107.027 842.406,-107.048 837.388,-111.527 847.406,-107.068 847.406,-107.068"/>
<text text-anchor="middle" x="1404" y="-146.3" font-family="Times,serif" font-size="14.00">organisation_people</text>
</g>
<!-- MeansOfInfluence&#45;&gt;Person -->
<g id="edge21" class="edge"><title>MeansOfInfluence&#45;&gt;Person</title>
<path fill="none" stroke="#71950b" d="M1404.3,-195C1429.16,-183.755 1456.1,-169.507 1463,-158 1466.66,-151.902 1467.89,-147.16 1463,-142 1441.82,-119.663 992.236,-110.179 847.48,-107.697"/>
<polygon fill="#71950b" stroke="#71950b" points="1404.07,-195.104 1393.1,-195.035 1399.5,-197.127 1394.92,-199.151 1394.92,-199.151 1394.92,-199.151 1399.5,-197.127 1396.74,-203.266 1404.07,-195.104 1404.07,-195.104"/>
<polygon fill="#71950b" stroke="#71950b" points="847.195,-107.692 837.272,-103.024 842.196,-107.608 837.196,-107.523 837.196,-107.523 837.196,-107.523 842.196,-107.608 837.12,-112.023 847.195,-107.692 847.195,-107.692"/>
<text text-anchor="middle" x="1521.5" y="-146.3" font-family="Times,serif" font-size="14.00">government_people</text>
</g>
<!-- Entity -->
<g id="node7" class="node"><title>Entity</title>
<ellipse fill="none" stroke="black" cx="503" cy="-106" rx="32.2457" ry="18"/>
<text text-anchor="middle" x="503" y="-102.3" font-family="Times,serif" font-size="14.00">Entity</text>
</g>
<!-- Entity&#45;&gt;InfluenceOfficePeople -->
<g id="edge23" class="edge"><title>Entity&#45;&gt;InfluenceOfficePeople</title>
<path fill="none" stroke="#a92372" d="M497.275,-79.8177C496.684,-70.7186 497.974,-60.9795 504,-54 518.927,-36.7119 568.542,-27.9604 615.684,-23.5316"/>
<ellipse fill="none" stroke="#a92372" cx="497.778" cy="-83.9263" rx="4.00001" ry="4.00001"/>
<polygon fill="#a92372" stroke="#a92372" points="615.732,-23.5275 626.088,-27.1333 620.712,-23.089 625.693,-22.6506 625.693,-22.6506 625.693,-22.6506 620.712,-23.089 625.298,-18.1679 615.732,-23.5275 615.732,-23.5275"/>
<text text-anchor="middle" x="522.5" y="-58.3" font-family="Times,serif" font-size="14.00">offices</text>
</g>
<!-- Entity&#45;&gt;InfluenceOfficePeople -->
<g id="edge24" class="edge"><title>Entity&#45;&gt;InfluenceOfficePeople</title>
<path fill="none" stroke="#6ccaa1" d="M525.905,-85.1417C539.177,-74.5416 556.652,-62.0569 574,-54 593.679,-44.8605 616.077,-37.8865 637.06,-32.6633"/>
<ellipse fill="none" stroke="#6ccaa1" cx="522.468" cy="-87.9491" rx="4.00002" ry="4.00002"/>
<polygon fill="#6ccaa1" stroke="#6ccaa1" points="637.179,-32.6348 647.951,-34.6886 642.043,-31.4732 646.906,-30.3117 646.906,-30.3117 646.906,-30.3117 642.043,-31.4732 645.861,-25.9348 637.179,-32.6348 637.179,-32.6348"/>
<text text-anchor="middle" x="592.5" y="-58.3" font-family="Times,serif" font-size="14.00">people</text>
</g>
<!-- ApplicationRecord -->
<g id="node8" class="node"><title>ApplicationRecord</title>
<ellipse fill="none" stroke="black" cx="1531" cy="-215" rx="77.0154" ry="18"/>
<text text-anchor="middle" x="1531" y="-211.3" font-family="Times,serif" font-size="14.00">ApplicationRecord</text>
</g>
<!-- Organisation&#45;&gt;InfluenceOfficePeople -->
<g id="edge25" class="edge"><title>Organisation&#45;&gt;InfluenceOfficePeople</title>
<path fill="none" stroke="#3a8b5e" d="M611.724,-79.934C613.821,-70.8492 617.512,-61.0896 624,-54 630.572,-46.8182 638.802,-41.0901 647.586,-36.5266"/>
<ellipse fill="none" stroke="#3a8b5e" cx="610.95" cy="-84.06" rx="4.00001" ry="4.00001"/>
<polygon fill="#3a8b5e" stroke="#3a8b5e" points="647.833,-36.4113 658.798,-36.2579 652.364,-34.2959 656.894,-32.1805 656.894,-32.1805 656.894,-32.1805 652.364,-34.2959 654.991,-28.1031 647.833,-36.4113 647.833,-36.4113"/>
<text text-anchor="middle" x="642.5" y="-58.3" font-family="Times,serif" font-size="14.00">offices</text>
</g>
<!-- Organisation&#45;&gt;InfluenceOfficePeople -->
<g id="edge26" class="edge"><title>Organisation&#45;&gt;InfluenceOfficePeople</title>
<path fill="none" stroke="#25c85b" d="M640.534,-85.1275C647.451,-80.4002 654.611,-75.2093 661,-70 671.005,-61.8417 681.301,-52.0793 690.063,-43.2897"/>
<ellipse fill="none" stroke="#25c85b" cx="637.059" cy="-87.4566" rx="4.00002" ry="4.00002"/>
<polygon fill="#25c85b" stroke="#25c85b" points="690.324,-43.0232 700.538,-39.0303 693.824,-39.452 697.324,-35.8807 697.324,-35.8807 697.324,-35.8807 693.824,-39.452 694.109,-32.7312 690.324,-43.0232 690.324,-43.0232"/>
<text text-anchor="middle" x="697.5" y="-58.3" font-family="Times,serif" font-size="14.00">people</text>
</g>
<!-- Meeting -->
<g id="node10" class="node"><title>Meeting</title>
<ellipse fill="none" stroke="black" cx="1068" cy="-215" rx="39.9464" ry="18"/>
<text text-anchor="middle" x="1068" y="-211.3" font-family="Times,serif" font-size="14.00">Meeting</text>
</g>
<!-- Meeting&#45;&gt;GovernmentOffice -->
<g id="edge31" class="edge"><title>Meeting&#45;&gt;GovernmentOffice</title>
<path fill="none" stroke="#1b6e5f" d="M1113.17,-203.999C1154.35,-195.261 1216.97,-182.922 1272,-176 1302.05,-172.22 1523.3,-180.113 1544,-158 1551.89,-149.571 1546.98,-139.327 1538.56,-130.237"/>
<polygon fill="#1b6e5f" stroke="#1b6e5f" points="1112.96,-204.044 1102.24,-201.737 1108.07,-205.091 1103.18,-206.137 1103.18,-206.137 1103.18,-206.137 1108.07,-205.091 1104.12,-210.538 1112.96,-204.044 1112.96,-204.044"/>
<polygon fill="#1b6e5f" stroke="#1b6e5f" points="1538.47,-130.15 1534.33,-119.993 1534.85,-126.7 1531.23,-123.251 1531.23,-123.251 1531.23,-123.251 1534.85,-126.7 1528.12,-126.509 1538.47,-130.15 1538.47,-130.15"/>
</g>
<!-- Meeting&#45;&gt;Organisation -->
<g id="edge28" class="edge"><title>Meeting&#45;&gt;Organisation</title>
<path fill="none" stroke="#62f622" d="M1022.67,-204.379C977.792,-195.302 906.996,-182.191 845,-176 812.148,-172.719 273.989,-181.696 251,-158 205.358,-110.954 479.274,-134.351 544,-124 549.053,-123.192 554.284,-122.161 559.483,-121.008"/>
<polygon fill="#62f622" stroke="#62f622" points="1022.88,-204.42 1031.77,-210.83 1027.77,-205.421 1032.67,-206.421 1032.67,-206.421 1032.67,-206.421 1027.77,-205.421 1033.57,-202.012 1022.88,-204.42 1022.88,-204.42"/>
<polygon fill="#62f622" stroke="#62f622" points="559.653,-120.968 570.421,-123.046 564.519,-119.817 569.385,-118.667 569.385,-118.667 569.385,-118.667 564.519,-119.817 568.349,-114.288 559.653,-120.968 559.653,-120.968"/>
</g>
<!-- Meeting&#45;&gt;InfluenceOfficePerson -->
<g id="edge27" class="edge"><title>Meeting&#45;&gt;InfluenceOfficePerson</title>
<path fill="none" stroke="#8468c5" d="M1024.64,-204.772C979.882,-195.68 907.911,-182.268 845,-176 711.601,-162.708 373.97,-181.576 242,-158 205.442,-151.469 165.705,-137.893 136.031,-126.39"/>
<ellipse fill="none" stroke="#8468c5" cx="1028.76" cy="-205.614" rx="4.00001" ry="4.00001"/>
<polygon fill="#8468c5" stroke="#8468c5" points="135.676,-126.25 128.024,-118.395 131.024,-124.415 126.373,-122.581 126.373,-122.581 126.373,-122.581 131.024,-124.415 124.722,-126.767 135.676,-126.25 135.676,-126.25"/>
</g>
<!-- Meeting&#45;&gt;Person -->
<g id="edge29" class="edge"><title>Meeting&#45;&gt;Person</title>
<path fill="none" stroke="#22045c" d="M1061.63,-187.076C1056.52,-171.467 1047.69,-152.816 1033,-142 1004.23,-120.821 905.419,-112.2 847.086,-108.894"/>
<polygon fill="#22045c" stroke="#22045c" points="1061.66,-187.186 1060.16,-198.049 1063.07,-191.984 1064.48,-196.781 1064.48,-196.781 1064.48,-196.781 1063.07,-191.984 1068.8,-195.514 1061.66,-187.186 1061.66,-187.186"/>
<polygon fill="#22045c" stroke="#22045c" points="847.026,-108.891 837.282,-103.861 842.033,-108.623 837.04,-108.354 837.04,-108.354 837.04,-108.354 842.033,-108.623 836.799,-112.848 847.026,-108.891 847.026,-108.891"/>
<text text-anchor="middle" x="1103" y="-146.3" font-family="Times,serif" font-size="14.00">organisation_people</text>
</g>
<!-- Meeting&#45;&gt;Person -->
<g id="edge30" class="edge"><title>Meeting&#45;&gt;Person</title>
<path fill="none" stroke="#f8c7da" d="M1109.49,-200.573C1143.77,-187.375 1183.59,-165.797 1162,-142 1141.21,-119.085 938.559,-110.691 847.233,-108.055"/>
<polygon fill="#f8c7da" stroke="#f8c7da" points="1109.4,-200.605 1098.46,-199.847 1104.71,-202.337 1100.02,-204.069 1100.02,-204.069 1100.02,-204.069 1104.71,-202.337 1101.58,-208.29 1109.4,-200.605 1109.4,-200.605"/>
<polygon fill="#f8c7da" stroke="#f8c7da" points="847.183,-108.054 837.312,-103.277 842.185,-107.915 837.187,-107.775 837.187,-107.775 837.187,-107.775 842.185,-107.915 837.061,-112.274 847.183,-108.054 847.183,-108.054"/>
<text text-anchor="middle" x="1223.5" y="-146.3" font-family="Times,serif" font-size="14.00">government_people</text>
</g>
<!-- Person&#45;&gt;InfluenceOfficePeople -->
<g id="edge32" class="edge"><title>Person&#45;&gt;InfluenceOfficePeople</title>
<path fill="none" stroke="#3a5395" d="M770.863,-89.7361C761.523,-84.3413 751.759,-77.6759 744,-70 736.751,-62.8289 730.495,-53.635 725.539,-45.0331"/>
<ellipse fill="none" stroke="#3a5395" cx="774.38" cy="-91.6769" rx="4.00002" ry="4.00002"/>
<polygon fill="#3a5395" stroke="#3a5395" points="725.441,-44.8523 724.645,-33.9153 723.063,-40.4537 720.686,-36.0552 720.686,-36.0552 720.686,-36.0552 723.063,-40.4537 716.727,-38.195 725.441,-44.8523 725.441,-44.8523"/>
<text text-anchor="middle" x="762.5" y="-58.3" font-family="Times,serif" font-size="14.00">offices</text>
</g>
<!-- Person&#45;&gt;InfluenceOfficePeople -->
<g id="edge33" class="edge"><title>Person&#45;&gt;InfluenceOfficePeople</title>
<path fill="none" stroke="#66716e" d="M796.147,-80.0692C792.726,-71.052 787.822,-61.3032 781,-54 775.647,-48.2693 769.144,-43.3199 762.307,-39.0963"/>
<ellipse fill="none" stroke="#66716e" cx="797.481" cy="-83.943" rx="4.00001" ry="4.00001"/>
<polygon fill="#66716e" stroke="#66716e" points="762.234,-39.0547 755.746,-30.2138 757.882,-36.5926 753.53,-34.1305 753.53,-34.1305 753.53,-34.1305 757.882,-36.5926 751.314,-38.0471 762.234,-39.0547 762.234,-39.0547"/>
<text text-anchor="middle" x="810.5" y="-58.3" font-family="Times,serif" font-size="14.00">people</text>
</g>
</g>
</svg>
